<svg xmlns="http://www.w3.org/2000/svg" fill="none" viewBox="0 0 65 65"><path d="M21.5352 59.416H14.2441V43.3037H21.5352V59.416Z" fill="currentColor"/><path d="M50.4902 43.3291H60.5576L52.333 49.4785L55.4463 59.416L47.3252 53.2666L39.1777 59.416L42.2656 49.4785L34.1445 43.3291H44.2119L47.3506 33.3662L50.4902 43.3291Z" fill="currentColor"/><path d="M30.3047 41.332H5.52637V34.0664H30.3047V41.332Z" fill="currentColor"/><path fill-rule="evenodd" clip-rule="evenodd" d="M21.6904 5.52637C27.5542 5.52637 30.0968 7.78403 31.0049 11.4424C31.6274 14.0369 30.512 16.8646 29.2666 18.084C30.3563 18.9661 32.1727 20.4972 31.8613 24.0518C31.524 27.9695 28.6181 30.9013 22.1318 30.9014H5.52637V5.52637H21.6904ZM12.791 21.6904V23.6631H23.0137V21.6904H12.791ZM12.791 12.8174V14.7891H23.0137V12.8174H12.791Z" fill="currentColor"/><path d="M59.3643 12.8174H42.5508V14.7891H59.3643V21.665H42.5508V23.6367H59.3643V30.9014H35.2598V5.55273H59.3643V12.8174Z" fill="currentColor"/></svg>
