<svg xmlns="http://www.w3.org/2000/svg" fill="none" viewBox="0 0 144 41"><g clip-path="url(#clip-copa90)"><path d="M10.3866 0.640625C20.2065 0.640805 20.2231 10.4441 20.2231 10.4779V15.3969H15.3049V10.4779C15.2558 8.2647 14.3705 5.55976 10.3866 5.55964C6.40016 5.55964 5.51682 8.2648 5.46758 10.5273V30.1525C5.51685 32.3659 6.40024 35.0707 10.3866 35.0707C14.3706 35.0706 15.2558 32.3655 15.3049 30.1031V25.2335H20.2231V30.1525C20.2231 30.1962 20.2015 39.9918 10.3866 39.992C0.571386 39.992 0.549365 30.1962 0.549316 30.1525V10.4779C0.549345 10.4446 0.566136 0.640625 10.3866 0.640625Z" fill="currentColor"/><path fill-rule="evenodd" clip-rule="evenodd" d="M34.9809 0.640625C44.798 0.640625 44.8182 10.4378 44.8182 10.4779V30.1525C44.8182 30.1736 44.8076 39.992 34.9809 39.992C25.1543 39.992 25.1437 30.1736 25.1436 30.1525V10.4779C25.1437 10.4378 25.1639 0.64063 34.9809 0.640625ZM34.9809 5.55964C30.9945 5.55964 30.1119 8.26464 30.0627 10.5273V30.1525C30.1119 32.3659 30.9945 35.0707 34.9809 35.0707C38.9651 35.0707 39.8501 32.3657 39.8992 30.1031V10.4779C39.8501 8.2645 38.9651 5.55964 34.9809 5.55964Z" fill="currentColor"/><path fill-rule="evenodd" clip-rule="evenodd" d="M59.5753 0.640625C69.392 0.640625 69.4125 10.4372 69.4125 10.4779V15.3969C69.4125 15.458 69.3817 25.2365 59.5753 25.2365H54.657V39.992H49.738V0.640625H59.5753ZM54.657 20.3174H59.5753C63.5594 20.3174 64.4452 17.61 64.4943 15.3475V10.4779C64.4452 8.2645 63.5594 5.55964 59.5753 5.55964H54.657V20.3174Z" fill="currentColor"/><path fill-rule="evenodd" clip-rule="evenodd" d="M84.1703 0.640625C94.0082 0.640625 94.0084 10.4787 94.0084 10.4787V39.992H89.0894V25.2357H79.2513V39.992H74.3331V10.4787C74.3331 10.4787 74.3327 0.640742 84.1703 0.640625ZM84.1703 5.55964C80.1838 5.55972 79.3006 8.26544 79.2513 10.5281V20.3167H89.0894V10.4787C89.0403 8.26509 88.1548 5.55964 84.1703 5.55964Z" fill="currentColor"/><path fill-rule="evenodd" clip-rule="evenodd" d="M108.765 0.640625C114.19 0.640812 118.603 5.05309 118.603 10.4787V15.3977C118.603 16.0148 118.53 16.6141 118.421 17.2C118.395 17.3392 118.361 17.4746 118.33 17.6117L112.738 39.992H107.668L111.46 24.8607L111.507 24.7978C110.631 25.0544 109.723 25.2357 108.765 25.2357C103.341 25.2357 98.9275 20.8233 98.9274 15.3977V10.4787C98.9274 5.05297 103.341 0.640625 108.765 0.640625ZM108.765 5.55964C106.053 5.55964 103.846 7.76702 103.846 10.4787V15.3977C103.846 18.1092 106.053 20.3167 108.765 20.3167C111.478 20.3165 113.684 18.1091 113.684 15.3977V10.4787C113.684 7.76713 111.478 5.55983 108.765 5.55964Z" fill="currentColor"/><path fill-rule="evenodd" clip-rule="evenodd" d="M133.359 0.640625C143.176 0.640625 143.196 10.4378 143.196 10.4779V30.1525C143.196 30.1736 143.186 39.992 133.359 39.992C123.532 39.992 123.522 30.1735 123.522 30.1525V10.4779C123.522 10.4378 123.542 0.640651 133.359 0.640625ZM133.359 5.55964C129.375 5.55966 128.49 8.26465 128.441 10.5273V30.1525C128.49 32.3659 129.375 35.0707 133.359 35.0707C137.343 35.0707 138.228 32.3657 138.277 30.1031V10.4779C138.228 8.2645 137.343 5.55964 133.359 5.55964Z" fill="currentColor"/></g><defs><clipPath id="clip-copa90"><rect width="143.325" height="40.6215" fill="currentColor"/></clipPath></defs></svg>
