<svg xmlns="http://www.w3.org/2000/svg" fill="none" viewBox="0 0 145 53"><path d="M0.0996378 6.61441C0.0996378 2.90482 2.75154 0 6.13155 0C6.59142 0 7.08195 0.122631 7.56481 0.245262C8.00934 0.360229 8.47687 0.475195 8.86776 0.475195C9.35828 0.475195 9.61121 0.260591 9.62654 0.176282C9.62654 0.122631 9.68786 0.0306578 9.83348 0.0306578C9.9791 0.0306578 10.0404 0.122631 10.0404 0.20694V3.75558C10.0404 3.83989 9.97144 3.93186 9.83348 3.93186C9.69552 3.93186 9.62654 3.83989 9.62654 3.75558C9.62654 2.14604 7.83306 0.444538 6.13155 0.444538C5.47241 0.444538 4.56034 0.55184 3.93952 1.07302C2.96614 1.92378 2.49094 3.74025 2.49094 6.62974C2.49094 9.51924 2.96614 11.3357 3.94719 12.1711C4.63699 12.7536 5.77133 12.8149 6.22353 12.8149C8.3849 12.8149 9.95611 11.2207 9.95611 9.02871C9.95611 8.9674 10.0021 8.85243 10.1784 8.85243C10.3547 8.85243 10.4006 8.95973 10.4006 9.02871V13.1445L10.3087 13.1905C10.255 13.2135 10.0864 13.2288 10.0098 13.1598L9.97144 13.1292V13.0832C9.94078 12.9606 9.74151 12.6847 9.2893 12.6847C8.91375 12.6847 8.43089 12.8073 7.92503 12.9376C7.3502 13.0832 6.76004 13.2365 6.22353 13.2365C2.84351 13.2212 0.0996378 10.255 0.0996378 6.61441ZM10.6229 6.61441C10.6229 2.90482 13.2748 0 16.6625 0C20.0502 0 22.7021 2.96614 22.7021 6.61441C22.7021 10.2627 19.9965 13.2135 16.6625 13.2135C13.3285 13.2135 10.6229 10.255 10.6229 6.61441ZM20.2954 6.61441C20.2954 3.72492 19.8202 1.90845 18.8392 1.05769C18.3027 0.62082 17.6512 0.429209 16.6548 0.429209C15.6585 0.429209 15.007 0.613155 14.4705 1.05769C13.5047 1.91611 13.0372 3.73258 13.0372 6.61441C13.0372 10.1784 13.6121 11.4047 14.4705 12.1558C15.0146 12.6003 15.6891 12.7996 16.6548 12.7996C17.6206 12.7996 18.3027 12.6003 18.8469 12.1558C19.7436 11.3894 20.2954 10.2014 20.2954 6.61441ZM21.8743 0.728122H23.4302V9.18967C23.4302 11.7113 25.2237 13.2135 28.2358 13.2135C31.2479 13.2135 32.7348 11.7573 32.7348 9.12069V0.728122H35.0648V12.4854H33.5243C33.44 12.4854 33.348 12.5544 33.348 12.7C33.348 12.8456 33.44 12.9146 33.5243 12.9146H37.0729C37.1572 12.9146 37.2492 12.8456 37.2492 12.7C37.2492 12.5544 37.1572 12.4854 37.0729 12.4854H35.517V1.19565L43.6413 13.0909C43.718 13.1905 43.8559 13.2135 43.9479 13.1752C44.0322 13.1445 44.0859 13.0755 44.0859 12.9989V0.728122H45.6418V4.16179L45.6648 4.29209L45.7644 4.32275L45.8564 4.33807C46.0097 4.33807 46.0786 4.25377 46.0786 4.16179C46.0786 2.59825 46.6688 0.728122 49.497 0.728122H49.8189V12.4854H48.2783C48.194 12.4854 48.102 12.5544 48.102 12.7C48.102 12.8456 48.194 12.9146 48.2783 12.9146H53.6588C53.7431 12.9146 53.835 12.8456 53.835 12.7C53.835 12.5544 53.7431 12.4854 53.6588 12.4854H52.1029V0.728122H52.4478C55.4906 0.728122 55.9428 2.88183 55.9428 4.16179C55.9428 4.2461 56.0118 4.33807 56.1497 4.33807C56.2877 4.33807 56.3567 4.2461 56.3567 4.16179V0.498189C56.3567 0.360229 56.2647 0.298913 56.1727 0.298913H45.8257C45.7874 0.298913 45.7567 0.321907 45.7261 0.337236C45.6877 0.306578 45.6494 0.298913 45.6264 0.298913H42.0778C41.9705 0.298913 41.8862 0.390887 41.8862 0.513518C41.8862 0.636149 41.9705 0.728122 42.0778 0.728122H43.6183V9.16667L37.8547 0.674471C37.7014 0.444538 37.5558 0.298913 37.3335 0.298913H35.2641L35.2258 0.245262V0.298913H30.7727C30.6884 0.298913 30.5965 0.367893 30.5965 0.513518C30.5965 0.659142 30.6884 0.728122 30.7727 0.728122H32.2903V9.12069C32.2903 11.3894 31.0103 12.6463 28.688 12.6463C26.6876 12.6463 25.7219 11.5197 25.7219 9.18967V0.728122H27.2778C27.3621 0.728122 27.454 0.659142 27.454 0.513518C27.454 0.367893 27.3621 0.298913 27.2778 0.298913H21.8743C21.79 0.298913 21.698 0.367893 21.698 0.513518C21.698 0.659142 21.7823 0.728122 21.8743 0.728122ZM58.2574 12.4854V0.728122H56.7016C56.6172 0.728122 56.5253 0.659142 56.5253 0.513518C56.5253 0.367893 56.6096 0.298913 56.7016 0.298913H62.2123C64.8489 0.298913 66.6883 1.60187 66.6883 3.47199C66.6883 4.79794 65.6 5.90929 64.0518 6.32317C66.1058 6.68339 67.2555 7.87905 67.2555 9.73384V11.2974C67.2555 12.1405 67.6234 12.6847 68.1982 12.6847C68.5814 12.6847 68.934 12.5314 69.1793 12.2631L69.2253 12.2325C69.2253 12.2325 69.3249 12.1941 69.4169 12.2554C69.4629 12.2861 69.5472 12.3704 69.5395 12.47V12.5544L69.4782 12.585C69.026 13.0142 68.4435 13.2212 67.7 13.2212C66.6577 13.2212 64.9102 12.7613 64.9102 9.70319V8.56885C64.9102 6.92099 63.4233 6.57609 62.174 6.57609H60.5491V12.493H62.5572C62.6415 12.493 62.7335 12.562 62.7335 12.7076C62.7335 12.8533 62.6492 12.9223 62.5572 12.9223H56.7245C56.6402 12.9223 56.5483 12.8533 56.5483 12.7076C56.5483 12.562 56.6326 12.493 56.7245 12.493H58.2804L58.2574 12.4854ZM64.3967 3.53331C64.3967 1.6172 63.5536 0.720458 61.7524 0.720458H60.5261V6.13155H62.151C63.7375 6.13155 64.3967 5.77133 64.3967 3.53331ZM66.1595 0.720458H67.8456L71.4326 7.42685V12.4777H69.8614C69.7771 12.4777 69.6851 12.5467 69.6851 12.6923C69.6851 12.8379 69.7694 12.9069 69.8614 12.9069H75.2572C75.3415 12.9069 75.4334 12.8379 75.4334 12.6923C75.4334 12.5467 75.3415 12.4777 75.2572 12.4777H73.7013V7.19691L76.4988 1.41792C76.8054 0.789438 76.8974 0.720458 76.928 0.720458H78.3229C78.4073 0.720458 78.4992 0.651478 78.4992 0.505853C78.4992 0.360229 78.4149 0.291249 78.3229 0.291249H74.6977C74.6134 0.291249 74.5214 0.360229 74.5214 0.505853C74.5214 0.651478 74.6057 0.720458 74.6977 0.720458H76.3455C76.2919 0.866082 76.1692 1.11901 76.1079 1.24164L73.5173 6.61441L70.3979 0.720458H72.1454L72.2757 0.697464L72.2987 0.574833V0.498189C72.2987 0.306578 72.1914 0.283584 72.1454 0.283584H66.1671C66.0828 0.283584 65.9909 0.352564 65.9909 0.498189C65.9909 0.643813 66.0752 0.712793 66.1671 0.712793L66.1595 0.720458ZM78.9284 9.48092C78.9284 7.77175 79.8942 6.3155 81.8946 5.03554C81.7106 4.44538 81.611 3.89354 81.611 3.41068C81.6187 1.40259 82.7223 0 84.3012 0C85.3896 0 85.9721 0.55184 85.9721 1.5942C85.9721 2.46795 85.198 3.43367 83.8873 4.18479C84.4392 5.81731 85.6272 7.99401 87.4206 10.6689C87.9801 9.74917 88.3557 8.58418 88.44 7.51882C88.463 7.1126 88.394 6.82902 88.2254 6.65274C88.0491 6.46113 87.7349 6.36915 87.2673 6.36915H86.5929C86.5086 6.36915 86.4166 6.30017 86.4166 6.15455L86.4319 6.06257L86.4626 5.96294L86.5852 5.93994H90.8466C90.931 5.93994 91.0229 6.00892 91.0229 6.15455C91.0229 6.30017 90.931 6.36915 90.8466 6.36915H90.1185C89.2601 6.36915 88.9305 6.67573 88.8539 7.54181C88.7542 8.74513 88.3327 10.0328 87.6812 11.0751C87.7042 11.1134 87.7196 11.1288 87.7349 11.1518C87.7579 11.1824 87.7885 11.2131 87.8499 11.3051C88.2331 11.8646 89.0992 12.3168 89.559 12.3168C89.6357 12.3168 89.7276 12.3014 89.7966 12.2708C90.2795 12.0868 90.4864 11.7113 90.5631 11.5043L90.6014 11.4507C90.6474 11.4047 90.7393 11.3817 90.8466 11.4507C90.9386 11.5197 90.9693 11.6193 90.9233 11.7036C90.4788 12.723 89.1758 13.1905 88.1641 13.1905C87.4743 13.1905 86.8075 12.9223 86.1867 12.3934C85.2286 12.9452 84.2322 13.2135 83.1439 13.2135C80.7066 13.2135 78.9361 11.6423 78.9361 9.48092H78.9284ZM84.5618 0.498189C84.056 0.498189 83.5118 0.881411 83.5118 1.96976C83.5118 2.58292 83.5884 3.16542 83.7417 3.73258C84.8531 3.09644 85.5352 2.284 85.5352 1.58654C85.5352 0.889075 85.2056 0.498189 84.5618 0.498189ZM85.8418 12.0638C85.5275 11.7419 85.2669 11.374 84.945 10.8835C83.803 9.0747 82.661 7.17392 82.0325 5.47241C81.4194 6.02425 80.8139 6.93632 80.8139 7.98635C80.8139 10.6766 82.2471 12.3474 84.5618 12.3474C85.1136 12.3474 85.4432 12.2401 85.8418 12.0638ZM92.5252 4.31508L92.6171 4.33041C92.7704 4.33041 92.8394 4.2461 92.8394 4.15413C92.8394 2.59058 93.4372 0.720458 96.2577 0.720458H96.5797V12.4777H95.0391C94.9548 12.4777 94.8628 12.5467 94.8628 12.6923C94.8628 12.8379 94.9548 12.9069 95.0391 12.9069H100.42C100.504 12.9069 100.596 12.8379 100.596 12.6923C100.596 12.5467 100.512 12.4777 100.42 12.4777H98.8637V0.728122H99.2086C102.251 0.728122 102.704 2.88183 102.704 4.16179C102.704 4.2461 102.765 4.33807 102.91 4.33807C103.056 4.33807 103.117 4.2461 103.117 4.16179V0.498189C103.117 0.360229 103.025 0.298913 102.933 0.298913H92.5865C92.4638 0.298913 92.3872 0.398551 92.3872 0.498189V4.16946L92.4102 4.29975L92.5098 4.33041L92.5252 4.31508ZM103.071 6.60675C103.087 2.90482 105.739 0 109.126 0C112.514 0 115.166 2.96614 115.166 6.61441C115.166 10.2627 112.46 13.2135 109.126 13.2135C105.792 13.2135 103.094 10.255 103.094 6.61441L103.071 6.60675ZM112.744 6.60675C112.744 3.71725 112.269 1.90078 111.288 1.05003C110.751 0.613155 110.1 0.421544 109.103 0.421544C108.107 0.421544 107.448 0.613155 106.911 1.05003C105.953 1.90078 105.478 3.72492 105.478 6.60675C105.478 10.1707 106.053 11.397 106.911 12.1481C107.455 12.5927 108.13 12.792 109.096 12.792C110.061 12.792 110.744 12.5927 111.288 12.1481C112.184 11.3817 112.736 10.1937 112.736 6.60675H112.744ZM144.383 0.513518C144.383 0.705129 144.268 0.728122 144.222 0.728122H142.666V12.9989C142.666 13.0755 142.612 13.1522 142.528 13.1752C142.428 13.2058 142.298 13.1828 142.221 13.0832L134.097 1.18799V12.4777H135.653C135.737 12.4777 135.829 12.5467 135.829 12.6923C135.829 12.8379 135.745 12.9069 135.653 12.9069H132.104C132.02 12.9069 131.928 12.8379 131.928 12.6923C131.928 12.5467 132.012 12.4777 132.104 12.4777H133.645V0.728122H131.583C131.583 0.728122 131.484 0.75878 131.269 1.36427L127.138 13.0909C127.092 13.1828 127.023 13.2212 126.908 13.2135C126.801 13.2135 126.724 13.1752 126.693 13.1062L123.405 4.38406L120.316 13.0832C120.293 13.1598 120.217 13.2212 120.125 13.2288C120.125 13.2288 120.125 13.2288 120.117 13.2288C120.018 13.2288 119.926 13.1675 119.903 13.0832L114.867 0.705129L113.227 0.728122C113.12 0.728122 113.043 0.636149 113.043 0.513518C113.043 0.390887 113.12 0.298913 113.227 0.298913H118.86C118.944 0.298913 119.036 0.367893 119.036 0.513518C119.036 0.659142 118.952 0.728122 118.86 0.728122H117.343L121.022 9.88713L123.16 3.77091L122.01 0.743451C122.01 0.743451 121.98 0.735787 121.972 0.735787H120.592C120.508 0.735787 120.416 0.666807 120.416 0.521182C120.416 0.375558 120.5 0.306578 120.592 0.306578H126.187C126.272 0.306578 126.364 0.375558 126.364 0.521182C126.364 0.666807 126.272 0.735787 126.187 0.735787H124.394L127.812 9.94845L130.886 1.18032C130.924 1.07302 131.001 0.850753 131.024 0.735787H129.429C129.345 0.735787 129.253 0.666807 129.253 0.521182C129.253 0.375558 129.345 0.306578 129.429 0.306578H133.814V0.252927L133.844 0.306578H135.914C136.136 0.306578 136.281 0.459867 136.435 0.682135L142.214 9.17434V0.728122H140.673C140.566 0.728122 140.482 0.636149 140.482 0.513518C140.482 0.390887 140.566 0.298913 140.673 0.298913H144.222C144.268 0.298913 144.383 0.321907 144.383 0.513518Z" fill="currentColor"/></svg>
