<svg xmlns="http://www.w3.org/2000/svg" fill="none" viewBox="0 0 231 248"><path d="M97.2852 131.043C97.4978 131.041 97.7083 131.084 97.9033 131.169C98.0984 131.254 98.2737 131.379 98.417 131.536C98.5603 131.693 98.6688 131.88 98.7354 132.082C98.8018 132.284 98.8245 132.498 98.8027 132.709V166.624C98.8027 167.309 98.249 168.047 97.0332 168.047C95.8171 168.047 95.2628 167.309 95.2627 166.624C95.2627 154.701 91.0447 134.697 62.7939 134.697H59.4619V243.711H74.0137C74.7275 243.711 75.4482 244.276 75.4482 245.539C75.4481 246.802 74.7274 247.367 74.0137 247.367H24.29C23.5738 247.367 22.8517 246.802 22.8516 245.539C22.8516 244.276 23.5738 243.711 24.29 243.711H38.6748V134.706L35.5049 134.697C9.22465 134.697 3.70705 152.058 3.70703 166.624C3.70703 167.281 3.22122 168.047 1.85352 168.047C0.485946 168.047 0 167.281 0 166.624V132.709C0.00848073 132.267 0.18939 131.845 0.503906 131.534C0.818526 131.223 1.24209 131.047 1.68457 131.043H97.2852Z" fill="currentColor"/><path d="M153.87 131.043C154.579 131.043 155.297 131.608 155.297 132.871C155.297 134.134 154.579 134.699 153.87 134.699H141.393V185.048H186.438V134.706L174.121 134.699C173.412 134.699 172.694 134.134 172.694 132.871C172.692 132.594 172.734 132.319 172.816 132.055C172.895 131.768 173.065 131.513 173.301 131.331C173.536 131.149 173.824 131.048 174.121 131.043H220.41C221.119 131.043 221.837 131.608 221.837 132.871C221.837 134.135 221.119 134.699 220.41 134.699H206.487V243.696L220.41 243.711C221.119 243.711 221.837 244.276 221.837 245.539C221.837 246.803 221.119 247.367 220.41 247.367H174.121C173.412 247.367 172.694 246.802 172.694 245.539C172.694 244.276 173.412 243.711 174.121 243.711H186.438V188.702H141.393V243.711H153.87C154.579 243.711 155.297 244.276 155.297 245.539C155.297 246.802 154.579 247.367 153.87 247.367H107.742C107.033 247.367 106.316 246.802 106.315 245.539C106.315 244.276 107.033 243.711 107.742 243.711H121.504V134.706L107.742 134.699C107.033 134.699 106.315 134.135 106.315 132.871C106.315 131.608 107.033 131.043 107.742 131.043H153.87Z" fill="currentColor"/><path d="M58.4717 0C62.8528 0.221824 67.1932 0.957986 71.4023 2.19336C75.2583 3.33685 79.2343 4.02765 83.25 4.25098C87.4741 4.25098 90.1313 2.3798 90.3145 1.41797C90.294 0.959793 90.8374 0.23639 92.0293 0.236328C93.2222 0.236328 93.7655 0.959327 93.7656 1.63281V33.7695C93.7656 34.4432 93.2224 35.167 92.0293 35.167C90.8374 35.1669 90.2939 34.4431 90.2939 33.7695C90.2939 19.0985 73.9365 3.58203 58.4717 3.58203C52.4699 3.58205 44.1408 4.57283 38.5439 9.29297C29.6616 17.0323 25.3359 33.5432 25.3359 59.7617C25.336 86.0323 29.6583 102.491 38.5498 110.078C44.8238 115.37 55.1456 115.941 59.292 115.941C78.9667 115.941 93.248 101.456 93.248 81.5C93.2482 80.8559 93.7241 80.1026 95.0654 80.1025C96.4068 80.1025 96.8837 80.8558 96.8838 81.5V118.658L96.124 119.013C95.7104 119.156 95.2691 119.205 94.834 119.157C94.399 119.109 93.9805 118.964 93.6084 118.733L93.3301 118.468L93.2646 118.089C92.786 116.861 91.9138 115.826 90.7852 115.146C89.6564 114.465 88.334 114.176 87.0244 114.326C82.8256 114.619 78.6743 115.396 74.6533 116.64C69.6627 118.169 64.5042 119.085 59.292 119.366C28.7922 119.366 3.97867 92.6284 3.97852 59.7617C3.97852 26.2508 27.9151 0.000122346 58.4717 0Z" fill="currentColor"/><path fill-rule="evenodd" clip-rule="evenodd" d="M169.446 0C179.224 0.000163853 184.394 4.92221 184.394 14.2354C184.394 22.1425 177.327 30.8391 165.437 37.6211C170.416 52.444 181.244 72.3091 197.646 96.7129C202.947 87.9469 206.153 78.076 207.016 67.8682C207.244 66.4738 207.185 65.0476 206.843 63.6768C206.501 62.3059 205.883 61.0194 205.026 59.8955C203.355 58.1241 200.548 57.3008 196.193 57.3008H190.123C189.424 57.3007 188.719 56.747 188.719 55.5088C188.719 54.2704 189.424 53.7168 190.123 53.7168H228.688C229.388 53.7168 230.096 54.2703 230.096 55.5088C230.096 56.747 229.388 57.3008 228.688 57.3008H222.126C214.367 57.3008 211.21 60.2172 210.48 68.0586C209.454 79.4125 205.821 90.3765 199.862 100.096C200.038 100.38 200.231 100.653 200.442 100.912C200.797 101.351 201.128 101.81 201.431 102.286C204.932 107.401 212.834 111.532 217.036 111.532C217.789 111.527 218.536 111.392 219.244 111.135C220.85 110.526 222.308 109.582 223.522 108.367C224.737 107.152 225.68 105.694 226.288 104.088L226.568 103.663C226.842 103.425 227.195 103.3 227.558 103.312C227.92 103.323 228.265 103.47 228.523 103.725C228.878 103.928 229.145 104.254 229.274 104.642C229.404 105.029 229.386 105.45 229.226 105.825C225.185 115 213.517 119.21 204.399 119.21C197.751 119.058 191.392 116.461 186.539 111.915C178.183 116.847 168.646 119.422 158.943 119.366C136.974 119.366 121.029 105.231 121.028 85.7559C121.028 70.3205 129.815 57.1642 147.884 45.5576C146.289 40.7874 145.424 35.8039 145.314 30.7754C145.315 12.6545 155.238 0 169.446 0ZM149.059 49.1211C145.687 51.9813 142.944 55.5099 141.005 59.4834C139.065 63.4568 137.971 67.7892 137.79 72.207C137.79 96.2867 151.183 111.847 171.909 111.847C176.032 111.917 180.114 111.009 183.817 109.195C180.681 105.886 177.903 102.254 175.531 98.3604L175.523 98.3486C165.095 81.888 154.711 64.5746 149.059 49.1211ZM171.909 4.21191C167.234 4.21194 162.239 7.7551 162.239 17.7012C162.214 23.1872 162.945 28.6507 164.41 33.9375C174.632 28.1127 180.923 20.6409 180.923 14.2354C180.923 7.58496 177.89 4.21191 171.909 4.21191Z" fill="currentColor"/></svg>
