<svg xmlns="http://www.w3.org/2000/svg" fill="none" viewBox="0 0 230 29"><g clip-path="url(#clip-hypebeast)"><path d="M6.06454 1.16434V11.1714H17.1066V1.16434H23.1052V27.2409H17.1066V15.9919H6.06454V27.2409H0.065918V1.16434H6.06454ZM26.0084 1.16434H32.7332L39.1139 11.4637L45.4561 1.16434H52.1425L42.0177 17.2338V27.2409H36.0191V17.088L26.0084 1.16434ZM67.3876 1.16434C69.0935 1.16434 70.5454 1.40176 71.7433 1.87661C72.9402 2.35092 73.9144 2.97785 74.666 3.7574C75.4081 4.52261 75.9685 5.43201 76.309 6.42339C76.9966 8.43444 76.9966 10.6025 76.309 12.6136C75.9722 13.6121 75.4115 14.5283 74.666 15.2982C73.9142 16.0781 72.94 16.705 71.7433 17.179C70.5454 17.6539 69.0935 17.8913 67.3876 17.8913H61.0833V27.2409H55.0847V1.16434H67.3876ZM65.7447 13.4355C66.4099 13.4372 67.0742 13.3885 67.7313 13.2897C68.3678 13.1928 68.9283 13.004 69.4126 12.7232C69.896 12.4438 70.2844 12.0482 70.5777 11.5366C70.8701 11.0251 71.0165 10.3556 71.0171 9.5281C71.0171 8.70027 70.8706 8.03057 70.5777 7.51899C70.2847 7.00793 69.8964 6.61222 69.4126 6.33187C68.9281 6.05293 68.3676 5.86429 67.7313 5.76597C67.0741 5.66743 66.4099 5.61865 65.7447 5.62009H61.0833V13.4355H65.7447ZM100.703 1.16434V5.98527H86.2996V11.5734H99.5189V16.0286H86.2996V22.42H101.009V27.2409H80.301V1.16434H100.703ZM117.706 1.16434C119.005 1.16434 120.189 1.27382 121.259 1.49278C122.329 1.71214 123.246 2.07131 124.01 2.57028C124.774 3.06961 125.366 3.7331 125.787 4.56075C126.207 5.38852 126.417 6.41116 126.417 7.62866C126.417 8.94356 126.105 10.0391 125.481 10.9154C124.857 11.7922 123.933 12.5105 122.711 13.0703C124.392 13.5335 125.647 14.343 126.474 15.4989C127.302 16.6562 127.716 18.0503 127.716 19.6811C127.716 20.996 127.449 22.1341 126.914 23.0955C126.401 24.0338 125.661 24.8416 124.755 25.4517C123.851 26.0602 122.819 26.5106 121.66 26.8028C120.494 27.0956 119.293 27.2428 118.088 27.2409H104.868V1.16434H117.706ZM116.942 11.7192C118.011 11.7192 118.89 11.4758 119.578 10.9888C120.266 10.5023 120.61 9.71088 120.61 8.61458C120.61 8.0066 120.495 7.50761 120.266 7.11761C120.05 6.74112 119.733 6.42597 119.349 6.20409C118.942 5.9768 118.495 5.8222 118.03 5.74787C117.52 5.66152 117.002 5.61875 116.483 5.62009H110.867V11.7192L116.942 11.7192ZM117.285 22.7852C117.85 22.7873 118.414 22.7321 118.967 22.6207C119.469 22.5237 119.949 22.3381 120.38 22.0734C120.793 21.8118 121.128 21.4533 121.355 21.0322C121.596 20.594 121.717 20.034 121.718 19.352C121.718 18.0137 121.323 17.0582 120.533 16.4854C119.743 15.9131 118.699 15.6269 117.4 15.6267H110.867V22.7852H117.285ZM151.634 1.16434V5.98527H137.23V11.5734H150.449V16.0286H137.23V22.42H151.94V27.2409H131.231V1.16434H151.634ZM170.702 1.16434L180.904 27.2409H174.676L172.613 21.4341H162.411L160.272 27.2409H154.235L164.551 1.16434H170.702ZM171.047 17.1609L167.608 7.59247H167.531L163.978 17.1609H171.047ZM188.087 20.8128C188.397 21.3989 188.849 21.906 189.405 22.2922C189.952 22.6697 190.596 22.9497 191.335 23.1323C192.083 23.3162 192.854 23.4083 193.627 23.4064C194.202 23.4035 194.777 23.3608 195.346 23.2787C195.942 23.1979 196.522 23.0316 197.066 22.7852C197.586 22.5528 198.044 22.2091 198.403 21.7806C198.759 21.3553 198.938 20.8138 198.938 20.1559C198.938 19.45 198.702 18.8777 198.231 18.4391C197.759 18.0009 197.142 17.6358 196.378 17.3435C195.533 17.0273 194.664 16.7709 193.78 16.5764C192.812 16.3571 191.831 16.1136 190.838 15.846C189.827 15.6054 188.831 15.3067 187.858 14.9517C186.926 14.6185 186.051 14.1568 185.26 13.5814C184.491 13.0172 183.859 12.301 183.406 11.4818C182.935 10.6417 182.699 9.62531 182.7 8.43251C182.7 7.09313 182.999 5.93049 183.597 4.94457C184.185 3.96999 184.986 3.12887 185.947 2.47924C186.915 1.82176 188.01 1.33466 189.233 1.01792C190.429 0.705047 191.662 0.545364 192.901 0.543064C194.284 0.538594 195.663 0.691932 197.008 0.999825C198.32 1.30433 199.485 1.79747 200.504 2.47924C201.517 3.15461 202.348 4.04934 202.93 5.09039C203.529 6.14979 203.828 7.43418 203.829 8.94356H198.021C197.969 8.1642 197.797 7.51898 197.505 7.00793C197.212 6.49687 196.823 6.09513 196.34 5.80271C195.856 5.51041 195.302 5.3035 194.678 5.18198C194.004 5.05555 193.32 4.9942 192.633 4.99887C192.145 4.99935 191.659 5.04841 191.181 5.14523C190.713 5.23685 190.266 5.41028 189.863 5.65684C189.476 5.89306 189.144 6.2038 188.889 6.56927C188.634 6.93445 188.507 7.39724 188.507 7.95765C188.507 8.4687 188.609 8.88251 188.813 9.19906C189.016 9.51584 189.417 9.80793 190.016 10.0754C190.614 10.3437 191.442 10.6116 192.5 10.8792C193.557 11.1475 194.939 11.4884 196.645 11.9019C197.154 11.9993 197.861 12.1758 198.766 12.4315C199.669 12.6871 200.567 13.0948 201.459 13.6549C202.351 14.2149 203.122 14.9635 203.771 15.9008C204.421 16.8383 204.745 18.0373 204.745 19.4979C204.745 20.6915 204.503 21.7995 204.02 22.8219C203.535 23.844 202.815 24.7267 201.86 25.4698C200.905 26.213 199.721 26.7911 198.307 27.2042C196.894 27.6184 195.257 27.8253 193.397 27.8249C191.921 27.828 190.451 27.6502 189.023 27.2958C187.609 26.9433 186.361 26.3894 185.279 25.6338C184.195 24.88 183.336 23.9182 182.7 22.7484C182.062 21.58 181.757 20.1923 181.783 18.5855H187.59C187.59 19.4617 187.755 20.2042 188.087 20.8128V20.8128ZM206.579 5.98527V1.16434H228.93V5.98527H220.753V27.2409H214.755V5.98527H206.579Z" fill="currentColor"/></g><defs><clipPath id="clip-hypebeast"><rect width="229.167" height="28.3584" fill="currentColor"/></clipPath></defs></svg>
