<svg xmlns="http://www.w3.org/2000/svg" fill="none" viewBox="0 0 134 92"><rect y="58.1367" width="133.654" height="1.35208" fill="currentColor"/><path d="M71.8837 1.47744C72.269 2.25489 72.0392 3.27571 71.6403 3.97204L68.5237 10.9758L68.4967 11.0096L67.3745 3.90443C67.2866 3.22163 68.0167 2.93093 68.4426 2.60643C68.4223 2.50503 68.3074 2.51179 68.2398 2.46446L67.1852 2.45094L67.1514 2.41714C67.1514 1.53153 67.6314 0.720275 68.4358 0.294368C69.2809-0.192382 70.464-0.0571737 71.1941 0.564785C71.4916 0.828442 71.7417 1.13942 71.8837 1.47744Z" fill="currentColor"/><path d="M66.1509 1.23437C66.401 1.7076 66.5497 2.24168 66.4619 2.82983L65.1909 10.9694L65.1774 10.9964L64.8461 10.3407L61.662 3.23546C61.3645 2.3228 61.6417 1.36282 62.3042 0.707062C62.9735 0.0242592 64.0822-0.158272 64.961 0.213551C65.4275 0.409603 65.8737 0.781427 66.1441 1.24114" fill="currentColor"/><path d="M76.4874 4.66202C76.9133 5.39214 76.8186 6.49409 76.3454 7.1769C76.0479 7.65013 75.5612 7.8935 75.1488 8.20448L68.5574 12.734H68.5371L68.6115 12.5176L72.1066 4.62822C72.6339 3.69528 73.6277 3.22881 74.6891 3.37078C75.4125 3.50599 76.1358 3.97246 76.4874 4.66878" fill="currentColor"/><path d="M61.5062 4.61384L65.1433 12.7196H65.0824L57.7474 7.66279C57.0037 7.03407 56.6927 6.09437 56.9496 5.14115C57.1389 4.42455 57.7338 3.76203 58.4369 3.49837C59.593 3.07922 60.891 3.52541 61.5062 4.61384Z" fill="currentColor"/><path d="M78.4072 10.3811C78.7722 11.1517 78.6303 12.2131 78.1097 12.8689C77.5891 13.4976 76.8996 13.8424 76.0816 13.8221H68.2598L74.8106 9.26559C75.4529 8.8532 76.4196 8.77884 77.1227 9.1101C77.6635 9.31967 78.1705 9.84698 78.4072 10.3811Z" fill="currentColor"/><path d="M55.2461 10.3811C54.881 11.1517 55.023 12.2131 55.5435 12.8689C56.0641 13.4976 56.7536 13.8424 57.5716 13.8221H65.3935L58.8426 9.26559C58.2004 8.8532 57.2336 8.77884 56.5305 9.1101C55.9897 9.31967 55.4827 9.84698 55.2461 10.3811Z" fill="currentColor"/><path d="M1.07488 35.8812C1.19372 36.0066 9.11947 46.2984 9.49166 46.7817V35.7257H10.7085V48.5773C10.7085 48.9018 10.4448 49.1722 10.1136 49.1722C9.92434 49.1722 9.76201 49.0708 9.64037 48.9424C9.52541 48.8139 1.21691 38.031 1.21691 38.031V48.5638C1.21691 48.9018 0.939709 49.1722 0.608455 49.1722C0.2772 49.1722 0 48.9018 0 48.5638V36.2463C0 35.915 0.270433 35.6514 0.601688 35.6514C0.790999 35.6514 0.953243 35.7528 1.07488 35.8812Z" fill="currentColor"/><path fill-rule="evenodd" clip-rule="evenodd" d="M118.165 36.03C118.273 35.8223 118.473 35.6543 118.72 35.6514C118.973 35.6543 119.167 35.8223 119.274 36.03C119.382 36.2463 124.595 49.1046 124.595 49.1046H123.297L121.269 44.1222H116.171C115.204 46.5153 114.312 48.7058 114.265 48.8004C114.163 49.0167 113.96 49.179 113.71 49.179C113.379 49.179 113.109 48.9085 113.109 48.5773C113.109 48.4962 113.122 48.415 113.156 48.3407C113.156 48.3407 118.057 36.2463 118.165 36.03ZM118.713 37.8417C118.713 37.8417 117.746 40.2417 116.712 42.7904H120.728L118.713 37.8417Z" fill="currentColor"/><path d="M35.4111 38.5719C34.3903 37.5511 33.0246 36.9832 31.5711 36.9832V36.9899C28.5762 36.9899 26.1357 39.4304 26.1357 42.4186C26.1357 45.4067 28.5762 47.8472 31.5711 47.8472C33.1734 47.8472 34.6133 47.1509 35.6071 46.0489L36.5468 46.9886C35.3097 48.3339 33.5384 49.179 31.5711 49.179C27.8461 49.179 24.8107 46.1436 24.8107 42.4186C24.8107 38.6936 27.8394 35.6581 31.5711 35.6581C33.3356 35.6581 35.0054 36.3342 36.2696 37.5579L36.3507 37.639C36.4792 37.7606 36.5468 37.9296 36.5468 38.1054C36.5468 38.2812 36.4792 38.4502 36.3507 38.5719C36.1141 38.8153 35.6545 38.8153 35.4111 38.5719Z" fill="currentColor"/><path d="M53.4208 35.8812C53.5405 36.0075 61.578 46.4448 61.8443 46.7906V35.7257H63.0612V48.5773C63.0612 48.9018 62.7975 49.1722 62.4662 49.1722C62.277 49.1722 62.1147 49.0708 61.993 48.9424C61.8781 48.8139 53.5696 38.031 53.5696 38.031V48.5638C53.5696 48.9018 53.2991 49.1722 52.9611 49.1722C52.6231 49.1722 52.3527 48.9018 52.3527 48.5638V36.2463C52.3527 35.915 52.6231 35.6514 52.9544 35.6514C53.1437 35.6514 53.2991 35.7528 53.4208 35.8812Z" fill="currentColor"/><path fill-rule="evenodd" clip-rule="evenodd" d="M22.5258 39.2141C22.5258 40.2922 22.0354 41.2495 21.2691 41.8917C22.4179 42.5611 23.195 43.8047 23.195 45.2309C23.195 47.3672 21.4643 49.0979 19.328 49.0979H13.5344V36.3342C13.5344 35.9962 13.8048 35.7257 14.1428 35.7257H19.0374C20.9573 35.7257 22.5258 37.2874 22.5258 39.2141ZM14.7581 37.0507H19.0441C20.234 37.0507 21.2007 38.0175 21.2007 39.2141C21.2007 40.4107 20.2272 41.3707 19.0441 41.3707H14.7581V37.0507ZM19.3348 47.7661H14.7581V42.6958H19.3348C20.7342 42.6958 21.87 43.8315 21.87 45.2309C21.87 46.6303 20.7342 47.7661 19.3348 47.7661Z" fill="currentColor"/><path d="M65.8803 36.2598C65.8803 35.9218 66.1507 35.6514 66.4887 35.6514C66.82 35.6514 67.0972 35.9218 67.0972 36.2598V49.1046H65.8803V36.2598Z" fill="currentColor"/><path d="M48.3235 43.8179C48.3235 46.0354 46.4035 47.8472 44.1861 47.8472C41.9687 47.8472 40.0487 46.0421 40.0487 43.8179V36.2598C40.0487 35.9218 39.7783 35.6514 39.4403 35.6514C39.1023 35.6514 38.8318 35.9218 38.8318 36.2598V43.8179C38.8318 46.7722 41.2386 49.1722 44.1929 49.1722C47.1472 49.1722 49.5538 46.7722 49.5538 43.8179V35.7257H48.337V43.8179H48.3235Z" fill="currentColor"/><path d="M90.61 36.3882C90.61 36.7601 90.3192 37.0575 89.9475 37.0575V37.044H83.5454V41.3639H89.3931C89.7581 41.3639 90.0556 41.6546 90.0556 42.0264C90.0556 42.3983 89.7581 42.6958 89.3931 42.6958H83.5454V47.7661H90.5356V49.0979H82.9369C82.5989 49.0979 82.3284 48.8274 82.3284 48.4894V36.3342C82.3284 35.9962 82.5989 35.7257 82.9369 35.7257H89.9475C90.3125 35.7257 90.61 36.0165 90.61 36.3882Z" fill="currentColor"/><path d="M109.674 42.4997C109.309 42.3104 107.105 41.1679 106.788 41.0057C105.632 40.4175 105.219 39.8902 105.219 39.0045C105.219 37.7741 106.233 36.9832 107.795 36.9832C108.714 36.9832 109.607 37.3888 110.127 37.6795C110.222 37.7335 110.33 37.7606 110.452 37.7606C110.817 37.7606 111.114 37.4632 111.114 37.0981C111.114 36.8547 110.979 36.6384 110.783 36.5235C110.127 36.1584 109.005 35.6581 107.795 35.6581C105.496 35.6581 103.887 37.0373 103.887 39.0113C103.887 40.7893 105.05 41.6208 106.193 42.2089C106.51 42.3713 108.741 43.5273 109.079 43.6963C109.958 44.1559 110.445 44.8523 110.445 45.6501C110.445 46.7182 109.539 47.854 107.863 47.854C106.186 47.854 104.969 46.7588 104.624 46.4275L104.523 46.3261L103.536 47.2252L103.651 47.3402C104.09 47.7728 105.686 49.1857 107.863 49.1857C110.31 49.1857 111.77 47.3875 111.77 45.6501C111.77 44.352 111.006 43.2028 109.661 42.5064L109.674 42.4997Z" fill="currentColor"/><path fill-rule="evenodd" clip-rule="evenodd" d="M97.8097 35.7325C99.9461 35.7325 101.677 37.4564 101.677 39.5927C101.677 41.2152 100.676 42.6011 99.2633 43.1757L101.677 49.1114H100.379L98.0802 43.4597H94.5648V48.5705C94.5648 48.9085 94.2944 49.179 93.9563 49.179C93.6183 49.179 93.3479 48.9085 93.3479 48.5705V36.3409C93.3479 36.0029 93.6183 35.7325 93.9563 35.7325H97.8097ZM94.5648 42.1278H97.8097C99.2092 42.1278 100.345 40.9921 100.345 39.5927C100.345 38.1933 99.2092 37.0575 97.8097 37.0575H94.5648V42.1278Z" fill="currentColor"/><path d="M127.826 47.7661V36.2598C127.826 35.9218 127.556 35.6514 127.218 35.6514C126.88 35.6514 126.609 35.9218 126.609 36.2598V48.4894C126.609 48.8274 126.88 49.0979 127.218 49.0979H133.674V47.7661H127.826Z" fill="currentColor"/><path d="M70.2543 36.03C70.3624 36.2463 74.7094 46.9886 74.7094 46.9886L79.2929 35.7257H80.591C80.591 35.7257 75.3787 48.5841 75.2705 48.8004C75.1623 49.0167 74.9663 49.179 74.7094 49.179C74.4525 49.179 74.2565 49.0167 74.1483 48.8004C74.0401 48.5841 69.1388 36.4829 69.1388 36.4829C69.105 36.4085 69.0915 36.3274 69.0915 36.2463C69.0915 35.9218 69.3619 35.6514 69.6932 35.6514C69.9501 35.6514 70.1462 35.8136 70.2543 36.03Z" fill="currentColor"/><path d="M61.6753 18.7907C61.7835 18.5811 61.9796 18.4189 62.2297 18.4189L62.2365 18.4121C62.5271 18.4121 62.7503 18.6284 62.8246 18.8988C62.9058 19.1693 65.2043 31.8654 65.2043 31.8654H63.9874L62.0201 21.1501C62.0201 21.1501 58.3695 30.1617 58.2614 30.378C58.1532 30.5944 57.9503 30.7566 57.7002 30.7566C57.4501 30.7566 57.2541 30.5944 57.1459 30.378C57.0377 30.1617 53.387 21.1501 53.387 21.1501L51.4942 31.4598C51.4401 31.7369 51.1967 31.9465 50.906 31.9465C50.5748 31.9465 50.3043 31.6761 50.3043 31.3448L50.3179 31.2231C50.3179 31.2231 52.5015 19.176 52.5758 18.9056C52.6569 18.6352 52.8733 18.4189 53.164 18.4189C53.4141 18.4189 53.6102 18.5811 53.7184 18.7907C53.8265 19.0003 57.6935 28.573 57.6935 28.573C57.6935 28.573 61.5672 19.0003 61.6753 18.7907Z" fill="currentColor"/><path fill-rule="evenodd" clip-rule="evenodd" d="M41.705 18.4189C37.9732 18.4189 34.9446 21.4475 34.9446 25.1793C34.9446 28.9111 37.98 31.9465 41.705 31.9465C45.43 31.9465 48.4654 28.9111 48.4654 25.1793C48.4654 21.4475 45.43 18.4189 41.705 18.4189ZM41.705 30.6147C38.7101 30.6147 36.2696 28.1809 36.2696 25.1793C36.2696 22.1777 38.7101 19.7507 41.705 19.7507C44.6999 19.7507 47.1404 22.1912 47.1404 25.1793C47.1404 28.1674 44.6999 30.6147 41.705 30.6147Z" fill="currentColor"/><path d="M100.014 25.2672C99.9056 25.2112 99.6364 25.0722 99.3027 24.8999C98.8371 24.6596 98.246 24.3544 97.7918 24.1192C97.4716 23.9534 97.2194 23.8223 97.1269 23.7732C95.9709 23.185 95.5586 22.6577 95.5586 21.772C95.5586 20.5417 96.5659 19.7439 98.1343 19.7439C99.0537 19.7439 99.9461 20.1496 100.467 20.4402C100.561 20.4943 100.669 20.5214 100.791 20.5214C101.156 20.5214 101.454 20.2239 101.454 19.8588C101.454 19.6155 101.318 19.3991 101.122 19.2842C100.46 18.9191 99.3444 18.4189 98.1343 18.4189C95.8358 18.4189 94.2268 19.798 94.2268 21.772C94.2268 23.5432 95.3963 24.3815 96.5389 24.9697C96.8566 25.132 99.0875 26.2813 99.4255 26.457C100.304 26.9167 100.791 27.613 100.791 28.4108C100.791 29.4789 99.8852 30.6147 98.2087 30.6147C96.5321 30.6147 95.3152 29.5195 94.9636 29.1883L94.8622 29.0868L93.8752 29.986L93.9902 30.1009C94.4229 30.5336 96.0251 31.9465 98.2019 31.9465C100.649 31.9465 102.109 30.1482 102.109 28.4108C102.109 27.1128 101.346 25.9703 100.007 25.2672H100.014Z" fill="currentColor"/><path d="M31.6793 21.3394C30.6586 20.3186 29.293 19.7507 27.8395 19.7507L27.8327 19.7574C24.8311 19.7574 22.3973 22.1912 22.3973 25.1861C22.3973 28.181 24.8378 30.6215 27.8327 30.6215C29.4349 30.6215 30.8749 29.9184 31.8686 28.8164L32.8083 29.7561C31.5712 31.1014 29.8 31.9465 27.8327 31.9465C24.1077 31.9465 21.0723 28.9111 21.0723 25.1861C21.0723 21.4611 24.1009 18.4256 27.8327 18.4256C29.5971 18.4256 31.2737 19.1017 32.5379 20.3254L32.619 20.4065C32.7475 20.5281 32.8151 20.6971 32.8151 20.8729C32.8151 21.0487 32.7475 21.2177 32.619 21.3394C32.3824 21.5828 31.9228 21.5828 31.6793 21.3394Z" fill="currentColor"/><path d="M73.6818 19.7507C75.1286 19.7507 76.501 20.3186 77.5218 21.3394C77.7652 21.5828 78.2248 21.5828 78.4614 21.3394C78.5899 21.2177 78.6575 21.0487 78.6575 20.8729C78.6575 20.6971 78.5899 20.5281 78.4614 20.4065L78.3803 20.3254C77.1161 19.1017 75.4463 18.4256 73.6818 18.4256C69.9501 18.4256 66.9214 21.4611 66.9214 25.1861C66.9214 28.9111 69.9568 31.9465 73.6818 31.9465C75.6491 31.9465 77.4204 31.1014 78.6575 29.7561L77.7178 28.8164C76.724 29.9184 75.2841 30.6215 73.6818 30.6215C70.6869 30.6215 68.2464 28.181 68.2464 25.1861C68.2464 22.1912 70.6869 19.7574 73.6818 19.7574V19.7507Z" fill="currentColor"/><path fill-rule="evenodd" clip-rule="evenodd" d="M86.2664 18.4189C86.0177 18.4204 85.8164 18.5821 85.7087 18.7975C85.6005 19.0138 80.6992 31.1082 80.6992 31.1082C80.6722 31.1826 80.6519 31.2569 80.6519 31.3448C80.6519 31.6761 80.9223 31.9465 81.2536 31.9465C81.5037 31.9465 81.72 31.791 81.8079 31.5679L83.7076 26.8897H88.8117L90.8398 31.8721H92.1378C92.1378 31.8721 86.9256 19.0138 86.8174 18.7975C86.7097 18.5821 86.5148 18.4204 86.2664 18.4189ZM84.2551 25.5579L86.2631 20.6092L88.2776 25.5579H84.2551Z" fill="currentColor"/><path d="M104.401 18.4932H111.932C112.297 18.4932 112.602 18.7974 112.602 19.1625C112.602 19.5276 112.297 19.825 111.932 19.825H108.775V31.8721H107.558V19.825H104.401C104.036 19.825 103.739 19.5344 103.739 19.1625C103.739 18.7907 104.036 18.4932 104.401 18.4932Z" fill="currentColor"/><path d="M103.92 79.2383C105.044 76.5477 107.544 74.4084 111.072 74.4082C115.439 74.4082 119.062 77.8964 119.062 82.8281V82.8887C119.062 87.7863 115.439 91.3086 111.072 91.3086C107.51 91.3084 105.01 89.1966 103.92 86.54V90.9131H102.892V67.5557H103.92V79.2383ZM90.8008 74.5176C92.9463 74.5176 94.7445 75.0962 95.9365 76.2744C96.9651 77.3303 97.5381 78.8635 97.5381 80.8525V90.8994H96.5088V87.541C95.6778 89.2984 93.4301 91.2881 89.7109 91.2881C86.5981 91.2881 83.5871 89.6259 83.5869 86.3564V86.3018C83.5869 82.9436 86.6319 81.1182 90.7393 81.1182C92.987 81.1182 94.9422 81.499 96.5156 82.0166V80.9268C96.5155 77.2759 94.3358 75.4844 90.7393 75.4844C88.7503 75.4844 87.0811 76.0292 85.4805 76.8262L85.0928 75.9277C86.8911 75.0627 88.6551 74.5176 90.8008 74.5176ZM127.591 74.4971C129.45 74.4971 131.57 75.1369 133.272 76.2881L132.693 77.1533C131.154 76.0635 129.26 75.457 127.557 75.457C124.893 75.4572 123.13 76.8337 123.13 78.625V78.6865C123.13 80.7024 125.405 81.4382 128.041 82.1738C130.99 82.9707 133.653 83.9039 133.653 86.7168V86.7783C133.653 89.4349 131.154 91.1924 127.911 91.1924C125.605 91.1923 123.109 90.2956 121.346 88.8281L121.345 88.8291L121.338 88.8223C121.34 88.8243 121.343 88.8261 121.346 88.8281L121.951 88.0322C123.749 89.4421 125.895 90.2393 127.979 90.2393C130.581 90.2392 132.598 88.8629 132.598 86.8809V86.8193C132.598 84.5442 130.159 83.8423 127.687 83.168C124.669 82.3029 122.073 81.4719 122.073 78.7812V78.7197C122.073 76.3223 124.287 74.4972 127.591 74.4971ZM2.71094 88.3311H15.2314V90.9199H0V68.5156H2.71094V88.3311ZM21.2393 90.9199H18.5215V68.5156H21.2393V90.9199ZM41.8447 71.1045H28.4121V78.6992H40.4756V81.2881H28.4121V90.9199H25.7012V68.5156H41.8447V71.1045ZM61.4629 71.1045H54.0312V90.9199H51.3203V71.1045H43.8887V68.5156H61.4629V71.1045ZM68.6562 89.9189H82.1904V90.9131H67.5664V68.5088H68.6562V89.9189ZM90.7051 82.0645C87.1428 82.0646 84.6769 83.5702 84.6768 86.2266V86.2881C84.6768 88.9446 87.0819 90.3203 89.7793 90.3203C93.6958 90.3202 96.5496 87.8276 96.5498 84.9463H96.543V82.9639C94.9695 82.453 93.1096 82.0645 90.7051 82.0645ZM110.971 75.4023C106.959 75.4023 103.853 78.6661 103.853 82.8281V82.8887C103.853 87.0506 107.027 90.3135 110.971 90.3135C114.915 90.3133 117.966 87.2414 117.966 82.9229V82.8613C117.966 78.6042 114.983 75.4025 110.971 75.4023Z" fill="currentColor"/></svg>
