<svg xmlns="http://www.w3.org/2000/svg" fill="none" viewBox="0 0 200 156"><path d="M194.095 100.207V98.2097H194.905V97.7965H192.856V98.2097H193.665V100.207H194.095ZM198.055 100.207V97.7965H197.435L196.712 99.4491L195.989 97.7965H195.369V100.207H195.817V98.399L196.488 99.9656H196.953L197.624 98.399V100.224H198.072L198.055 100.207Z" fill="currentColor"/><path d="M36.3746 154.932V144.603C36.3746 140.713 33.8957 138.096 29.9191 138.062C27.8189 138.027 25.6671 138.681 24.1522 140.988C23.0161 139.163 21.2257 138.062 18.7296 138.062C16.9737 138.062 15.2695 138.578 13.9267 140.506V138.475H10.3633V154.932H13.9611V145.808C13.9611 142.951 15.5449 141.436 17.9722 141.436C20.3994 141.436 21.5356 142.985 21.5356 145.774V154.932H25.1335V145.808C25.1335 142.951 26.7861 141.436 29.1445 141.436C31.5029 141.436 32.7423 142.985 32.7423 145.774V154.932H36.3402H36.3746ZM89.7229 138.475H83.8871V133.482H80.2892V138.475H76.9668V141.745H80.2892V149.251C80.2892 153.073 81.7697 155.345 85.9873 155.345C87.5366 155.345 89.3097 154.863 90.4459 154.071L89.413 151.007C88.3457 151.627 87.1751 151.937 86.2627 151.937C84.4724 151.937 83.8871 150.835 83.8871 149.182V141.745H89.7229V138.475ZM120.176 138.062C118.11 138.062 116.784 139.026 115.855 140.472V138.475H112.326V154.932H115.889V145.705C115.889 142.985 117.06 141.47 119.384 141.47C120.107 141.47 120.864 141.573 121.622 141.883L122.723 138.509C121.932 138.199 120.899 138.062 120.176 138.062ZM74.1436 139.783C72.4222 138.647 70.0638 138.062 67.4471 138.062C63.2984 138.062 60.6129 140.058 60.6129 143.329C60.6129 146.015 62.6098 147.667 66.2765 148.184L67.9635 148.425C69.926 148.7 70.8556 149.217 70.8556 150.146C70.8556 151.42 69.5473 152.143 67.12 152.143C64.6928 152.143 62.868 151.351 61.663 150.422L59.9759 153.21C61.9384 154.656 64.4001 155.345 67.0856 155.345C71.8196 155.345 74.574 153.107 74.574 149.974C74.574 147.082 72.4049 145.567 68.8415 145.051L67.1544 144.81C65.6051 144.603 64.3657 144.293 64.3657 143.192C64.3657 141.986 65.5363 141.263 67.4815 141.263C69.5817 141.263 71.5958 142.055 72.5943 142.675L74.1436 139.783ZM169.788 138.062C167.723 138.062 166.397 139.026 165.467 140.472V138.475H161.938V154.932H165.502V145.705C165.502 142.985 166.672 141.47 168.996 141.47C169.719 141.47 170.477 141.573 171.234 141.883L172.336 138.509C171.544 138.199 170.511 138.062 169.788 138.062ZM123.791 146.703C123.791 151.696 127.251 155.345 132.553 155.345C135.032 155.345 136.667 154.794 138.458 153.383L136.736 150.491C135.393 151.455 133.982 151.971 132.45 151.971C129.592 151.937 127.509 149.871 127.509 146.703C127.509 143.536 129.609 141.47 132.45 141.436C133.999 141.436 135.411 141.952 136.736 142.916L138.458 140.024C136.667 138.612 135.032 138.062 132.553 138.062C127.268 138.062 123.791 141.711 123.791 146.703ZM157.239 146.703V138.475H153.675V140.472C152.539 138.991 150.818 138.062 148.494 138.062C143.897 138.062 140.282 141.677 140.282 146.703C140.282 151.73 143.88 155.345 148.494 155.345C150.835 155.345 152.539 154.415 153.675 152.935V154.932H157.239V146.703ZM143.949 146.703C143.949 143.811 145.843 141.436 148.924 141.436C152.006 141.436 153.865 143.708 153.865 146.703C153.865 149.699 151.868 151.971 148.924 151.971C145.98 151.971 143.949 149.595 143.949 146.703ZM100.861 138.062C96.0579 138.062 92.6838 141.573 92.6838 146.703C92.6838 151.833 96.1784 155.345 101.102 155.345C103.581 155.345 105.836 154.725 107.833 153.038L106.077 150.387C104.7 151.489 102.961 152.109 101.308 152.109C99.0016 152.109 96.9186 151.041 96.4022 148.08H108.59C108.625 147.633 108.659 147.185 108.659 146.703C108.625 141.573 105.474 138.062 100.861 138.062ZM100.792 141.263C103.099 141.263 104.562 142.709 104.941 145.257H96.4194C96.7981 142.882 98.2441 141.263 100.775 141.263H100.792ZM190.36 146.703V131.864H186.796V140.472C185.66 138.991 183.939 138.062 181.615 138.062C177.018 138.062 173.403 141.677 173.403 146.703C173.403 151.73 177.001 155.345 181.615 155.345C183.956 155.345 185.66 154.415 186.796 152.935V154.932H190.36V146.703ZM177.07 146.703C177.07 143.811 178.964 141.436 182.045 141.436C185.127 141.436 186.986 143.708 186.986 146.703C186.986 149.699 184.989 151.971 182.045 151.971C179.101 151.971 177.07 149.595 177.07 146.703ZM56.4986 146.703V138.475H52.9351V140.472C51.799 138.991 50.0775 138.062 47.7535 138.062C43.1572 138.062 39.5421 141.677 39.5421 146.703C39.5421 151.73 43.14 155.345 47.7535 155.345C50.0947 155.345 51.799 154.415 52.9351 152.935V154.932H56.4986V146.703ZM43.2089 146.703C43.2089 143.811 45.1025 141.436 48.1839 141.436C51.2653 141.436 53.1245 143.708 53.1245 146.703C53.1245 149.699 51.1276 151.971 48.1839 151.971C45.2402 151.971 43.2089 149.595 43.2089 146.703ZM196.316 152.539C196.54 152.539 196.764 152.591 196.97 152.66C197.177 152.746 197.349 152.866 197.504 153.004C197.659 153.159 197.779 153.331 197.865 153.52C197.952 153.727 198.003 153.933 198.003 154.157C198.003 154.381 197.952 154.588 197.865 154.794C197.779 154.984 197.659 155.156 197.504 155.311C197.349 155.466 197.177 155.569 196.97 155.655C196.764 155.741 196.557 155.793 196.316 155.793C196.075 155.793 195.869 155.741 195.662 155.655C195.455 155.569 195.283 155.448 195.128 155.311C194.973 155.156 194.853 154.984 194.767 154.794C194.681 154.605 194.629 154.381 194.629 154.157C194.629 153.933 194.663 153.727 194.767 153.52C194.853 153.314 194.973 153.142 195.128 153.004C195.283 152.849 195.455 152.746 195.662 152.66C195.869 152.574 196.092 152.539 196.316 152.539ZM196.316 155.448C196.488 155.448 196.66 155.414 196.815 155.345C196.97 155.276 197.108 155.19 197.211 155.07C197.332 154.949 197.418 154.811 197.487 154.656C197.556 154.502 197.59 154.329 197.59 154.157C197.59 153.985 197.556 153.813 197.487 153.658C197.418 153.503 197.332 153.365 197.211 153.245C197.091 153.124 196.97 153.038 196.815 152.969C196.66 152.901 196.505 152.866 196.316 152.866C196.127 152.866 195.972 152.901 195.817 152.969C195.662 153.038 195.524 153.124 195.404 153.245C195.283 153.365 195.197 153.503 195.128 153.658C195.059 153.813 195.025 153.985 195.025 154.157C195.025 154.329 195.059 154.502 195.128 154.656C195.197 154.811 195.283 154.949 195.404 155.07C195.524 155.19 195.662 155.276 195.817 155.345C195.972 155.414 196.144 155.448 196.316 155.448ZM196.419 153.4C196.609 153.4 196.764 153.451 196.867 153.538C196.97 153.624 197.022 153.744 197.022 153.899C197.022 154.02 196.987 154.123 196.901 154.209C196.815 154.295 196.695 154.347 196.54 154.364L197.039 154.932H196.66L196.196 154.364H196.041V154.932H195.714V153.417H196.419V153.4ZM196.041 153.692V154.088H196.419C196.419 154.088 196.574 154.088 196.626 154.037C196.678 153.985 196.695 153.951 196.695 153.882C196.695 153.813 196.678 153.761 196.626 153.727C196.574 153.692 196.505 153.675 196.419 153.675H196.041V153.692Z" fill="currentColor"/><path d="M94.5085 112.033C94.9905 112.446 95.507 112.859 96.0062 113.273C86.2111 119.797 74.4534 123.601 61.8006 123.601C27.664 123.601 0 95.9373 0 61.8007C0 27.664 27.664 0 61.8006 0C74.4534 0 86.2111 3.80444 96.0062 10.3288C95.507 10.742 94.9905 11.1379 94.5085 11.5683C79.9449 24.2382 71.5958 42.5547 71.5958 61.8007C71.5958 81.0466 79.9449 99.3631 94.5085 112.033ZM138.199 0C125.547 0 113.789 3.80444 103.994 10.3288C104.493 10.742 105.009 11.1379 105.491 11.5683C120.055 24.2382 128.404 42.5547 128.404 61.8007C128.404 81.0466 120.055 99.3631 105.491 112.033C105.009 112.446 104.493 112.859 103.994 113.273C113.789 119.797 125.547 123.601 138.199 123.601C172.336 123.601 200 95.9373 200 61.8007C200 27.664 172.319 0 138.199 0ZM100 13.2381C99.2081 13.8578 98.4162 14.512 97.6588 15.1661C84.6273 26.4934 76.3987 43.1744 76.3987 61.8007C76.3987 80.4269 84.6445 97.1079 97.6588 108.435C98.4162 109.107 99.2081 109.743 100 110.363C100.792 109.743 101.584 109.089 102.341 108.435C115.373 97.1079 123.601 80.4269 123.601 61.8007C123.601 43.1744 115.355 26.4934 102.341 15.1661C101.584 14.4947 100.792 13.8578 100 13.2381Z" fill="currentColor"/></svg>
