<svg xmlns="http://www.w3.org/2000/svg" fill="none" viewBox="0 0 205 29"><g clip-path="url(#clip-revolt)"><path fill-rule="evenodd" clip-rule="evenodd" d="M124.879 0.518531C132.866 0.41184 138.017 2.49838 140.926 7.46679C141.508 8.52681 141.941 9.66284 142.21 10.8421C143.065 14.1737 142.599 17.7067 140.911 20.7034C139.223 23.7 136.442 25.9285 133.15 26.9234C131.696 27.2818 130.221 27.547 128.734 27.7175C127.053 27.9712 125.346 27.9932 123.659 27.7829C122.262 27.5502 121.003 27.6302 119.772 27.3198C115.081 26.1353 111.693 23.9906 109.919 19.9072C108.857 17.3443 108.549 14.5319 109.03 11.7999C109.262 10.3699 109.718 8.98532 110.381 7.69714C112.435 4.17512 115.436 2.16618 119.903 1.04592C121.044 0.759799 122.328 0.788896 123.561 0.582789L124.879 0.518531ZM176.743 1.41207L203.927 1.4448V7.16975H194.932C194.921 13.7652 194.91 20.361 194.898 26.9573L185.739 26.9246V7.16975H176.744V1.41207H176.743ZM0.729004 1.47875H16.9376C20.7142 1.47875 24.1477 1.42177 26.3288 2.96758C27.7001 4.09544 28.6871 5.62147 29.1535 7.33469C29.6198 9.04791 29.5423 10.8637 28.9318 12.531C28.5042 13.6504 27.7834 14.6343 26.8448 15.3794C25.9062 16.1245 24.7845 16.6034 23.5973 16.7659L29.9235 26.9573H19.8703L14.6643 17.6594L9.81471 17.6922V26.9573H0.729004V1.47875ZM37.6005 1.47875H64.3532V7.2037H46.725V11.3719H63.0026V17.1296H46.6583V21.1996H64.7157C64.7044 23.1184 64.6935 25.0377 64.683 26.9573L37.598 26.9246V1.47875H37.6005ZM71.7367 1.47875H81.2916L82.8399 5.28447L85.706 12.4643C86.4205 13.9738 86.9928 15.5466 87.4155 17.1623H87.4482C87.7538 15.9623 88.1846 14.7977 88.7333 13.6876L91.8638 5.97796L93.2144 2.70449L93.7418 1.47996L103.231 1.5127L91.6358 26.9573H83.2339L71.7367 1.47875ZM151.64 1.47875H160.733V20.7316H173.682L173.65 26.9525L151.639 26.9197V1.47875H151.64ZM124.885 6.2071C124.266 6.44958 123.551 6.3538 122.974 6.57082C122.028 6.91702 121.168 7.46256 120.451 8.17045C119.735 8.87833 119.179 9.73201 118.821 10.6736C116.3 17.0993 120.833 23.6572 127.95 21.9901C132.045 21.0299 134.585 15.6311 132.628 10.6408C131.446 7.63773 129.122 6.19013 124.879 6.21074L124.885 6.2071ZM9.85594 7.20006V11.9284C12.2177 11.943 17.9899 12.3115 19.3781 11.4653C19.6379 11.3036 19.8584 11.0861 20.0236 10.8286C20.1889 10.5711 20.2947 10.28 20.3335 9.97645C20.436 9.45735 20.3539 8.91872 20.1013 8.45378C19.8487 7.98883 19.4415 7.62683 18.9501 7.43042C17.9161 7.17728 16.8469 7.09901 15.787 7.19885H9.85351L9.85594 7.20006Z" fill="currentColor"/></g><defs><clipPath id="clip-revolt"><rect width="204.641" height="28.3584" fill="currentColor"/></clipPath></defs></svg>
