<svg xmlns="http://www.w3.org/2000/svg" fill="none" viewBox="0 0 93 71"><path fill-rule="evenodd" clip-rule="evenodd" d="M19.1792 58.7237L21.0534 57.906L21.0623 57.9981C18.8836 61.3094 16.3757 64.387 13.5811 67.1833C12.3369 68.3903 10.9086 69.385 9.35117 70.1318C8.41669 70.569 7.40079 70.7937 6.37074 70.7937C5.98314 70.7902 5.59554 70.7583 5.21148 70.7017C4.28585 70.5884 3.38677 70.3088 2.55847 69.8752C1.7231 69.4664 1.03109 68.8045 0.578008 67.9833C0.124926 67.1621-0.069758 66.2188 0.0222744 65.2826C0.121386 63.695 0.721367 62.1801 1.73372 60.966C2.83988 59.6387 4.15665 58.5042 5.6274 57.614C7.86273 56.2106 10.2007 54.9823 12.6201 53.9399L13.5263 53.5453L18.4801 51.5064C20.6535 50.6056 21.8676 50.1189 22.057 50.0464L23.3613 49.5508L24.2675 49.2022L24.4038 49.1473C24.5507 47.758 24.8392 46.3882 25.2639 45.0591C27.4462 38.1055 32.6088 33.5129 37.7626 33.5129C38.6546 33.5129 39.5413 33.6545 40.3891 33.9359C44.3748 35.2225 46.865 39.1993 47.2898 44.1494C47.5517 43.9848 47.8065 43.8184 48.0508 43.645C48.5782 43.314 49.0844 42.8875 49.5799 42.4699C49.6207 42.4362 49.6596 42.4026 49.7003 42.369C50.8684 27.5894 58.0593 7.96055 65.5228 9.21888C66.6289 9.29144 67.6661 9.78876 68.4236 10.6099C69.1811 11.4311 69.6005 12.5142 69.5988 13.6381C69.8288 21.1456 62.8592 32.3944 58.677 39.1444C57.5797 40.916 56.6735 42.3778 56.1408 43.3813C56.2771 41.7549 56.5213 39.8258 56.9018 37.5392C57.5266 34.2332 58.4044 30.9803 59.5283 27.8124C60.8026 24.0268 62.284 20.3155 63.9653 16.698C64.1724 16.3229 64.2927 15.9052 64.3175 15.4769C64.314 15.3778 64.2768 15.2822 64.2096 15.2079C64.1423 15.1335 64.0538 15.0858 63.9547 15.0734C63.5919 15.0097 63.222 15.5141 62.9317 16.1476C61.1973 19.8129 59.6858 23.5843 58.4027 27.4372C57.2894 30.6476 56.4204 33.9394 55.8028 37.2843C54.3904 45.652 54.7621 49.9331 55.5762 51.7241C55.8258 52.3082 56.2912 52.7701 56.8717 53.0108C58.0664 53.4603 59.9778 53.0108 62.2609 51.7525H62.3512C62.3512 51.7525 62.3813 51.7365 62.4273 51.7135C62.6875 51.5808 63.5954 51.1189 64.8874 50.3384C65.2237 52.1259 65.8679 53.839 66.79 55.4C65.9387 55.8761 65.3281 56.207 64.9936 56.3893C64.8821 56.4495 64.8024 56.4937 64.7529 56.5203C61.5831 58.2565 59.1195 59.083 56.1939 58.8529C55.2612 58.7945 54.3568 58.4989 53.5657 57.9928C52.7745 57.4866 52.1215 56.7875 51.6666 55.9593C50.6242 53.8054 49.9516 51.4888 49.6737 49.1066C48.9269 49.6322 48.1499 50.1136 47.3464 50.549L46.6225 50.9065C46.5818 51.2339 46.5128 51.556 46.4137 51.871C45.3907 55.3823 43.3589 58.506 40.5802 60.8457C38.6989 62.4456 36.3414 63.3517 33.8884 63.4172C33.0088 63.4172 32.1345 63.2791 31.2974 63.0031C28.2992 62.0385 25.9896 59.4121 24.9577 55.7929C24.9312 55.7097 24.7684 55.1045 24.7684 55.0213C24.3471 55.2071 23.8073 55.446 23.2003 55.7168C21.8782 56.3044 20.2322 57.0371 18.7544 57.6671C15.7651 58.9431 12.7865 60.2298 11.9989 60.5784C10.9051 61.0846 9.91222 61.7908 9.0733 62.6633C8.51757 63.2331 7.98661 63.8349 7.45566 64.4366C7.33708 64.5711 7.2185 64.7056 7.09815 64.8401C7.09815 64.8401 6.61852 65.3551 7.09815 65.6949C7.09815 65.6949 7.61495 66.1268 8.37421 65.2082L8.69102 64.8313C8.78836 64.7322 9.09985 64.3711 9.38126 64.0419C9.59895 63.7889 9.79718 63.557 9.86797 63.4809C10.6042 62.7093 11.4768 62.0863 12.4396 61.6439C12.9457 61.412 14.436 60.7696 16.2023 60.0103C16.6784 59.805 17.1722 59.5927 17.6748 59.3767L19.1774 58.7343L19.1792 58.7237ZM36.9202 55.9221C38.6989 54.3328 39.9891 52.2568 40.6333 49.9419C42.1643 44.8803 40.697 40.5178 38.4139 39.8098C38.1608 39.7355 37.8989 39.6983 37.6352 39.7001C35.3893 39.7373 32.3734 42.4185 31.0053 46.9563C30.2691 49.2446 30.1965 51.6994 30.7965 54.0284C31.0779 54.9752 31.7752 56.6371 33.223 57.0866C33.4814 57.1627 33.7504 57.1999 34.0194 57.1964C35.0955 57.0937 36.1096 56.6459 36.9184 55.9203L36.9202 55.9221ZM89.9273 49.542L89.7291 49.6287C89.5255 49.7136 89.3061 49.7579 89.0866 49.7579C88.5309 49.7437 87.9964 49.5367 87.5734 49.1703C87.2495 48.9526 86.9893 48.65 86.8194 48.2943C86.6513 47.9385 86.5787 47.5439 86.6124 47.151L86.6761 46.7829C86.1575 46.9191 85.6938 47.2182 85.354 47.6377C81.4055 52.2303 78.1082 53.3134 75.8906 53.3134H75.5101C74.903 53.3453 74.2977 53.2391 73.7349 53.0072C73.1721 52.7736 72.6677 52.4179 72.2571 51.9648C70.6624 49.9897 71.2695 46.105 71.2695 46.105C71.3934 45.2396 71.5721 44.3848 71.804 43.5424V43.4786C72.696 40.7956 74.3738 38.4542 76.6127 36.764C77.2764 36.2596 78.0091 35.8543 78.7861 35.5606C78.7861 35.5606 79.6922 35.2296 80.0639 35.5606C80.2179 35.7358 80.3099 35.957 80.3276 36.1906C80.3453 36.4242 80.2869 36.6578 80.163 36.8561C79.8409 37.5498 79.4462 38.2064 78.9861 38.8117L78.8675 38.9674L78.7047 39.178L78.5772 39.3338L78.3772 39.5727C78.3436 39.6205 78.3029 39.663 78.2587 39.7019L77.933 40.07C76.9844 41.1248 75.9773 42.1247 74.9172 43.0645C74.1738 43.7353 73.4146 44.3688 72.6624 44.9759C72.581 45.39 72.5084 45.7935 72.4535 46.1882C72.3173 47.0519 72.1544 49.7986 73.1686 51.0941C73.1969 51.1277 73.227 51.1578 73.2588 51.1861C76.3667 48.9933 79.2391 46.4749 81.8267 43.6733L81.9718 43.5176L82.1169 43.353C82.1382 43.3282 82.1576 43.3034 82.1789 43.2804C82.2196 43.2309 82.2603 43.1831 82.3081 43.1335V43.0875L82.4797 42.8858L82.5258 42.8309L82.7435 42.5637V42.5088L82.9328 42.2699L82.9877 42.1955C83.0125 42.1619 83.0373 42.1301 83.062 42.0982C83.1187 42.0239 83.1735 41.9513 83.2231 41.8752L83.4408 41.5637V41.5177C84.708 39.6807 86.0035 37.1268 85.6867 34.6279C85.5965 33.8775 85.3434 33.1589 84.9416 32.5218C84.5399 31.8865 84.0018 31.3502 83.3682 30.9538C82.347 30.3379 81.1771 30.0211 79.9896 30.0353C77.7065 30.1432 75.5048 30.9219 73.65 32.2758C70.2855 34.6597 67.8218 38.1374 66.6679 42.1318C65.9281 44.5777 65.6768 47.1457 65.9245 49.6906C66.1475 51.5171 66.7652 53.2709 67.7351 54.8248L68.0431 55.2655C68.5404 55.9734 70.5509 58.3786 75.1526 58.6458H75.841C79.2002 58.6458 84.0638 57.2406 89.2901 51.1224C89.66 50.6782 89.8813 50.126 89.9238 49.5473L89.9273 49.542ZM89.9379 49.5384L89.9273 49.542V49.5278L89.9379 49.5367V49.5384ZM92.5361 44.3211L89.2583 48.5562C89.2583 48.5562 88.8866 48.7863 88.2796 48.2713C87.6725 47.7562 87.7451 47.3527 87.7451 47.3527L91.0228 43.1176C91.1007 43.0167 91.1981 42.9335 91.3078 42.8698C91.4175 42.8079 91.5379 42.7672 91.6635 42.7513C91.7892 42.7353 91.9166 42.7459 92.037 42.7796C92.1591 42.8132 92.2723 42.8716 92.3715 42.9512C92.4706 43.0309 92.5538 43.1282 92.6157 43.2397C92.6776 43.3512 92.7166 43.4733 92.7325 43.6008C92.7484 43.7282 92.7378 43.8574 92.7042 43.9795C92.6706 44.1034 92.6122 44.2184 92.5343 44.3193L92.5361 44.3211ZM29.6567 23.5985L26.6409 28.0265C26.4975 28.2389 26.4426 28.5026 26.4887 28.7557C26.5347 29.0105 26.6798 29.2353 26.8904 29.3804C27.101 29.5273 27.3594 29.5822 27.6108 29.5344C27.8603 29.4866 28.0833 29.3415 28.2267 29.1273L31.2336 24.7099C31.2336 24.7099 31.2797 24.2958 30.6531 23.8551C30.0266 23.4144 29.6567 23.5985 29.6567 23.5985ZM29.593 0.0017698C30.1983 0.0035396 30.8036 0.0460148 31.4035 0.130965C33.2017 0.277858 34.9043 1.00879 36.26 2.21579C37.6157 3.42279 38.552 5.03862 38.929 6.82788C39.3113 8.39769 39.4245 10.0224 39.2635 11.6311C38.8936 15.7813 37.3538 19.735 34.8264 23.0215C34.4919 23.4675 34.1327 23.894 33.7486 24.2976C33.3663 24.7205 32.8672 25.0179 32.3186 25.1524V24.8586C32.331 24.4657 32.2354 24.0763 32.046 23.733C31.8566 23.3897 31.577 23.1065 31.2407 22.91C30.8248 22.5986 30.3257 22.4216 29.8107 22.4056C29.5505 22.4021 29.2921 22.4623 29.0585 22.5809L28.8054 22.7101C28.8001 22.6853 28.8001 22.6605 28.8054 22.6357C28.7629 22.2216 28.8089 21.8021 28.9381 21.4057C29.0673 21.0093 29.278 20.6465 29.5576 20.3385C31.2797 18.0909 32.5646 15.5318 33.3433 12.7974C33.6637 11.6612 33.7044 10.463 33.4619 9.30737C33.3274 8.58175 32.9734 7.91808 32.4495 7.40484C31.9257 6.8916 31.2566 6.55887 30.5381 6.44915C30.0054 6.33411 29.462 6.27571 28.9169 6.27394C28.1364 6.28278 27.3594 6.37481 26.5984 6.55002C24.1684 7.10751 21.8817 8.17824 19.8871 9.69142C16.7138 11.9302 14.1315 14.9265 12.3705 18.4183C11.59 19.9704 11.0555 21.6393 10.7865 23.3596C10.6396 24.4268 10.5989 25.5081 10.6679 26.5841C10.9387 30.0122 11.8838 33.3519 13.4484 36.403C14.0714 37.7303 14.7351 39.0435 15.3864 40.3302C15.4731 40.5036 15.5616 40.677 15.6483 40.8487L16.6713 42.8698C17.0146 43.5583 18.7367 47.4076 19.6234 49.7402L17.9934 50.4109L14.0077 52.0462C13.5103 51.1277 11.544 47.5545 11.2272 47.0041C11.1334 46.8377 11.0396 46.6714 10.944 46.505C10.4449 45.6236 9.93345 44.721 9.41666 43.8255C7.92644 41.1514 6.71232 38.3285 5.79377 35.4031C5.21679 33.5147 4.8115 31.5785 4.57965 29.6158C4.39912 28.0637 4.34426 26.501 4.41682 24.94C4.5708 22.0128 5.28051 19.1439 6.50879 16.4892C8.15829 12.9284 10.5033 9.74451 13.4006 7.12875C15.5616 5.13595 18.004 3.47942 20.6464 2.21402C22.6162 1.2601 24.7117 0.599962 26.8692 0.258391C27.7523 0.116807 28.6461 0.0424752 29.5399 0.0371658L29.5948 0L29.593 0.0017698Z" fill="currentColor"/></svg>
