<svg xmlns="http://www.w3.org/2000/svg" fill="none" viewBox="0 0 153 35"><path d="M129.363 33.5094H136.895V19.7486C136.895 16.61 138.731 14.388 141.432 14.388C144.134 14.388 145.391 16.224 145.391 18.8294V33.5069H152.923V17.3819C152.923 11.9249 149.64 8.06248 144.33 8.06248C140.95 8.06248 138.583 9.51246 136.798 12.1661H136.653V8.7862H129.363V33.5069V33.5094ZM114.589 8.11073C106.719 8.11073 101.455 13.7608 101.455 21.1961C101.455 28.6313 106.717 34.2814 114.589 34.2814C122.461 34.2814 127.722 28.5831 127.722 21.1961C127.722 13.8091 122.461 8.11073 114.589 8.11073ZM114.541 28.7278C110.968 28.7278 109.086 25.7339 109.086 21.1961C109.086 16.6582 110.968 13.6643 114.541 13.6643C118.113 13.6643 120.094 16.61 120.094 21.1961C120.094 25.7822 118.113 28.7278 114.541 28.7278ZM80.0179 33.5094H101.166V27.5699H89.1926V27.4251L100.635 14.581V8.78874H80.0179V14.7283H91.605V14.8731L80.0179 27.8136V33.512V33.5094ZM70.3607 33.5094H77.9407V8.78874H70.3607V33.5094ZM52.7857 33.5094H60.3175V22.1636C60.3175 16.996 63.4079 14.7283 68.1387 15.3555H68.2835V8.83699C67.8975 8.69224 67.4633 8.64399 66.7396 8.64399C63.7939 8.64399 61.8157 9.99494 60.1245 12.8923H59.9798V8.78874H52.7857V33.5094ZM38.9284 28.7761C35.5968 28.7761 33.5678 26.6024 33.1819 23.2733H50.998C51.0463 17.9609 49.6471 13.7126 46.7014 11.0564C44.6268 9.12393 41.8741 8.06248 38.3977 8.06248C30.9625 8.06248 25.7974 13.7126 25.7974 21.0996C25.7974 28.4866 30.7212 34.2332 38.8827 34.2332C41.9731 34.2332 44.4363 33.4129 46.4627 32.0112C48.6364 30.5155 50.1804 28.3418 50.6146 26.1707H43.3723C42.6486 27.8111 41.1504 28.7786 38.931 28.7786L38.9284 28.7761ZM38.5425 13.4713C41.1986 13.4713 43.0321 15.452 43.3215 18.3469H33.2301C33.8091 15.4012 35.4038 13.4713 38.5425 13.4713ZM70.3607 0H77.9407V6.71154H70.3607V0ZM17.4251 33.5094C17.6232 33.5094 17.8035 33.3876 17.872 33.2022L27.2448 8.78874H19.642L13.6237 24.4668L7.60539 8.78874H0L9.37279 33.2022C9.44389 33.3876 9.62165 33.5094 9.81972 33.5094H17.4226H17.4251Z" fill="currentColor"/></svg>
