<?xml version="1.0" encoding="UTF-8"?>
<svg width="1050" height="565" viewBox="0 0 1050 565" fill="none" xmlns="http://www.w3.org/2000/svg">
<path fill-rule="evenodd" clip-rule="evenodd" d="M268.186 380.513C313.473 380.513 348.105 408.152 348.105 465.095V489.071L346.773 490.403H257.862C250.537 490.403 245.875 494.399 245.875 501.725C245.875 511.382 253.867 519.041 268.852 519.041C280.174 519.041 286.834 514.712 288.166 508.385L289.498 507.053H343.443L344.775 508.385C341.112 543.35 309.811 564.995 270.184 564.995C218.236 564.995 185.602 526.7 185.602 472.754C185.602 418.808 216.238 380.513 268.186 380.513ZM268.519 427.133C255.532 427.133 246.541 435.125 246.541 445.781C246.541 453.107 250.537 457.768 257.862 457.769H279.175C286.501 457.769 290.497 453.107 290.497 445.781C290.497 435.125 281.506 427.133 268.519 427.133Z" fill="black"/>
<path fill-rule="evenodd" clip-rule="evenodd" d="M171.484 328.332V558.668L170.152 560H88.5781C28.9711 560 0 522.371 0 472.421C3.54008e-05 422.471 28.9712 386 88.5781 386H113.542L114.874 384.668V328.332L116.206 327H170.152L171.484 328.332ZM88.5781 441.452C72.5941 441.452 58.6084 452.774 58.6084 472.754C58.6084 492.734 72.5941 504.056 88.5781 504.056C104.562 504.056 118.548 492.734 118.548 472.754C118.548 452.774 104.562 441.452 88.5781 441.452Z" fill="black"/>
<path d="M474.925 328.332L474.898 364.862L473.566 366.194H455.251C443.929 366.194 438.601 372.014 438.601 383.336V384.668L439.933 386H473.566L474.898 387.332V432.128L473.566 433.46H455.251C444.595 433.46 438.601 439.454 438.601 450.11V558.668L437.27 560H383.323L381.991 558.668V450.11C381.991 439.454 375.997 433.46 365.341 433.46H352.021L350.689 432.128V387.332L352.021 386H380.659L381.991 384.668L382.018 328.332L383.35 327H473.593L474.925 328.332Z" fill="black"/>
<path fill-rule="evenodd" clip-rule="evenodd" d="M648.993 387.332V558.668L647.661 560H562.413C502.806 560 473.835 523.196 473.835 473.246C473.835 423.296 502.806 386 562.413 386H647.661L648.993 387.332ZM562.413 441.452C546.429 441.452 532.443 452.774 532.443 472.754C532.443 492.734 546.429 504.056 562.413 504.056C578.397 504.056 592.383 492.734 592.383 472.754C592.383 452.774 578.397 441.452 562.413 441.452Z" fill="black"/>
<path d="M730.615 387.332V484.076C730.615 499.061 738.94 507.386 753.925 507.386H754.591C769.576 507.386 777.901 499.061 777.901 484.076V387.332L779.233 386H833.179L834.511 387.332V558.668L833.179 560H675.337L674.005 558.668V387.332L675.337 386H729.283L730.615 387.332Z" fill="black"/>
<path d="M916.115 328.332V490.736C916.115 501.392 922.109 507.386 932.765 507.386H933.764L935.096 508.718V558.668L933.764 560H860.837L859.505 558.668V328.332L860.837 327H914.783L916.115 328.332Z" fill="black"/>
<path d="M1014.63 338.222V384.668L1015.96 386H1048.67L1050 387.332V432.62L1048.67 433.952H1030.35C1019.7 433.952 1014.63 439.946 1014.63 450.602V494.732C1014.63 505.388 1019.7 510.05 1030.35 510.05H1048.67L1050 511.382V558.668L1048.67 560H959.348L958.016 558.668V450.602C958.015 439.946 952.021 433.952 941.365 433.952H928.046L926.714 432.62V387.332L928.046 386H956.684L958.016 384.668V338.222L959.348 336.89H1013.29L1014.63 338.222Z" fill="black"/>
<path fill-rule="evenodd" clip-rule="evenodd" d="M916 74.332V304.668L914.668 306H860.742L859.41 304.668V248.332L858.078 247H832.771C773.164 247 744.192 210.037 744.192 160.087C744.192 110.137 773.164 73 832.771 73H914.668L916 74.332ZM832.771 128.944C816.787 128.944 802.8 140.266 802.8 160.246C802.8 180.226 816.787 191.548 832.771 191.548C848.754 191.548 862.74 180.226 862.74 160.246C862.74 140.266 848.754 128.944 832.771 128.944Z" fill="black"/>
<path d="M739.492 1.33203V37.668L738.16 39H696.868C684.547 39 679.552 44.6947 677.554 53.6855L676.556 57.6816C674.225 67.6716 679.885 72.9999 689.875 73H699.532L700.864 74.332L749.482 245.668L748.15 247H690.874L668.563 148.099C666.898 141.106 663.235 137.443 657.241 137.443C651.247 137.443 647.584 141.106 645.919 148.099L623.608 247H566.332L565 245.668L634.904 1.33203L636.236 0H738.16L739.492 1.33203Z" fill="black"/>
</svg>