<?xml version="1.0" encoding="UTF-8"?>
<svg width="1050" height="555" viewBox="0 0 1050 555" fill="none" xmlns="http://www.w3.org/2000/svg">
<path d="M88.578 550C28.971 550 0 512.371 0 462.421C0 412.471 28.971 376 88.578 376H113.542L114.874 374.668V318.332L116.206 317H170.152L171.484 318.332V548.668L170.152 550H88.578ZM88.578 494.056C104.562 494.056 118.548 482.734 118.548 462.754C118.548 442.774 104.562 431.452 88.578 431.452C72.594 431.452 58.608 442.774 58.608 462.754C58.608 482.734 72.594 494.056 88.578 494.056Z" fill="black"/>
<path d="M270.184 554.995C218.236 554.995 185.602 516.7 185.602 462.754C185.602 408.808 216.238 370.513 268.186 370.513C313.474 370.513 348.106 398.152 348.106 455.095V479.071L346.774 480.403H257.863C250.537 480.403 245.875 484.399 245.875 491.725C245.875 501.382 253.867 509.041 268.852 509.041C280.174 509.041 286.834 504.712 288.166 498.385L289.498 497.053H343.444L344.776 498.385C341.113 533.35 309.811 554.995 270.184 554.995ZM279.175 447.769C286.501 447.769 290.497 443.107 290.497 435.781C290.497 425.125 281.506 417.133 268.519 417.133C255.532 417.133 246.541 425.125 246.541 435.781C246.541 443.107 250.537 447.769 257.863 447.769H279.175Z" fill="black"/>
<path d="M383.323 550L381.991 548.668V440.11C381.991 429.454 375.997 423.46 365.341 423.46H352.021L350.689 422.128V377.332L352.021 376H380.659L381.991 374.668L382.018 318.332L383.35 317H473.593L474.925 318.332L474.898 354.862L473.566 356.194H455.251C443.929 356.194 438.601 362.014 438.601 373.336V374.668L439.933 376H473.566L474.898 377.332V422.128L473.566 423.46H455.251C444.595 423.46 438.601 429.454 438.601 440.11V548.668L437.269 550H383.323Z" fill="black"/>
<path d="M562.413 550C502.806 550 473.835 513.196 473.835 463.246C473.835 413.296 502.806 376 562.413 376H647.661L648.993 377.332V548.668L647.661 550H562.413ZM562.413 494.056C578.397 494.056 592.383 482.734 592.383 462.754C592.383 442.774 578.397 431.452 562.413 431.452C546.429 431.452 532.443 442.774 532.443 462.754C532.443 482.734 546.429 494.056 562.413 494.056Z" fill="black"/>
<path d="M833.179 376L834.511 377.332V548.668L833.179 550H675.337L674.005 548.668V377.332L675.337 376H729.283L730.615 377.332V474.076C730.615 489.061 738.94 497.386 753.925 497.386H754.591C769.576 497.386 777.901 489.061 777.901 474.076V377.332L779.233 376H833.179Z" fill="black"/>
<path d="M860.837 550L859.505 548.668V318.332L860.837 317H914.783L916.115 318.332V480.736C916.115 491.392 922.109 497.386 932.765 497.386H933.764L935.096 498.718V548.668L933.764 550H860.837Z" fill="black"/>
<path d="M959.348 550L958.016 548.668V440.602C958.016 429.946 952.021 423.952 941.365 423.952H928.046L926.714 422.62V377.332L928.046 376H956.684L958.016 374.668V328.222L959.348 326.89H1013.29L1014.63 328.222V374.668L1015.96 376H1048.67L1050 377.332V422.62L1048.67 423.952H1030.35C1019.7 423.952 1014.63 429.946 1014.63 440.602V484.732C1014.63 495.388 1019.7 500.05 1030.35 500.05H1048.67L1050 501.382V548.668L1048.67 550H959.348Z" fill="black"/>
<path d="M835 349.668L833.668 351H603.332L602 349.668V295.742L603.332 294.41H659.668L661 293.078V267.77C661 208.163 697.963 179.192 747.913 179.192C797.863 179.192 835 208.163 835 267.77V349.668ZM779.056 267.77C779.056 251.786 767.734 237.8 747.754 237.8C727.774 237.8 716.452 251.786 716.452 267.77C716.452 283.754 727.774 297.74 747.754 297.74C767.734 297.74 779.056 283.754 779.056 267.77Z" fill="black"/>
<path d="M908 173.16L906.668 174.492H870.332L869 173.16V131.868C869 119.547 863.305 114.552 854.314 112.554L850.318 111.555C840.328 109.224 835 114.885 835 124.875V134.532L833.668 135.864L662.332 184.482L661 183.15V125.874L759.901 103.563C766.894 101.898 770.557 98.235 770.557 92.241C770.557 86.247 766.894 82.584 759.901 80.919L661 58.608V1.332L662.332 0L906.668 69.9037L908 71.2357V173.16Z" fill="black"/>
</svg>