<svg viewBox="0 0 400 105" fill="none" width="100%" height="100%"><path d="M233.408 83.1665C234.481 83.1665 235.488 83.3226 236.43 83.6339C237.378 83.9452 238.233 84.4015 238.994 85.0033C239.756 85.5982 240.392 86.325 240.904 87.1828C241.417 88.0336 241.77 89.0054 241.963 90.0983H239.388C239.236 89.3582 238.97 88.7079 238.589 88.1476C238.216 87.5873 237.758 87.1171 237.218 86.7367C236.685 86.3493 236.094 86.0584 235.443 85.8647C234.793 85.671 234.114 85.574 233.408 85.574C232.121 85.574 230.955 85.8992 229.91 86.5494C228.871 87.1997 228.043 88.1582 227.427 89.4242C226.818 90.6902 226.514 92.2437 226.514 94.0837C226.514 95.9235 226.818 97.4765 227.427 98.7423C228.043 100.008 228.871 100.967 229.91 101.617C230.955 102.267 232.121 102.593 233.408 102.593C234.114 102.593 234.793 102.496 235.443 102.302C236.094 102.108 236.685 101.821 237.218 101.44C237.758 101.053 238.216 100.579 238.589 100.019C238.97 99.4517 239.236 98.8014 239.388 98.0682H241.963C241.77 99.1542 241.417 100.126 240.904 100.984C240.392 101.842 239.756 102.572 238.994 103.174C238.233 103.769 237.378 104.221 236.43 104.533C235.488 104.844 234.481 105 233.408 105C231.595 105 229.982 104.557 228.57 103.671C227.158 102.786 226.047 101.527 225.237 99.8944C224.427 98.2618 224.022 96.3249 224.022 94.0837C224.022 91.8423 224.427 89.9048 225.237 88.2722C226.047 86.6397 227.158 85.3808 228.57 84.4953C229.982 83.6098 231.595 83.1665 233.408 83.1665Z" fill="#212121"/><path d="M18.7278 104.709H16.1528V83.4572H18.7278V104.709Z" fill="#212121"/><path d="M55.5532 100.185H55.761V83.4572H58.2944V104.709H55.8025L44.2154 88.023H44.0077V104.709H41.4327V83.4572H43.9246L55.5532 100.185Z" fill="#212121"/><path d="M95.774 85.7401H89.0876V104.709H86.5126V85.7401H79.8262V83.4572H95.774V85.7401Z" fill="#212121"/><path d="M130.123 85.7401H119.866V92.921H129.459V95.204H119.866V102.426H130.29V104.709H117.291V83.4572H130.123V85.7401Z" fill="#212121"/><path fill-rule="evenodd" clip-rule="evenodd" d="M159.492 83.4572C161.153 83.4572 162.517 83.7409 163.583 84.308C164.649 84.8683 165.438 85.6404 165.95 86.6227C166.462 87.6049 166.718 88.7218 166.718 89.9737C166.718 91.2259 166.462 92.3368 165.95 93.3054C165.438 94.2737 164.652 95.0349 163.593 95.5883C163.329 95.7246 163.046 95.8438 162.745 95.9461L167.549 104.709H164.558L160.074 96.3958C159.898 96.4026 159.718 96.4081 159.534 96.4081H154.883V104.709H152.307V83.4572H159.492ZM154.883 94.0837H159.451C160.586 94.0837 161.499 93.9173 162.191 93.5854C162.89 93.2534 163.396 92.7824 163.707 92.1736C164.026 91.558 164.185 90.8246 164.185 89.9737C164.185 89.123 164.026 88.3793 163.707 87.743C163.389 87.1066 162.88 86.6152 162.181 86.2693C161.482 85.9165 160.558 85.7401 159.409 85.7401H154.883V94.0837Z" fill="#212121"/><path fill-rule="evenodd" clip-rule="evenodd" d="M204.998 104.709H202.298L200.16 98.6911H191.561L189.424 104.709H186.724L194.532 83.4572H197.19L204.998 104.709ZM192.372 96.4081H199.35L195.944 86.8197H195.778L192.372 96.4081Z" fill="#212121"/><path d="M278.452 85.7401H271.766V104.709H269.191V85.7401H262.504V83.4572H278.452V85.7401Z" fill="#212121"/><path d="M302.543 104.709H299.968V83.4572H302.543V104.709Z" fill="#212121"/><path d="M332.434 101.347H332.683L338.995 83.4572H341.695L333.887 104.709H331.229L323.422 83.4572H326.121L332.434 101.347Z" fill="#212121"/><path d="M375.382 85.7401H365.124V92.921H374.718V95.204H365.124V102.426H375.548V104.709H362.55V83.4572H375.382V85.7401Z" fill="#212121"/><path fill-rule="evenodd" clip-rule="evenodd" d="M256.568 0C265.997 0 273.879 3.08952 280.062 9.11399C286.244 15.1385 289.336 22.8621 289.336 32.1305C289.336 33.2117 289.335 34.2932 289.181 35.22C289.026 35.5288 289.026 35.8379 289.026 36.1468C288.872 36.919 288.872 37.5372 288.718 38.3095C288.718 38.6183 288.563 38.9275 288.563 39.2363C288.408 40.0086 288.253 40.9352 287.944 41.862C287.79 42.0164 287.789 42.0168 287.789 42.1712C287.635 43.0979 287.326 43.8701 287.017 44.6423C287.017 44.9511 286.863 45.2603 286.708 45.5691C286.554 46.187 286.244 46.651 285.935 47.2689C285.78 47.4235 285.626 47.7323 285.472 48.0411C285.008 48.659 284.544 49.4315 284.08 50.2038C282.844 51.903 281.453 53.6022 279.907 55.1469C277.28 57.7729 274.343 59.6267 271.097 61.1714C270.788 61.3258 270.479 61.4799 270.17 61.6343C269.552 61.9433 269.088 62.0983 268.624 62.2528C268.315 62.4071 267.852 62.5613 267.388 62.7157C267.079 62.8702 266.615 63.0251 266.152 63.1795C265.224 63.4884 264.452 63.6426 263.524 63.7971C263.215 63.7971 262.752 63.9516 262.442 63.9517C261.824 64.1061 261.051 64.2608 260.433 64.2609C260.124 64.2609 259.814 64.261 259.814 64.4155C258.733 64.57 257.805 64.5701 256.723 64.5701C255.641 64.5701 254.714 64.4155 253.632 64.4155C253.323 64.2611 253.014 64.2609 252.705 64.2609C252.086 64.1065 251.314 64.1061 250.695 63.9517C250.386 63.9516 249.922 63.7971 249.613 63.7971C248.686 63.6426 247.759 63.334 246.986 63.1795C246.677 63.025 246.213 62.8702 245.75 62.7157C245.286 62.5612 244.976 62.4072 244.513 62.2528C243.895 62.0983 243.431 61.7888 242.968 61.6343C242.659 61.4799 242.349 61.3258 242.04 61.1714C238.795 59.7811 235.858 57.7729 233.231 55.1469C231.531 53.6022 230.294 51.903 229.057 50.2038C228.594 49.5859 228.13 48.8134 227.666 48.0411C227.512 47.8866 227.357 47.5777 227.203 47.2689C226.894 46.8055 226.739 46.187 226.429 45.5691C226.429 45.2603 226.275 44.9512 226.121 44.6423C225.812 43.87 225.657 42.9435 225.347 42.1712C225.193 42.0168 225.194 42.0164 225.194 41.862C224.885 41.0897 224.729 40.163 224.575 39.2363C224.575 38.9275 224.42 38.6183 224.42 38.3095C224.266 37.5372 224.112 36.919 224.112 36.1468C223.957 35.8379 223.957 35.5288 223.957 35.22C223.802 34.1388 223.802 33.2117 223.802 32.1305C223.802 22.8621 226.894 15.1385 233.076 9.11399C239.104 2.93513 246.986 7.89669e-05 256.568 0ZM239.259 50.5122H273.416V14.3654H239.259V50.5122Z" fill="#212121"/><path d="M189.335 0.462944C197.682 0.462944 204.173 2.77999 208.81 7.41418C213.447 12.0483 215.765 18.3819 215.92 26.4143V63.3341H200.618V14.3654H178.362V63.3341H163.06V26.4143C163.06 18.3819 165.224 12.0483 169.861 7.41418C174.497 2.77999 180.989 0.462967 189.335 0.462944Z" fill="#212121"/><path d="M353.323 0.308335C354.095 0.308335 354.714 0.462911 355.487 0.462944H356.105C356.569 0.463006 357.032 0.617498 357.496 0.617554C357.805 0.772027 358.115 0.772163 358.269 0.772163C358.888 0.926602 359.506 1.08067 360.124 1.23511C363.679 2.16196 366.616 3.86125 369.243 6.33279C372.798 9.88565 374.807 14.9835 375.271 21.4712C375.425 22.3981 375.425 23.3256 375.579 24.2524V63.3341H360.124V14.3654H344.05V63.3341H328.748V14.3654H312.674V63.0249H297.218V24.0978C297.218 23.171 297.373 22.2435 297.373 21.3166C297.373 20.5446 297.373 19.9269 297.527 19.1548V18.8455C297.836 17.1465 298.146 15.6019 298.609 14.2117C299.537 11.1222 301.082 8.34095 303.246 6.33279C305.719 3.86127 308.81 2.16194 312.365 1.23511C312.983 1.08066 313.601 0.926614 314.219 0.772163C314.528 0.617758 314.683 0.617554 314.992 0.617554C315.456 0.617554 315.92 0.462963 316.383 0.462944H317.001C317.774 0.308489 318.393 0.308335 319.165 0.308335C326.893 0.308335 332.457 3.08925 336.167 8.65017H336.321C340.031 3.0892 345.595 0.308428 353.323 0.308335Z" fill="#212121"/><path fill-rule="evenodd" clip-rule="evenodd" d="M31.5304 1.69893C42.0402 1.69898 50.2315 4.32514 55.9501 9.73155C61.6688 15.2926 64.4513 22.8622 64.4513 32.2851C64.4512 41.8623 61.6688 49.2767 55.9501 54.8377C50.2315 60.3986 42.1948 63.1795 31.5304 63.1795H15.3016V50.6668H0V1.69893H31.5304ZM15.3016 50.5122H46.832V14.3654H15.3016V50.5122Z" fill="#212121"/><path d="M88.4078 63.1795H73.1063V23.0165H88.4078V63.1795Z" fill="#212121"/><path fill-rule="evenodd" clip-rule="evenodd" d="M127.048 1.69893C135.394 1.69894 141.886 4.01596 146.523 8.65017C151.159 13.2843 153.323 19.6177 153.478 27.3411L153.323 63.1795H115.765C110.355 63.025 105.873 61.1709 102.318 57.618C98.4543 53.9107 96.5996 49.1223 96.5996 43.2526C96.5996 37.5372 98.4542 32.5937 102.318 28.8863C105.873 25.4879 110.355 23.6338 115.765 23.3248H137.712L137.558 14.3654H104.019V1.69893H127.048ZM110.819 50.5122H137.867V35.6829H110.819V50.5122Z" fill="#212121"/><path d="M400 63.1795H384.698V23.0165H400V63.1795Z" fill="#212121"/><path d="M88.4078 14.3654H73.1063V1.85354H88.4078V14.3654Z" fill="#212121"/><path d="M400 14.3654H384.698V1.85354H400V14.3654Z" fill="#212121"/></svg>