<svg viewBox="0 0 109 60" fill="none" width="100%" height="100%">
<path fill-rule="evenodd" clip-rule="evenodd" d="M9.01953 24.4395C9.26645 23.1422 9.63929 21.9541 10.1387 20.875C11.1265 18.7405 12.4578 16.9901 14.1328 15.624C15.8077 14.2154 17.6544 13.1911 19.6729 12.5508C21.7344 11.8677 23.7959 11.5254 25.8574 11.5254C28.8208 11.5254 31.5911 12.1231 34.168 13.3184C36.7878 14.5137 38.8924 16.371 40.4814 18.8896C41.336 20.1862 41.964 21.6883 42.3711 23.3945C42.6708 21.966 43.1026 20.656 43.6709 19.4658C44.8734 16.9045 46.5489 14.9413 48.6963 13.5752C50.8866 12.2092 53.3774 11.5254 56.1689 11.5254C57.9727 11.5254 59.5192 11.8243 60.8076 12.4219C62.139 13.0195 63.2553 13.8101 64.1572 14.792C65.0591 15.7311 65.7893 16.798 66.3477 17.9932V12.2939H74.9805L74.9541 25.25C75.1893 23.6333 75.6074 22.175 76.209 20.875C77.1968 18.7406 78.5282 16.9901 80.2031 15.624C81.8781 14.2153 83.7256 13.1911 85.7441 12.5508C87.8056 11.8678 89.8673 11.5254 91.9287 11.5254C94.892 11.5254 97.6625 12.1231 100.239 13.3184C102.859 14.5136 104.963 16.3712 106.552 18.8896C108.184 21.3656 109 24.5886 109 28.5586C109 31.5041 108.506 34.0443 107.519 36.1787C106.574 38.3132 105.285 40.0854 103.653 41.4941C102.021 42.9028 100.175 43.9488 98.1133 44.6318C96.0948 45.2721 94.033 45.5918 91.9287 45.5918C88.9654 45.5918 86.1735 44.9941 83.5537 43.7988C80.9339 42.6035 78.8078 40.7462 77.1758 38.2275C76.0233 36.4489 75.28 34.319 74.9414 31.8379L74.916 44.8232C74.916 47.8542 74.2288 50.5011 72.8545 52.7637C71.5231 55.0689 69.5475 56.8401 66.9277 58.0781C64.3079 59.3588 61.044 60 57.1357 60C54.5588 60 52.1962 59.6151 50.0488 58.8467C47.9016 58.121 46.0763 57.0967 44.5732 55.7734C43.0702 54.4929 41.9538 53.0201 41.2236 51.3555L48.1807 46.6807C48.6531 47.6625 49.3188 48.6233 50.1777 49.5625C51.0796 50.5016 52.1325 51.2488 53.335 51.8037C54.5803 52.4012 55.912 52.7002 57.3291 52.7002C60.0777 52.7002 62.2254 52.0164 63.7715 50.6504C65.3603 49.327 66.1543 47.3844 66.1543 44.8232V39.7646C65.6389 40.9172 64.9097 41.9424 63.9648 42.8389C63.0629 43.6927 61.9242 44.3537 60.5498 44.8232C59.2184 45.3355 57.6505 45.5918 55.8467 45.5918C53.0552 45.5917 50.6073 44.9089 48.5029 43.543C46.3985 42.1769 44.7661 40.2345 43.6064 37.7158C43.0457 36.4772 42.6226 35.1282 42.333 33.6699C42.1037 34.5605 41.8091 35.3969 41.4473 36.1787C40.5024 38.3132 39.2141 40.0854 37.582 41.4941C35.9501 42.9027 34.1034 43.9489 32.042 44.6318C30.0235 45.2722 27.9619 45.5918 25.8574 45.5918C22.894 45.5918 20.1023 44.9941 17.4824 43.7988C14.8626 42.6035 12.7365 40.7462 11.1045 38.2275C10.0996 36.6766 9.40562 34.8585 9.01953 32.7734V44.8232H0V0H9.01953V24.4395ZM58.875 18.5693C57.3289 18.5693 55.976 19.0176 54.8164 19.9141C53.6997 20.8105 52.819 22.0276 52.1748 23.5645C51.5736 25.0585 51.2734 26.7448 51.2734 28.623C51.2735 30.6721 51.5735 32.4652 52.1748 34.002C52.819 35.496 53.6998 36.6489 54.8164 37.46C55.976 38.271 57.3289 38.6758 58.875 38.6758C60.3352 38.6331 61.6021 38.2066 62.6758 37.3955C63.7924 36.5844 64.6517 35.4316 65.2529 33.9375C65.8971 32.4008 66.2187 30.6293 66.2188 28.623C66.2188 26.7448 65.8971 25.0585 65.2529 23.5645C64.6517 22.0276 63.7924 20.8105 62.6758 19.9141C61.6021 19.0177 60.3352 18.5693 58.875 18.5693ZM25.8574 19.21C23.3664 19.21 21.4339 20.0639 20.0596 21.7715C18.7282 23.479 18.0625 25.7412 18.0625 28.5586C18.0625 31.4187 18.7282 33.7026 20.0596 35.4102C21.4339 37.075 23.3664 37.9082 25.8574 37.9082C28.4773 37.9082 30.4098 37.075 31.6553 35.4102C32.9007 33.7026 33.5234 31.4187 33.5234 28.5586C33.5234 25.7413 32.9007 23.479 31.6553 21.7715C30.4527 20.0639 28.5202 19.21 25.8574 19.21ZM91.9287 19.21C89.4377 19.21 87.5042 20.0639 86.1299 21.7715C84.7987 23.479 84.1329 25.7414 84.1328 28.5586C84.1328 31.4186 84.7987 33.7026 86.1299 35.4102C87.5042 37.075 89.4377 37.9082 91.9287 37.9082C94.5484 37.9081 96.4811 37.075 97.7266 35.4102C98.9719 33.7026 99.5947 31.4186 99.5947 28.5586C99.5947 25.7414 98.9719 23.479 97.7266 21.7715C96.5241 20.064 94.5913 19.2101 91.9287 19.21Z" fill="#111827"/>
</svg>