<svg width="40" height="40" viewBox="0 0 40 40" fill="none" xmlns="http://www.w3.org/2000/svg">
<path d="M1.8648 40L1.78869 39.9239V33.7206C1.78869 33.1117 1.44617 32.7691 0.837258 32.7691H0.0761143L0 32.693V30.1333L0.0761143 30.0571H1.71257L1.78869 29.981L1.79022 26.7618L1.86633 26.6857H7.02307L7.09919 26.7618L7.09766 28.8493L7.02154 28.9254H5.97497C5.328 28.9254 5.02354 29.2579 5.02354 29.9049V29.981L5.09966 30.0571H7.02154L7.09766 30.1333V32.693L7.02154 32.7691H5.97497C5.36606 32.7691 5.02354 33.1117 5.02354 33.7206V39.9239L4.94743 40H1.8648Z" fill="#0F0E0E"/>
<path d="M12.0985 40C8.6924 40 7.03692 37.8969 7.03692 35.0426C7.03692 32.1883 8.6924 30.0571 12.0985 30.0571H16.9698L17.0459 30.1333V39.9239L16.9698 40H12.0985ZM12.0985 36.8032C13.0119 36.8032 13.8111 36.1562 13.8111 35.0145C13.8111 33.8728 13.0119 33.2258 12.0985 33.2258C11.1851 33.2258 10.3859 33.8728 10.3859 35.0145C10.3859 36.1562 11.1851 36.8032 12.0985 36.8032Z" fill="#0F0E0E"/>
<path d="M27.5709 30.0571L27.647 30.1333V39.9239L27.5709 40H18.5513L18.4752 39.9239V30.1333L18.5513 30.0571H21.6339L21.7101 30.1333V35.6615C21.7101 36.5178 22.1858 36.9935 23.0421 36.9935H23.0801C23.9364 36.9935 24.4121 36.5178 24.4121 35.6615V30.1333L24.4882 30.0571H27.5709Z" fill="#0F0E0E"/>
<path d="M29.1513 40L29.0752 39.9239V26.7618L29.1513 26.6857H32.2339L32.31 26.7618V36.0421C32.31 36.651 32.6526 36.9935 33.2615 36.9935H33.3186L33.3947 37.0696V39.9239L33.3186 40H29.1513Z" fill="#0F0E0E"/>
<path d="M34.8199 40L34.7437 39.9239V33.7487C34.7437 33.1398 34.4012 32.7973 33.7923 32.7973H33.0312L32.9551 32.7211V30.1333L33.0312 30.0571H34.6676L34.7437 29.981V27.327L34.8199 27.2509H37.9025L37.9786 27.327V29.981L38.0547 30.0571H39.9239L40 30.1333V32.7211L39.9239 32.7973H38.8773C38.2684 32.7973 37.9786 33.1398 37.9786 33.7487V36.2704C37.9786 36.8793 38.2684 37.1457 38.8773 37.1457H39.9239L40 37.2218V39.9239L39.9239 40H34.8199Z" fill="#0F0E0E"/>
<path d="M13.0222 28.9143C9.61609 28.9143 7.9606 26.7641 7.9606 23.9098C7.9606 21.0555 9.61609 18.9714 13.0222 18.9714H14.4487L14.5248 18.8953V15.5047L14.6009 15.4286H17.6836L17.7597 15.5047V28.8382L17.6836 28.9143H13.0222ZM13.0222 25.7175C13.9356 25.7175 14.7348 25.0705 14.7348 23.9288C14.7348 22.7871 13.9356 22.1401 13.0222 22.1401C12.1088 22.1401 11.3096 22.7871 11.3096 23.9288C11.3096 25.0705 12.1088 25.7175 13.0222 25.7175Z" fill="#0F0E0E"/>
<path d="M23.3997 29.1997C20.4312 29.1997 18.5664 27.0114 18.5664 23.9288C18.5664 20.8462 20.317 18.6579 23.2855 18.6579C25.8734 18.6579 27.8524 20.2373 27.8524 23.4911V24.8612L27.7762 24.9373H22.6956C22.277 24.9373 22.0106 25.1657 22.0106 25.5843C22.0106 26.1361 22.4673 26.5738 23.3236 26.5738C23.9705 26.5738 24.3511 26.3264 24.4272 25.9649L24.5033 25.8887H27.586L27.6621 25.9649C27.4528 27.9629 25.6641 29.1997 23.3997 29.1997ZM23.9134 23.0725C24.3321 23.0725 24.5604 22.8061 24.5604 22.3875C24.5604 21.7786 24.0466 21.3219 23.3045 21.3219C22.5624 21.3219 22.0486 21.7786 22.0486 22.3875C22.0486 22.8061 22.277 23.0725 22.6956 23.0725H23.9134Z" fill="#0F0E0E"/>
<path d="M8.87611 13.4857L8.8 13.4096V0.0761144L8.87611 0H11.9576L12.0337 0.0761144V3.46674L12.1098 3.54286H13.556C16.9621 3.54286 18.6176 5.65503 18.6176 8.50931C18.6176 11.3636 16.9621 13.4857 13.556 13.4857H8.87611ZM13.556 10.2889C14.4694 10.2889 15.2686 9.64194 15.2686 8.50023C15.2686 7.35851 14.4694 6.71154 13.556 6.71154C12.6426 6.71154 11.8434 7.35851 11.8434 8.50023C11.8434 9.64194 12.6426 10.2889 13.556 10.2889Z" fill="#0F0E0E"/>
<path d="M18.848 17.6571L18.7719 17.581V15.5047L18.848 15.4286H21.2075C21.9116 15.4286 22.197 15.1031 22.3112 14.5894L22.3683 14.361C22.5015 13.7902 22.178 13.4857 21.6071 13.4857H21.0553L20.9792 13.4096L18.201 3.61897L18.2771 3.54286H21.55L22.825 9.19434C22.9201 9.59394 23.1294 9.80326 23.4719 9.80326C23.8144 9.80326 24.0238 9.59394 24.1189 9.19434L25.3938 3.54286H28.6667L28.7428 3.61897L24.7483 17.581L24.6722 17.6571H18.848Z" fill="#0F0E0E"/>
</svg>
