<svg width="71" height="40" viewBox="0 0 71 40" fill="none" xmlns="http://www.w3.org/2000/svg">
<g clip-path="url(#clip0_8070_126)">
<path d="M2.82297 5.50377C2.07242 2.12113 1.90439 1.54061 0.806564 1.26151L0 1.03824V0.23444H10.1941V1.03824L9.33149 1.20569C7.49432 1.60759 7.66235 3.43846 8.17766 5.90567L12.7258 28.4008L16.0641 10.494L14.8542 4.35389C14.3949 2.17695 14.2157 1.48479 13.0731 1.19453L12.3225 1.03824V0.23444H22.8638V1.03824L21.598 1.27268C19.6936 1.61876 19.9849 3.68406 20.4441 5.91683L24.8242 28.4119L29.1483 7.12252C29.9549 2.70165 29.5516 1.61876 27.8264 1.27268L26.6166 1.03824V0.23444H33.9317V1.03824L33.1251 1.3285C31.9713 1.73039 31.68 2.82445 30.8847 6.60899L23.8608 40.0112H22.3597L16.949 13.9548L12.0536 40.0112H10.1493L2.82297 5.50377ZM43.2408 40C39.9025 40 38.7487 37.7003 37.6508 37.7003C37.0123 37.7003 36.273 37.8677 35.6904 39.7656H34.9959V26.6816H35.8585C36.553 34.0832 39.3088 38.7273 43.1736 38.7273C45.7613 38.7273 47.5536 36.3718 47.5536 32.1295C47.5536 23.1761 34.7158 19.3358 34.7158 9.41111C34.7158 4.0748 37.4268 0 42.311 0C45.4812 0 46.1086 2.06531 47.4304 2.06531C48.181 2.06531 48.6963 1.49595 48.9875 0.23444H49.6821V13.3184H48.8195C48.125 6.72063 46.3998 1.27268 42.255 1.27268C39.376 1.27268 38.8607 4.14178 38.8607 6.09545C38.8607 14.6469 51.6985 17.5719 51.6985 29.506C51.7097 35.5791 48.3714 40 43.2408 40ZM68.177 30.6447C68.177 36.7848 65.0628 40 60.2906 40C55.9666 40 53.4348 36.4946 53.4909 32.6542C53.5469 29.6735 55.7313 28.1775 57.5237 28.4119C58.7895 28.5794 60.0554 29.506 59.8873 31.5155C59.7193 34.3846 56.6051 34.273 56.4931 36.048C56.381 37.1421 57.8149 38.7497 59.6633 38.7497C62.8896 38.7497 62.8896 34.6749 62.8896 31.5713V3.72872C62.8896 2.12113 62.3743 1.66341 61.1084 1.37315L59.6745 1.02707V0.23444H71.0224V1.03824L69.7566 1.38431C68.6027 1.67457 68.1994 2.18811 68.1994 3.7957L68.177 30.6447Z" fill="black"/>
</g>
<defs>
<clipPath id="clip0_8070_126">
<rect width="71" height="40" fill="white"/>
</clipPath>
</defs>
</svg>
