<svg width="24" height="24" viewBox="0 0 24 24" fill="none">
<path d="M19.1504 8.40039L10.5498 17L5.84961 12.2998L7.27539 10.875L9.13574 12.7354C9.91679 13.5164 11.1828 13.5164 11.9639 12.7354L17.7246 6.97461L19.1504 8.40039Z" fill="currentColor"/>
<path fill-rule="evenodd" clip-rule="evenodd" d="M12 0C18.6274 0 24 5.37258 24 12C24 18.6274 18.6274 24 12 24C5.37258 24 0 18.6274 0 12C0 5.37258 5.37258 0 12 0ZM12 2C6.47715 2 2 6.47715 2 12C2 17.5228 6.47715 22 12 22C17.5228 22 22 17.5228 22 12C22 6.47715 17.5228 2 12 2Z" fill="currentColor"/>
</svg>
