<svg width="24" height="24" viewBox="0 0 24 24" fill="none">
<path d="M5.55 24L2 20.45L3.4 19.05L4.81789 20.4679C5.20842 20.8584 5.84158 20.8584 6.23211 20.4679L9.775 16.925L11.175 18.35L5.55 24ZM13 22V20H22V22H13Z" fill="currentColor"/>
<path d="M5.55 16.075L2 12.525L3.4 11.125L4.81789 12.5429C5.20842 12.9334 5.84158 12.9334 6.23211 12.5429L9.775 9L11.175 10.425L5.55 16.075ZM13 14.075V12.075H22V14.075H13Z" fill="currentColor"/>
<path d="M5.55 8L2 4.45L3.4 3.05L4.81789 4.4679C5.20842 4.85842 5.84158 4.85842 6.23211 4.4679L9.775 0.925003L11.175 2.35L5.55 8ZM13 6V4H22V6H13Z" fill="currentColor"/>
</svg>
