<svg width="24" height="24" viewBox="0 0 24 24" fill="none">
<path d="M7.11035 15.4746C7.49955 16.0213 7.97779 16.4993 8.52441 16.8887L4.70703 20.707L3.29297 19.293L7.11035 15.4746Z" fill="currentColor"/>
<path d="M6.08496 11C6.03037 11.3253 6 11.6592 6 12C6 12.3408 6.03037 12.6747 6.08496 13H1V11H6.08496Z" fill="currentColor"/>
<path d="M8.52441 7.11035C7.97781 7.49958 7.49958 7.97781 7.11035 8.52441L3.29297 4.70703L4.70703 3.29297L8.52441 7.11035Z" fill="currentColor"/>
<path d="M20.707 4.70703L16.8887 8.52441C16.4993 7.97779 16.0213 7.49955 15.4746 7.11035L19.293 3.29297L20.707 4.70703Z" fill="currentColor"/>
<path d="M13 6.08398C12.6747 6.02941 12.3408 6 12 6C11.6592 6 11.3253 6.02941 11 6.08398V1H13V6.08398Z" fill="currentColor"/>
<path fill-rule="evenodd" clip-rule="evenodd" d="M24 14.5L17.5 17.5L14.5 24L10 10L24 14.5ZM14.834 18.502L15.9932 15.9932L18.502 14.834L13.0957 13.0957L14.834 18.502Z" fill="currentColor"/>
</svg>
