<svg viewBox="0 0 24 24" fill="none" width="100%" height="100%">
<path fill-rule="evenodd" clip-rule="evenodd" d="M12 8C14.2091 8 16 9.79086 16 12C16 14.2091 14.2091 16 12 16C9.79086 16 8 14.2091 8 12C8 9.79086 9.79086 8 12 8ZM12 10C10.8954 10 10 10.8954 10 12C10 13.1046 10.8954 14 12 14C13.1046 14 14 13.1046 14 12C14 10.8954 13.1046 10 12 10Z" fill="currentColor"/>
<path fill-rule="evenodd" clip-rule="evenodd" d="M15.1504 5.2002C15.3669 5.28349 15.5712 5.38341 15.7627 5.5C15.9543 5.61664 16.1419 5.74171 16.3252 5.875L19.2998 4.625L22.0498 9.375L19.4746 11.3252C19.4912 11.4417 19.5 11.5539 19.5 11.6621V12.3379C19.5 12.446 19.4834 12.5584 19.4502 12.6748L22.0254 14.625L19.2754 19.375L16.3252 18.125C16.1419 18.2583 15.95 18.3833 15.75 18.5C15.5501 18.6166 15.3502 18.7165 15.1504 18.7998L14.75 22H9.25L8.84961 18.7998C8.63308 18.7165 8.42886 18.6166 8.2373 18.5C8.04568 18.3834 7.8581 18.2583 7.6748 18.125L4.7002 19.375L1.9502 14.625L4.52539 12.6748C4.50876 12.5583 4.50002 12.4461 4.5 12.3379V11.6621C4.50002 11.5539 4.50876 11.4417 4.52539 11.3252L1.9502 9.375L4.7002 4.625L7.6748 5.875C7.85814 5.74167 8.05 5.61667 8.25 5.5C8.44987 5.38341 8.64974 5.28349 8.84961 5.2002L9.25 2H14.75L15.1504 5.2002ZM10.6748 6.65039C10.1582 6.78372 9.67891 6.97901 9.2373 7.2373C8.79577 7.49556 8.39197 7.80828 8.02539 8.1748L5.5498 7.15039L4.5752 8.84961L6.72461 10.4502C6.64133 10.7001 6.58313 10.9503 6.5498 11.2002C6.51649 11.4501 6.5 11.7167 6.5 12C6.5 12.2667 6.51647 12.5254 6.5498 12.7754C6.58315 13.0253 6.64132 13.2755 6.72461 13.5254L4.5752 15.1504L5.5498 16.8496L8.02539 15.7998C8.39202 16.1831 8.79569 16.5044 9.2373 16.7627C9.67891 17.021 10.1582 17.2163 10.6748 17.3496L11 20H12.9746L13.3252 17.3496C13.8417 17.2163 14.3211 17.021 14.7627 16.7627C15.2042 16.5044 15.608 16.1917 15.9746 15.8252L18.4502 16.8496L19.4248 15.1504L17.2754 13.5254C17.3587 13.2921 17.4169 13.0454 17.4502 12.7871C17.4835 12.5289 17.5 12.2665 17.5 12C17.5 11.7335 17.4835 11.4711 17.4502 11.2129C17.4169 10.9546 17.3587 10.7079 17.2754 10.4746L19.4248 8.84961L18.4502 7.15039L15.9746 8.2002C15.608 7.81692 15.2043 7.49561 14.7627 7.2373C14.3211 6.97903 13.8417 6.78372 13.3252 6.65039L13 4H11.0254L10.6748 6.65039Z" fill="currentColor"/>
</svg>