<svg width="100%" height="100%" viewBox="0 0 24 24" fill="none">
<path d="M13 7V14H11V7H13Z" fill="currentColor"/>
<path d="M12 18C12.35 18 12.6458 17.8792 12.8875 17.6375C13.1292 17.3958 13.25 17.1 13.25 16.75C13.25 16.4 13.1292 16.1042 12.8875 15.8625C12.6458 15.6208 12.35 15.5 12 15.5C11.65 15.5 11.3542 15.6208 11.1125 15.8625C10.8708 16.1042 10.75 16.4 10.75 16.75C10.75 17.1 10.8708 17.3958 11.1125 17.6375C11.3542 17.8792 11.65 18 12 18Z" fill="currentColor"/>
<path fill-rule="evenodd" clip-rule="evenodd" d="M12 0C18.6274 0 24 5.37258 24 12C24 18.6274 18.6274 24 12 24C5.37258 24 0 18.6274 0 12C0 5.37258 5.37258 0 12 0ZM12 2C6.47715 2 2 6.47715 2 12C2 17.5228 6.47715 22 12 22C17.5228 22 22 17.5228 22 12C22 6.47715 17.5228 2 12 2Z" fill="currentColor"/>
</svg>
