<svg width="24" height="24" viewBox="0 0 24 24" fill="none">
<path d="M12 2C12.6413 2 13.2682 2.06236 13.876 2.17773L13.6543 4.17188C13.1205 4.05963 12.5672 4 12 4C7.58173 4 4.00001 7.58173 4 12C4 16.4183 7.58172 20 12 20C16.4183 20 20 16.4183 20 12C20 11.4324 19.9396 10.8789 19.8271 10.3447L21.8213 10.123C21.9368 10.7312 22 11.3583 22 12C22 17.5228 17.5228 22 12 22C6.47715 22 2 17.5228 2 12C2.00001 6.47716 6.47716 2 12 2Z" fill="currentColor"/>
<path d="M12 6C12.4938 6 12.9735 6.06036 13.4326 6.17285L13.4141 6.34277L11.749 8.00781C9.65681 8.13734 8.00001 9.87516 8 12C8 14.2091 9.79086 16 12 16C14.1252 16 15.8621 14.3427 15.9912 12.25L17.6572 10.5859L17.8262 10.5664C17.9388 11.0259 18 11.5058 18 12C18 15.3137 15.3137 18 12 18C8.68629 18 6 15.3137 6 12C6.00001 8.6863 8.6863 6 12 6Z" fill="currentColor"/>
<path fill-rule="evenodd" clip-rule="evenodd" d="M19.7344 4.29883L23.96 5.69629L21.1924 8.46484L16.2422 9.1709L13.9297 11.4834C13.9738 11.6484 14 11.8211 14 12C14 13.1046 13.1046 14 12 14C10.8954 14 10 13.1046 10 12C10 10.8954 10.8954 10 12 10C12.1785 10 12.351 10.0255 12.5156 10.0693L14.8281 7.75781L15.5352 2.80762L18.3037 0.0400391L19.7344 4.29883ZM17.4209 3.75098L16.9492 7.0498L20.249 6.5791L20.251 6.57715L18.1562 5.88379L17.4355 3.73633L17.4209 3.75098Z" fill="currentColor"/>
</svg>
