<svg width="24" height="24" viewBox="0 0 24 24" fill="none">
<path fill-rule="evenodd" clip-rule="evenodd" d="M13.9998 1C14.9998 5.49998 18.9998 9.50002 19.4998 14C19.9998 18.5 17.4998 23 11.9998 23C6.50009 22.9998 3.49982 19.4998 3.99979 14.5C4.4998 9.50011 9.49988 4.00005 13.9998 1ZM11.9593 14.4776C11.7618 14.2076 11.3599 14.1792 11.1591 14.4467C10.8387 14.8734 10.5591 15.3201 10.3279 15.7744C9.6075 17.1902 9.464 18.4438 9.69608 19.2744C9.85023 19.826 10.4998 20.3852 11.7547 20.3145C13.0092 20.2436 13.7443 19.5862 13.8943 18.9375C13.9675 18.6209 13.9998 18.299 13.9998 18C13.9998 17.1653 13.5975 16.5485 12.6873 15.4092C12.4757 15.1443 12.2201 14.8342 11.9593 14.4776ZM13.2631 4.85771C13.1218 4.5558 12.7325 4.46285 12.4812 4.68177C11.2622 5.74346 10.0846 6.9543 9.07011 8.23926C7.30792 10.4714 6.18615 12.738 5.99003 14.6992C5.84378 16.1621 6.07881 17.7219 6.9316 18.903C7.15652 19.2145 7.60418 18.9647 7.59614 18.5805C7.53769 15.7882 9.53868 12.3889 12.4998 10.5C12.4998 13.5 15.9997 14.7618 15.9998 18C15.9998 18.1921 15.9925 18.3865 15.9758 18.5806C15.9494 18.8881 16.3295 19.0939 16.5041 18.8394C17.4087 17.5202 17.6875 15.7954 17.5125 14.2207C17.3135 12.4306 16.4018 10.642 15.1912 8.47559C14.5754 7.37371 13.8709 6.15682 13.2631 4.85771Z" fill="currentColor"/>
</svg>
