<svg width="24" height="24" viewBox="0 0 24 24" fill="none">
<path d="M12.0005 1C9.01319 1 8.63829 1.01306 7.46499 1.06646C6.29399 1.12008 5.49468 1.30548 4.79528 1.5775C4.07182 1.85846 3.45813 2.23429 2.84674 2.84594C2.23488 3.45735 1.85906 4.07106 1.57719 4.79431C1.30449 5.49396 1.11887 6.29352 1.06617 7.4641C1.01369 8.63743 0.999939 9.01258 0.999939 12C0.999939 14.9874 1.01323 15.3612 1.0664 16.5345C1.12025 17.7056 1.30564 18.5049 1.57742 19.2043C1.8586 19.9278 2.23442 20.5415 2.84605 21.1529C3.45722 21.7648 4.07091 22.1415 4.79391 22.4225C5.49376 22.6945 6.2933 22.8799 7.46407 22.9335C8.63737 22.9869 9.01205 23 11.9991 23C14.9867 23 15.3605 22.9869 16.5338 22.9335C17.7048 22.8799 18.505 22.6945 19.2048 22.4225C19.9281 22.1415 20.5408 21.7648 21.152 21.1529C21.7639 20.5415 22.1397 19.9278 22.4216 19.2045C22.692 18.5049 22.8776 17.7053 22.9326 16.5347C22.9853 15.3614 22.999 14.9874 22.999 12C22.999 9.01258 22.9853 8.63766 22.9326 7.46433C22.8776 6.29329 22.692 5.49396 22.4216 4.79454C22.1397 4.07106 21.7639 3.45735 21.152 2.84594C20.5402 2.23406 19.9283 1.85823 19.2042 1.5775C18.5029 1.30548 17.7032 1.12008 16.5322 1.06646C15.3589 1.01306 14.9853 1 11.9971 1H12.0005ZM11.0138 2.98229C11.3066 2.98183 11.6334 2.98229 12.0005 2.98229C14.9374 2.98229 15.2855 2.99283 16.4453 3.04554C17.5178 3.09458 18.0998 3.27379 18.4876 3.42435C19.0009 3.62373 19.3669 3.86206 19.7516 4.24706C20.1366 4.63206 20.3749 4.99873 20.5748 5.51206C20.7253 5.89935 20.9047 6.48144 20.9536 7.55393C21.0063 8.71352 21.0177 9.06185 21.0177 11.9975C21.0177 14.9331 21.0063 15.2814 20.9536 16.441C20.9045 17.5135 20.7253 18.0956 20.5748 18.4829C20.3754 18.9962 20.1366 19.3617 19.7516 19.7465C19.3666 20.1315 19.0011 20.3698 18.4876 20.5692C18.1003 20.7205 17.5178 20.8992 16.4453 20.9483C15.2858 21.001 14.9374 21.0124 12.0005 21.0124C9.06338 21.0124 8.71529 21.001 7.55574 20.9483C6.48327 20.8988 5.90121 20.7196 5.51324 20.569C4.99992 20.3696 4.63327 20.1313 4.24828 19.7463C3.86329 19.3613 3.62496 18.9955 3.42514 18.482C3.27458 18.0947 3.09515 17.5126 3.04633 16.4401C2.99363 15.2805 2.98309 14.9322 2.98309 11.9947C2.98309 9.05727 2.99363 8.71077 3.04633 7.55119C3.09538 6.47869 3.27458 5.8966 3.42514 5.50885C3.6245 4.99552 3.86329 4.62885 4.24828 4.24385C4.63327 3.85885 4.99992 3.62052 5.51324 3.42069C5.90098 3.26944 6.48327 3.09069 7.55574 3.04142C8.57046 2.99558 8.9637 2.98183 11.0138 2.97954V2.98229ZM17.872 4.80875C17.1433 4.80875 16.5521 5.39931 16.5521 6.12829C16.5521 6.85704 17.1433 7.44829 17.872 7.44829C18.6008 7.44829 19.192 6.85704 19.192 6.12829C19.192 5.39954 18.6008 4.80829 17.872 4.80829V4.80875ZM12.0005 6.35104C8.88097 6.35104 6.35173 8.88035 6.35173 12C6.35173 15.1196 8.88097 17.6478 12.0005 17.6478C15.1201 17.6478 17.6484 15.1196 17.6484 12C17.6484 8.88035 15.1198 6.35104 12.0003 6.35104H12.0005ZM12.0005 8.33333C14.0254 8.33333 15.6671 9.97485 15.6671 12C15.6671 14.0249 14.0254 15.6667 12.0005 15.6667C9.97544 15.6667 8.33397 14.0249 8.33397 12C8.33397 9.97485 9.97544 8.33333 12.0005 8.33333V8.33333Z" fill="currentColor"/>
</svg>
