<svg width="100%" height="100%" viewBox="0 0 24 24" fill="none">
<path d="M2 11.025H12.7608C13.6517 11.025 14.0979 9.94785 13.4679 9.31789L11.575 7.42499L12.975 5.99999L19 12.025L13 18.025L11.575 16.6L13.4535 14.7346C14.0868 14.1056 13.6414 13.025 12.7488 13.025H2L2 11.025Z" fill="currentColor"/>
<path d="M8.03784 22V16H10.0378V18C10.0378 19.1046 10.9333 20 12.0378 20H18.0378C19.1424 20 20.0378 19.1046 20.0378 18V6C20.0378 4.89543 19.1424 4 18.0378 4H12.0378C10.9333 4 10.0378 4.89543 10.0378 6V8H8.03784V2H22.0378V22H8.03784Z" fill="currentColor"/>
</svg>