<svg width="100%" height="100%" viewBox="0 0 24 24" fill="none">
<path d="M18 13H7.23922C6.34831 13 5.90214 14.0771 6.53211 14.7071L8.425 16.6L7.025 18.025L1 12L7 5.99999L8.425 7.42499L6.54652 9.29043C5.91317 9.91938 6.35857 11 7.25116 11H18V13Z" fill="currentColor"/>
<path d="M10.0378 22V16H12.0378V18C12.0378 19.1046 12.9333 20 14.0378 20H18.0378C19.1424 20 20.0378 19.1046 20.0378 18V6C20.0378 4.89543 19.1424 4 18.0378 4H14.0378C12.9333 4 12.0378 4.89543 12.0378 6V8H10.0378V2H22.0378V22H10.0378Z" fill="currentColor"/>
</svg>