<svg width="24" height="24" viewBox="0 0 24 24" fill="none">
<path d="M11.95 20C14.1833 20 16.0833 19.225 17.65 17.675C18.955 16.3838 19.696 14.7852 19.9237 13.0289C19.9809 12.5872 20.5386 12.3636 20.8536 12.6786L22.6 14.425L24 13.025L19 8.025L14 13.025L15.4 14.425L17.1464 12.6786C17.4614 12.3636 17.9757 12.5876 17.9004 13.0266C17.6923 14.2395 17.1531 15.3409 16.2375 16.25C15.0625 17.4167 13.6333 18 11.95 18C11.5167 18 11.0917 17.95 10.675 17.85C10.2583 17.75 9.85 17.6 9.45 17.4L7.95 18.9C8.58333 19.2667 9.23333 19.5417 9.9 19.725C10.5667 19.9083 11.25 20 11.95 20ZM5 15.975L10 10.975L8.6 9.575L6.85355 11.3214C6.53857 11.6364 6.02427 11.4124 6.09961 10.9734C6.30775 9.76047 6.84692 8.65908 7.7625 7.75C8.9375 6.58333 10.3667 6 12.05 6C12.4833 6 12.9083 6.05 13.325 6.15C13.7417 6.25 14.15 6.4 14.55 6.6L16.05 5.1C15.4167 4.73333 14.7667 4.45833 14.1 4.275C13.4333 4.09167 12.75 4 12.05 4C9.81667 4 7.91667 4.775 6.35 6.325C5.04496 7.61616 4.30402 9.21483 4.07632 10.9711C4.01905 11.4128 3.46143 11.6364 3.14645 11.3214L1.4 9.575L0 10.975L5 15.975Z" fill="currentColor"/>
</svg>
