<svg viewBox="0 0 24 24" fill="none" width="100%" height="100%">
<path d="M12.05 20C9.81667 20 7.91667 19.225 6.35 17.675C5.04496 16.3838 4.30402 14.7852 4.07632 13.0289C4.01905 12.5872 3.46143 12.3636 3.14645 12.6786L1.4 14.425L0 13.025L5 8.025L10 13.025L8.6 14.425L6.85355 12.6786C6.53857 12.3636 6.02427 12.5876 6.09961 13.0266C6.30775 14.2395 6.84692 15.3409 7.7625 16.25C8.9375 17.4167 10.3667 18 12.05 18C12.4833 18 12.9083 17.95 13.325 17.85C13.7417 17.75 14.15 17.6 14.55 17.4L16.05 18.9C15.4167 19.2667 14.7667 19.5417 14.1 19.725C13.4333 19.9083 12.75 20 12.05 20ZM19 15.975L14 10.975L15.4 9.575L17.1464 11.3214C17.4614 11.6364 17.9757 11.4124 17.9004 10.9734C17.6923 9.76047 17.1531 8.65908 16.2375 7.75C15.0625 6.58333 13.6333 6 11.95 6C11.5167 6 11.0917 6.05 10.675 6.15C10.2583 6.25 9.85 6.4 9.45 6.6L7.95 5.1C8.58333 4.73333 9.23333 4.45833 9.9 4.275C10.5667 4.09167 11.25 4 11.95 4C14.1833 4 16.0833 4.775 17.65 6.325C18.955 7.61616 19.696 9.21483 19.9237 10.9711C19.9809 11.4128 20.5386 11.6364 20.8536 11.3214L22.6 9.575L24 10.975L19 15.975Z" fill="currentColor"/>
</svg>