<svg viewBox="0 0 24 24" fill="none" width="100%" height="100%">
<path fill-rule="evenodd" clip-rule="evenodd" d="M16 3L14.5 8H23V12.5L19.5 21H2V8H7L14 1L16 3ZM9.29289 8.53426C9.10536 8.72179 9 8.97615 9 9.24136V17C9 18.1046 9.89543 19 11 19H16.8208C17.6312 19 18.3616 18.5109 18.6701 17.7615L21 12.1035V11C21 10.4477 20.5523 10 20 10H13.1555C12.4856 10 12.0052 9.35431 12.1976 8.71271L13.2907 5.06833C13.3504 4.86932 13.1046 4.72254 12.9577 4.86945L9.29289 8.53426ZM5 10C4.44772 10 4 10.4477 4 11V18C4 18.5523 4.44772 19 5 19H6C6.55228 19 7 18.5523 7 18V11C7 10.4477 6.55228 10 6 10H5Z" fill="currentColor"/>
</svg>