<svg viewBox="0 0 24 24" fill="none" width="100%" height="100%">
<path fill-rule="evenodd" clip-rule="evenodd" d="M8 21L9.5 16H1L1 11.5L4.5 3L22 3L22 16L17 16L10 23L8 21ZM14.7071 15.4657C14.8946 15.2782 15 15.0239 15 14.7586L15 7C15 5.89543 14.1046 5 13 5L7.17921 5C6.36877 5 5.63845 5.48908 5.32986 6.23847L3 11.8965L3 13C3 13.5523 3.44772 14 4 14L10.8445 14C11.5144 14 11.9948 14.6457 11.8024 15.2873L10.7093 18.9317C10.6496 19.1307 10.8954 19.2775 11.0423 19.1305L14.7071 15.4657ZM19 14C19.5523 14 20 13.5523 20 13V6C20 5.44772 19.5523 5 19 5H18C17.4477 5 17 5.44772 17 6V13C17 13.5523 17.4477 14 18 14H19Z" fill="currentColor"/>
</svg>