<svg viewBox="0 0 24 24" fill="none" width="100%" height="100%">
<path d="M12 12C13.1046 12 14 12.8954 14 14C14 14.7398 13.5971 15.3835 13 15.7295V18H11V15.7295C10.4029 15.3835 10 14.7398 10 14C10 12.8954 10.8954 12 12 12Z" fill="currentColor"/>
<path fill-rule="evenodd" clip-rule="evenodd" d="M12 0C14.7614 0 17 2.23858 17 5V6H15V5C15 3.34315 13.6569 2 12 2C10.3431 2 9 3.34315 9 5V7C9 7.55228 9.44772 8 10 8H20V22H4V8H7V5C7 2.23858 9.23858 0 12 0ZM8 10C6.89543 10 6 10.8954 6 12V18C6 19.1046 6.89543 20 8 20H16C17.1046 20 18 19.1046 18 18V12C18 10.8954 17.1046 10 16 10H8Z" fill="currentColor"/>
</svg>