<svg width="24" height="24" viewBox="0 0 24 24" fill="none">
<path d="M17 20H15V17C15 15.8954 14.1046 15 13 15H7C5.89543 15 5 15.8954 5 17V20H3V13H17V20Z" fill="currentColor"/>
<path d="M24 20H19V13H24V20Z" fill="currentColor"/>
<path fill-rule="evenodd" clip-rule="evenodd" d="M10.5 4C11.8486 4 13.0181 4.76324 13.6025 5.88086C13.608 5.89131 13.6138 5.9016 13.6191 5.91211C13.7177 6.10527 13.7987 6.30869 13.8604 6.52051C13.8657 6.53899 13.8709 6.55756 13.876 6.57617C13.8894 6.62548 13.9008 6.67543 13.9121 6.72559C13.9166 6.7455 13.9226 6.76511 13.9268 6.78516C13.9409 6.85345 13.9528 6.9225 13.9629 6.99219C13.9659 7.01262 13.9681 7.03317 13.9707 7.05371C13.9768 7.10127 13.9812 7.14913 13.9854 7.19727C13.9877 7.22487 13.9905 7.25249 13.9922 7.28027C13.9967 7.35296 14 7.42618 14 7.5C14 7.57283 13.9966 7.64507 13.9922 7.7168C13.9907 7.7413 13.9883 7.76567 13.9863 7.79004C13.9823 7.83921 13.9768 7.88795 13.9707 7.93652C13.9679 7.95901 13.9661 7.98156 13.9629 8.00391C13.9531 8.07157 13.9423 8.13872 13.9287 8.20508C13.9249 8.22343 13.9201 8.24152 13.916 8.25977C13.9034 8.31695 13.8894 8.37359 13.874 8.42969C13.8703 8.44311 13.8662 8.45637 13.8623 8.46973C13.4417 9.93078 12.0964 11 10.5 11C8.567 11 7 9.433 7 7.5C7 5.567 8.567 4 10.5 4ZM10.5 6C9.67157 6 9 6.67157 9 7.5C9 8.32843 9.67157 9 10.5 9C11.3284 9 12 8.32843 12 7.5C12 6.67157 11.3284 6 10.5 6Z" fill="currentColor"/>
<path d="M16.5 4C18.433 4 20 5.567 20 7.5C20 9.433 18.433 11 16.5 11C15.9624 11 15.4532 10.8787 14.998 10.6621C15.6282 9.76738 16 8.67753 16 7.5C16 6.32219 15.6285 5.23176 14.998 4.33691C15.4531 4.12046 15.9626 4 16.5 4Z" fill="currentColor"/>
</svg>
