<svg width="24" height="24" viewBox="0 0 24 24" fill="none" xmlns="http://www.w3.org/2000/svg">
<rect width="24" height="24" fill="#0F0E0E"/>
<path fill-rule="evenodd" clip-rule="evenodd" d="M8.80347 9.81906C9.03725 9.33442 9.35205 8.90375 9.74768 8.52681C10.1613 8.13192 10.6558 7.82655 11.2312 7.61116C11.8246 7.37785 12.49 7.26121 13.2272 7.2612C14.4141 7.2612 15.4393 7.54853 16.3025 8.12292C17.1657 8.6973 17.831 9.51395 18.2985 10.5729C18.7661 11.6319 19 12.9063 19 14.396C19 15.9038 18.7481 17.1965 18.2446 18.2734C17.759 19.3324 17.0758 20.1491 16.1947 20.7234C15.3135 21.2978 14.2793 21.5851 13.0924 21.5851C12.3911 21.5851 11.7617 21.4504 11.2043 21.1813C10.6468 20.912 10.1613 20.5618 9.74768 20.1311C9.35205 19.7003 9.03725 19.2426 8.80347 18.7579V21.2618H5L5.02697 2.41486H8.80347V9.81906ZM11.8785 10.169C11.2671 10.169 10.7276 10.3485 10.2601 10.7074C9.81049 11.0485 9.45078 11.5333 9.18103 12.1615C8.92929 12.7897 8.80348 13.5345 8.80347 14.396C8.80347 15.1858 8.92929 15.9039 9.18103 16.55C9.45078 17.1783 9.81049 17.6811 10.2601 18.058C10.7276 18.4349 11.2671 18.6234 11.8785 18.6234C12.5258 18.6234 13.0833 18.4349 13.5508 18.058C14.0364 17.6811 14.4051 17.1692 14.6568 16.523C14.9266 15.8769 15.0617 15.1678 15.0617 14.396C15.0617 13.5345 14.9266 12.7897 14.6568 12.1615C14.4051 11.5153 14.0364 11.0215 13.5508 10.6805C13.0833 10.3216 12.5258 10.1511 11.8785 10.169Z" fill="white"/>
</svg>
