<svg width="182" height="60" viewBox="0 0 182 60" fill="none" xmlns="http://www.w3.org/2000/svg">
<path fill-rule="evenodd" clip-rule="evenodd" d="M11.707 23.7842C12.4266 22.2925 13.3955 20.9669 14.6133 19.8066C15.8864 18.5912 17.4084 17.6513 19.1797 16.9883C21.0062 16.2702 23.054 15.9112 25.3232 15.9111C28.9765 15.9111 32.1322 16.7955 34.7891 18.5635C37.4457 20.3314 39.4935 22.845 40.9326 26.1045C42.3717 29.3641 43.0918 33.2866 43.0918 37.8721C43.0918 42.513 42.3165 46.4917 40.7666 49.8066C39.2722 53.066 37.169 55.5798 34.457 57.3477C31.7448 59.1156 28.5614 60 24.9082 60C22.7497 60 20.8125 59.5854 19.0967 58.7568C17.3809 57.9282 15.8863 56.8503 14.6133 55.5244C13.3955 54.1985 12.4266 52.7895 11.707 51.2979V59.0049H0L0.0830078 0.994141H11.707V23.7842ZM21.1719 24.8613C19.2901 24.8614 17.6295 25.4137 16.1904 26.5186C14.8066 27.5683 13.6994 29.0604 12.8691 30.9941C12.0943 32.9277 11.7071 35.2204 11.707 37.8721C11.707 40.3029 12.0943 42.5131 12.8691 44.502C13.6994 46.4357 14.8066 47.9833 16.1904 49.1436C17.6295 50.3036 19.2901 50.8838 21.1719 50.8838C23.1643 50.8838 24.8803 50.3035 26.3193 49.1436C27.8138 47.9833 28.9487 46.4079 29.7236 44.4189C30.5538 42.4301 30.9697 40.2476 30.9697 37.8721C30.9697 35.2203 30.5539 32.9277 29.7236 30.9941C28.9487 29.0052 27.8138 27.4853 26.3193 26.4355C24.8803 25.3308 23.1643 24.8061 21.1719 24.8613Z" fill="black"/>
<path fill-rule="evenodd" clip-rule="evenodd" d="M54.8857 33.2188C55.2326 30.5976 55.8779 28.2537 56.8252 26.1875C58.375 22.8727 60.5066 20.3314 63.2188 18.5635C65.9863 16.7956 69.1689 15.9112 72.7666 15.9111C75.0914 15.9111 77.1122 16.3256 78.8281 17.1543C80.544 17.983 81.9831 19.0608 83.1455 20.3867C84.3078 21.6574 85.2492 23.0664 85.9688 24.6133V16.9053H97.5928L97.5098 59.0049H85.9688V52.127C85.2492 53.6186 84.2802 54.9721 83.0625 56.1875C81.9001 57.3477 80.4333 58.2867 78.6621 59.0049C76.9462 59.6679 74.8424 60 72.3516 60C68.5878 60 65.3775 59.1155 62.7207 57.3477C60.0639 55.5798 58.043 53.0662 56.6592 49.8066C55.8022 47.7538 55.212 45.4672 54.8857 42.9482V59.0049H43.2617V0.994141H54.8857V33.2188ZM76.5029 25.0273C74.5104 25.0274 72.7669 25.6074 71.2725 26.7676C69.8333 27.9278 68.6984 29.5023 67.8682 31.4912C67.0933 33.4249 66.7061 35.6072 66.7061 38.0381C66.7061 40.69 67.0932 43.011 67.8682 45C68.6984 46.9335 69.8334 48.4249 71.2725 49.4746C72.7669 50.5243 74.5104 51.0488 76.5029 51.0488C78.3849 50.9936 80.0185 50.4413 81.4023 49.3916C82.8412 48.342 83.9478 46.8503 84.7227 44.917C85.5529 42.928 85.9688 40.6348 85.9688 38.0381C85.9687 35.6072 85.5529 33.4249 84.7227 31.4912C83.9478 29.5025 82.8413 27.9277 81.4023 26.7676C80.0185 25.6074 78.3849 25.0273 76.5029 25.0273Z" fill="black"/>
<path d="M151.445 31.5527L165.727 16.9053H180.505L165.662 33.1064L182 59.0049H168.051L156.817 41.0645L151.445 46.0664V59.0049L139.821 59.0879V0.0820312L151.445 0V31.5527Z" fill="black"/>
<path d="M122.364 15.9111C126.073 15.9112 129.089 16.6291 131.414 18.0654C133.794 19.5018 135.537 21.5188 136.645 24.1152C137.752 26.6567 138.306 29.5855 138.306 32.9004V59.0049H126.682V34.4746C126.682 31.3807 126.1 29.0606 124.938 27.5137C123.775 25.9667 122.004 25.1934 119.624 25.1934C117.355 25.1934 115.528 25.7457 114.145 26.8506C112.816 27.9003 111.847 29.4748 111.238 31.5742C110.685 33.6736 110.408 36.2149 110.408 39.1982V59.0049H98.7842V16.9053H110.408V23.3701C110.851 22.3756 111.459 21.4357 112.234 20.5518C113.009 19.6125 113.895 18.8114 114.892 18.1484C115.943 17.4303 117.106 16.8779 118.379 16.4912C119.652 16.1045 120.981 15.9111 122.364 15.9111Z" fill="black"/>
</svg>
