<svg width="120" height="120" viewBox="0 0 120 120" fill="none" xmlns="http://www.w3.org/2000/svg">
<rect width="120" height="120" fill="black"/>
<g clip-path="url(#clip0_4610_46)">
<path opacity="0.12793" fill-rule="evenodd" clip-rule="evenodd" d="M41.9268 78.9744H75.2195V41.0256H41.9268V78.9744ZM85.8248 84.1642C79.5936 90.163 70.457 93.2051 58.6668 93.2051H41.5425V81.9961H78.1553V37.0569H38.1626V78.6496H23.8537V25.8462H58.6668C70.4534 25.8462 79.59 28.8883 85.8248 34.887C92.0417 40.8734 95.1951 49.1631 95.1951 59.523C95.1951 69.89 92.0435 78.1797 85.8248 84.1642ZM59.1435 23H21V82.4547H38.6659V97H59.1435C71.8269 97 81.7453 93.6416 88.6202 87.0209C95.5078 80.386 99 71.2945 99 59.9973C99 48.7073 95.5078 39.6176 88.6202 32.9791C81.7417 26.3584 71.8234 23 59.1435 23Z" fill="white"/>
<path d="M58.769 23H21V82.4724H38.3737V97H58.6179C71.1572 97 80.9772 93.6708 87.7756 87.0123C94.574 80.3538 98.0488 71.274 98.0488 60.0757C98.0488 48.726 94.574 39.6462 87.7756 33.1391C81.1283 26.3292 71.3083 23 58.769 23ZM85.5095 84.4397C79.3154 90.4928 70.4019 93.5194 58.769 93.5194H41.9996V82.6237H78.1067V37.5276H38.5248V78.9918H24.6258V26.6319H58.769C70.4019 26.6319 79.3154 29.6585 85.5095 35.5603C91.5525 41.4622 94.7251 49.7853 94.7251 60.0757C94.574 70.3661 91.5525 78.5378 85.5095 84.4397ZM41.9996 78.9918V41.1595H74.4809V78.9918H41.9996Z" fill="white"/>
</g>
<defs>
<clipPath id="clip0_4610_46">
<rect width="78" height="74" fill="white" transform="translate(21 23)"/>
</clipPath>
</defs>
</svg>
