<svg width="324" height="53" viewBox="0 0 324 53" fill="none" xmlns="http://www.w3.org/2000/svg">
<path d="M311.534 51.1378H323.925V18.6297H311.534V51.1378Z" fill="black"/>
<path d="M311.534 11.6279H323.925V1.50038H311.534V11.6279Z" fill="black"/>
<path d="M25.5335 1.37534H0V41.0102H12.3913V11.6279H37.9247V40.8852H12.3913V51.1378H25.5335C34.1698 51.1378 40.6784 48.8872 45.3094 44.3861C49.9405 39.885 52.1935 33.8835 52.1935 26.1315C52.1935 18.5046 49.9405 12.3781 45.3094 7.87697C40.6784 3.50088 34.0447 1.37534 25.5335 1.37534Z" fill="black"/>
<path d="M59.2027 51.1378H71.5939V18.6297H59.2027V51.1378Z" fill="black"/>
<path d="M169.097 6.0015C165.342 2.25056 160.085 0.375094 153.326 0.375094C146.567 0.375094 141.31 2.25056 137.555 6.0015C133.801 9.75244 132.048 14.8787 132.048 21.3803V51.2628H144.439V11.6279H162.463V51.2628H174.854V21.3803C174.729 14.8787 172.852 9.75244 169.097 6.0015Z" fill="black"/>
<path d="M59.2027 11.6279H71.5939V1.50038H59.2027V11.6279Z" fill="black"/>
<path d="M210.902 52.013C211.402 52.013 212.028 51.888 212.529 51.7629C212.779 51.7629 213.155 51.6379 213.405 51.6379C214.156 51.5129 214.782 51.3878 215.533 51.1378C215.908 51.0127 216.284 50.8877 216.534 50.7627C216.91 50.6377 217.285 50.5126 217.535 50.3876C217.911 50.2626 218.286 50.1375 218.787 49.8875C219.037 49.7624 219.288 49.6374 219.538 49.5124C222.166 48.2621 224.545 46.7617 226.672 44.6362C227.924 43.3858 229.05 42.0105 230.052 40.6352C230.427 40.01 230.803 39.3848 231.178 38.8847C231.303 38.6347 231.429 38.3846 231.554 38.2596C231.804 37.7594 232.054 37.3843 232.18 36.8842C232.305 36.6342 232.43 36.3841 232.43 36.134C232.68 35.5089 232.931 34.8837 233.056 34.1335C233.056 34.0085 233.056 34.0085 233.181 33.8835C233.431 33.1333 233.556 32.3831 233.682 31.7579C233.682 31.5079 233.807 31.2578 233.807 31.0078C233.932 30.3826 233.932 29.8825 234.057 29.2573C234.057 29.0073 234.057 28.7572 234.182 28.5071C234.307 27.7569 234.307 26.8817 234.307 26.0065C234.307 18.5046 231.804 12.2531 226.798 7.37684C221.791 2.50063 215.408 0 207.773 0C200.012 0 193.629 2.37559 188.748 7.37684C183.741 12.2531 181.238 18.5046 181.238 26.0065C181.238 26.8817 181.238 27.6319 181.363 28.5071C181.363 28.7572 181.363 29.0073 181.488 29.2573C181.488 29.8825 181.613 30.3826 181.738 31.0078C181.738 31.2578 181.864 31.5079 181.864 31.7579C181.989 32.5081 182.114 33.2583 182.364 33.8835C182.364 34.0085 182.364 34.0085 182.489 34.1335C182.74 34.7587 182.865 35.5089 183.115 36.134C183.24 36.3841 183.366 36.6342 183.366 36.8842C183.616 37.3843 183.741 37.8845 183.991 38.2596C184.117 38.5096 184.242 38.7597 184.367 38.8847C184.742 39.5099 185.118 40.135 185.493 40.6352C186.495 42.0105 187.496 43.3858 188.873 44.6362C191.001 46.7617 193.379 48.3871 196.007 49.5124C196.257 49.6374 196.508 49.7624 196.758 49.8875C197.134 50.0125 197.509 50.2626 198.01 50.3876C198.385 50.5126 198.636 50.6377 199.011 50.7627C199.387 50.8877 199.762 51.0127 200.012 51.1378C200.638 51.2628 201.389 51.5129 202.14 51.6379C202.39 51.6379 202.766 51.7629 203.016 51.7629C203.517 51.888 204.143 51.888 204.643 52.013C204.894 52.013 205.144 52.013 205.394 52.138C206.271 52.138 207.022 52.2631 207.898 52.2631C208.774 52.2631 209.525 52.2631 210.401 52.138C210.401 52.013 210.651 52.013 210.902 52.013ZM193.754 40.8852V11.6279H221.415V40.8852H193.754Z" fill="black"/>
<path d="M303.899 17.3793C303.523 12.128 301.896 8.002 299.017 5.12628C296.889 3.12578 294.511 1.75044 291.633 1.00025C291.132 0.875219 290.631 0.750187 290.131 0.625156C290.005 0.625156 289.755 0.625156 289.505 0.500125C289.129 0.500125 288.754 0.375094 288.378 0.375094C288.253 0.375094 288.003 0.375094 287.878 0.375094C287.252 0.375094 286.751 0.250063 286.125 0.250063C279.867 0.250063 275.361 2.50063 272.357 7.00175H272.232C269.228 2.50063 264.722 0.250063 258.464 0.250063C257.838 0.250063 257.338 0.250062 256.712 0.375094C256.587 0.375094 256.336 0.375094 256.211 0.375094C255.836 0.375094 255.46 0.500125 255.085 0.500125C254.834 0.500125 254.709 0.500125 254.459 0.625156C253.958 0.750187 253.457 0.875219 252.957 1.00025C250.078 1.75044 247.575 3.12578 245.572 5.12628C243.82 6.75169 242.568 9.00225 241.817 11.5029C241.442 12.6282 241.191 13.8785 240.941 15.2538C240.941 15.3788 240.941 15.3788 240.941 15.5039C240.816 16.129 240.816 16.6292 240.816 17.2543C240.816 18.0045 240.691 18.7547 240.691 19.5049V51.0127H253.207V11.6279H266.224V51.2628H278.615V11.6279H291.633V51.2628H304.149V19.6299C304.024 18.8797 304.024 18.1295 303.899 17.3793Z" fill="black"/>
<path d="M118.656 7.00175C114.901 3.25081 109.644 1.37534 102.885 1.37534H84.2355V11.6279H111.396L111.521 18.8797H93.748C89.3672 19.1298 85.7375 20.6302 82.8587 23.3808C79.7296 26.3816 78.2276 30.3826 78.2276 35.0088C78.2276 39.7599 79.7296 43.6359 82.8587 46.6367C85.7375 49.5124 89.3672 51.0127 93.748 51.1378H124.163L124.288 22.1305C124.163 15.879 122.411 10.7527 118.656 7.00175ZM111.772 40.8852H89.7427V28.8822H111.646V40.8852H111.772Z" fill="black"/>
</svg>
