<svg viewBox="0 0 400 22" fill="none" width="100%" height="100%"><path fill-rule="evenodd" clip-rule="evenodd" d="M87.1819 0C90.3854 8.30179e-05 93.0641 1.05284 95.1647 3.10542C97.2651 5.158 98.3153 7.78925 98.3153 10.9469C98.3153 11.3153 98.3151 11.6845 98.2626 12.0003C98.2105 12.1053 98.2098 12.2105 98.2098 12.3155C98.1574 12.5784 98.1584 12.7891 98.106 13.052C98.106 13.157 98.0535 13.2622 98.0532 13.3672C98.0007 13.6303 97.9472 13.9472 97.8422 14.263C97.7903 14.315 97.7911 14.3155 97.7911 14.3675C97.7386 14.6833 97.6323 14.9471 97.5273 15.2102C97.5272 15.3152 97.4758 15.4204 97.4234 15.5254C97.3709 15.7358 97.2646 15.8939 97.1596 16.1043C97.1071 16.1569 97.0555 16.2629 97.003 16.3681C96.8455 16.5786 96.6874 16.8415 96.5298 17.1046C96.1098 17.6834 95.637 18.2622 95.112 18.7884C94.2192 19.6831 93.2209 20.3158 92.118 20.8421C92.0131 20.8947 91.908 20.9471 91.8031 20.9997C91.5931 21.1049 91.4347 21.1577 91.2771 21.2104C91.1722 21.2628 91.0154 21.3155 90.8584 21.368C90.7535 21.4205 90.5954 21.473 90.438 21.5255C90.1229 21.6308 89.8595 21.6836 89.5444 21.7362C89.4394 21.7364 89.2816 21.7893 89.1767 21.7893C88.9667 21.8419 88.7041 21.8938 88.4942 21.8938C88.3893 21.8938 88.285 21.8944 88.2848 21.9469C87.9174 21.9995 87.602 22 87.2346 22C86.8673 22 86.5517 21.947 86.1844 21.9469C86.0794 21.8943 85.9729 21.8938 85.8678 21.8938C85.6579 21.8414 85.3951 21.8419 85.1853 21.7893C85.0803 21.7892 84.9225 21.7362 84.8176 21.7362C84.5028 21.6836 84.1881 21.5782 83.9257 21.5255C83.8207 21.4729 83.6628 21.4206 83.5053 21.368C83.3478 21.3153 83.2425 21.263 83.0849 21.2104C82.8752 21.1578 82.7179 21.0524 82.5607 20.9997C82.4556 20.9471 82.3491 20.8947 82.2441 20.8421C81.1413 20.3684 80.1445 19.683 79.2518 18.7884C78.6741 18.2621 78.254 17.6835 77.8339 17.1046C77.6764 16.8942 77.5182 16.6312 77.3607 16.3681C77.3082 16.3155 77.2549 16.2096 77.2024 16.1043C77.0976 15.9465 77.0452 15.7357 76.9403 15.5254C76.9401 15.4203 76.8872 15.3153 76.8348 15.2102C76.7297 14.9471 76.6777 14.6306 76.5726 14.3675C76.5205 14.3152 76.5199 14.3153 76.5199 14.263C76.4148 13.9998 76.363 13.683 76.3105 13.3672C76.3103 13.2622 76.2578 13.157 76.2578 13.052C76.2053 12.789 76.1522 12.5785 76.1522 12.3155C76.0998 12.2105 76.0995 12.1053 76.0995 12.0003C76.0469 11.6319 76.0467 11.3153 76.0467 10.9469C76.0467 7.78905 77.0983 5.15805 79.199 3.10542C81.2472 1.00013 83.9257 0 87.1819 0ZM81.2994 17.2108H92.9061V4.89365H81.2994V17.2108Z" fill="currentColor"/><path d="M303.94 0.390533C305.096 0.390533 306.173 0.553734 307.167 0.880411C308.161 1.20699 309.047 1.68661 309.824 2.31922C310.602 2.94527 311.242 3.71461 311.742 4.62644C312.25 5.53151 312.581 6.56651 312.736 7.73015H308.942C308.834 7.10424 308.634 6.55003 308.343 6.06696C308.052 5.57694 307.69 5.162 307.257 4.82171C306.825 4.48147 306.331 4.22618 305.777 4.05606C305.229 3.87915 304.637 3.79056 304.001 3.79056C302.872 3.79064 301.871 4.07545 300.999 4.64699C300.126 5.21187 299.443 6.04348 298.949 7.13921C298.456 8.228 298.209 9.5584 298.209 11.1302C298.209 12.7294 298.456 14.0769 298.949 15.1725C299.45 16.2613 300.133 17.0844 300.999 17.6425C301.871 18.1937 302.869 18.4697 303.991 18.4698C304.613 18.4698 305.195 18.3881 305.736 18.2249C306.283 18.0547 306.775 17.8064 307.208 17.4798C307.647 17.1533 308.015 16.7516 308.313 16.2756C308.617 15.7992 308.827 15.2541 308.942 14.6415L312.736 14.6621C312.594 15.6557 312.286 16.5881 311.812 17.4592C311.346 18.3301 310.735 19.0996 309.977 19.7664C309.22 20.4266 308.333 20.944 307.319 21.3183C306.304 21.6857 305.177 21.8698 303.94 21.8698C302.114 21.8697 300.485 21.4442 299.052 20.5937C297.618 19.743 296.488 18.5138 295.663 16.9077C294.838 15.3016 294.425 13.3758 294.425 11.1302C294.425 8.87777 294.841 6.95192 295.673 5.35269C296.505 3.74653 297.638 2.51734 299.072 1.66661C300.505 0.816181 302.128 0.390664 303.94 0.390533Z" fill="currentColor"/><path d="M160.936 21.5838H157.172V0.676581H160.936V21.5838Z" fill="currentColor"/><path d="M183.872 14.9276H184.056V0.676581H187.798V21.5838H184.45L174.662 7.34304H174.488V21.5838H170.725V0.676581H174.093L183.872 14.9276Z" fill="currentColor"/><path d="M213.276 3.85051H206.855V21.5838H203.121V3.85051H196.7V0.676581H213.276V3.85051Z" fill="currentColor"/><path d="M235.697 3.85051H225.948V9.52694H234.998V12.7026H225.948V18.4081H235.779V21.5838H222.184V0.676581H235.697V3.85051Z" fill="currentColor"/><path fill-rule="evenodd" clip-rule="evenodd" d="M253.042 0.676581C254.638 0.676622 255.977 0.956139 257.059 1.51417C258.147 2.0721 258.969 2.85397 259.524 3.86079C260.085 4.86124 260.366 6.02966 260.366 7.36359C260.366 8.7041 260.081 9.8677 259.513 10.8544C258.952 11.8343 258.124 12.5932 257.028 13.1308C256.9 13.1931 256.767 13.2505 256.632 13.3055L261.127 21.5838H256.926L252.843 13.9273H249.015V21.5838H245.251V0.676581H253.042ZM249.015 10.7825H252.484C253.417 10.7825 254.181 10.654 254.776 10.3954C255.371 10.1299 255.811 9.74452 256.095 9.24089C256.386 8.73069 256.531 8.10489 256.531 7.36359C256.531 6.62178 256.386 5.98807 256.095 5.46403C255.805 4.93322 255.361 4.53212 254.766 4.25989C254.171 3.98085 253.403 3.84024 252.463 3.84024H249.015V10.7825Z" fill="currentColor"/><path fill-rule="evenodd" clip-rule="evenodd" d="M287.479 21.5838H283.462L281.741 16.4281H273.93L272.211 21.5838H268.194L275.508 0.676581H280.155L287.479 21.5838ZM274.945 13.386H280.725L277.913 4.96387H277.751L274.945 13.386Z" fill="currentColor"/><path d="M337.56 3.85051H331.138V21.5838H327.405V3.85051H320.983V0.676581H337.56V3.85051Z" fill="currentColor"/><path d="M350.232 21.5838H346.469V0.676581H350.232V21.5838Z" fill="currentColor"/><path d="M368.208 17.132H368.421L373.818 0.676581H377.956L370.632 21.5838H365.985L358.671 0.676581H362.8L368.208 17.132Z" fill="currentColor"/><path d="M399.918 3.85051H390.17V9.52694H399.219V12.7026H390.17V18.4081H400V21.5838H386.407V0.676581H399.918V3.85051Z" fill="currentColor"/><path d="M64.3362 0.157583C67.172 0.15767 69.3768 0.947617 70.9523 2.52647C72.5278 4.10542 73.3167 6.26254 73.3693 8.99938V21.5786H68.1693V4.89365H60.6069V21.5786H55.407V8.99938C55.407 6.26275 56.1431 4.10539 57.7184 2.52647C59.294 0.947503 61.5002 0.157583 64.3362 0.157583Z" fill="currentColor"/><path d="M120.058 0.104485C120.321 0.104485 120.531 0.157546 120.793 0.157583H121.004C121.162 0.15774 121.319 0.210576 121.476 0.210682C121.581 0.263314 121.687 0.262068 121.74 0.262068C121.95 0.314649 122.16 0.36707 122.37 0.419651C123.577 0.735375 124.575 1.31473 125.467 2.15649C126.675 3.36704 127.359 5.10508 127.517 7.31563C127.569 7.63127 127.568 7.94721 127.621 8.26285V21.5786H122.37V4.89365H116.907V21.5786H111.708V4.89365H106.245V21.4742H100.994V8.20975C100.994 7.89404 101.047 7.57825 101.047 7.26254C101.047 6.99954 101.046 6.78896 101.098 6.526V6.41981C101.203 5.84142 101.309 5.31558 101.466 4.84226C101.781 3.78962 102.307 2.84071 103.042 2.15649C103.882 1.31455 104.934 0.735404 106.142 0.419651C106.351 0.367096 106.562 0.314623 106.771 0.262068C106.876 0.209682 106.929 0.210682 107.034 0.210682C107.191 0.210682 107.349 0.157583 107.507 0.157583H107.716C107.979 0.10497 108.189 0.104485 108.451 0.104485C111.077 0.104485 112.968 1.05179 114.228 2.94612H114.281C115.542 1.05168 117.432 0.104561 120.058 0.104485Z" fill="currentColor"/><path fill-rule="evenodd" clip-rule="evenodd" d="M10.7131 0.578947C14.2843 0.578947 17.0693 1.47229 19.0125 3.31439C20.9557 5.20915 21.901 7.78943 21.901 11C21.9009 14.2628 20.9554 16.7893 19.0125 18.6839C17.0693 20.5787 14.3369 21.5255 10.7131 21.5255H5.19993V17.2622H0V0.578947H10.7131ZM5.19993 17.2108H15.913V4.89365H5.19993V17.2108Z" fill="currentColor"/><path d="M30.0405 21.5255H24.8422V7.84148H30.0405V21.5255Z" fill="currentColor"/><path fill-rule="evenodd" clip-rule="evenodd" d="M43.1705 0.578947C46.0064 0.578947 48.2127 1.36726 49.7883 2.94612C51.3637 4.52494 52.0982 6.68326 52.1508 9.31454L52.0981 21.5255H39.3374C37.4992 21.4729 35.9752 20.8417 34.7672 19.6311C33.4544 18.368 32.8251 16.7357 32.8251 14.7358C32.8253 12.7888 33.4547 11.1051 34.7672 9.84211C35.9752 8.6842 37.4992 8.05294 39.3374 7.94768H46.7943L46.7415 4.89365H35.3459V0.578947H43.1705ZM37.6557 17.2108H46.8471V12.1579H37.6557V17.2108Z" fill="currentColor"/><path d="M135.918 21.5255H130.72V7.84148H135.918V21.5255Z" fill="currentColor"/><path d="M30.0405 4.89365H24.8422V0.630333H30.0405V4.89365Z" fill="currentColor"/><path d="M135.918 4.89365H130.72V0.630333H135.918V4.89365Z" fill="currentColor"/></svg>