<svg viewBox="0 0 147 40" fill="none" width="100%" height="100%"><g clip-path="url(#clip0_8070_128)"><path d="M46.938 9.77002H55.179C59.632 9.77002 62.611 12.367 62.611 16.422C62.611 18.993 61.251 21.046 59.142 22.045L63.131 29.754H58.33L54.915 23.044H51.272V29.754H46.932V9.77002H46.938ZM51.278 13.337V19.475H54.837C56.89 19.475 58.19 18.276 58.19 16.419C58.19 14.562 56.89 13.335 54.837 13.335H51.278V13.337ZM63.751 22.442C63.751 17.873 66.786 14.907 71.384 14.907C75.982 14.907 78.845 17.646 78.903 21.957C78.903 22.387 78.875 22.869 78.787 23.328H68V23.526C68.087 25.609 69.445 26.866 71.499 26.866C73.149 26.866 74.304 26.152 74.652 24.783H78.673C78.209 27.638 75.638 29.922 71.673 29.922C66.727 29.922 63.751 26.982 63.751 22.442ZM74.797 20.699C74.507 18.9 73.262 17.902 71.412 17.902C69.562 17.902 68.317 18.959 68.087 20.699H74.797ZM90.688 15.081H94.767V29.755H91.152L90.778 27.984C89.824 29.125 88.524 29.925 86.41 29.925C83.347 29.925 80.51 28.412 80.51 23.215V15.079H84.589V22.672C84.589 25.298 85.459 26.584 87.482 26.584C89.505 26.584 90.691 25.129 90.691 22.416V15.079H90.689L90.691 15.081H90.688ZM97.179 10.98H101.258V15.09H104.643V18.488H101.258V24.913C101.258 25.941 101.664 26.368 102.703 26.368H104.813V29.764H101.428C98.593 29.764 97.177 28.367 97.177 25.569V10.982L97.179 10.98ZM105.485 22.442C105.485 17.873 108.52 14.907 113.121 14.907C117.722 14.907 120.582 17.646 120.64 21.957C120.642 22.4166 120.603 22.8753 120.524 23.328H109.736V23.526C109.82 25.609 111.181 26.866 113.235 26.866C114.884 26.866 116.04 26.152 116.391 24.783H120.408C119.944 27.638 117.373 29.922 113.411 29.922C108.465 29.922 105.485 26.982 105.485 22.442ZM116.535 20.699C116.245 18.9 115 17.902 113.15 17.902C111.3 17.902 110.055 18.959 109.825 20.699H116.535ZM131.505 15.079V18.735H129.886C127.455 18.735 126.532 20.332 126.532 22.561V29.755H122.454V15.081H126.155L126.532 17.277C127.342 15.964 128.496 15.081 130.811 15.081H131.505V15.079ZM136.031 24.873C136.176 26.157 137.302 27.042 139.3 27.042C141.005 27.042 142.047 26.499 142.047 25.473C142.047 24.274 141.037 24.189 138.635 23.876C135.163 23.476 132.473 22.705 132.473 19.681C132.473 16.657 135.048 14.856 138.863 14.886C142.852 14.886 145.603 16.629 145.805 19.623H141.9C141.787 18.452 140.656 17.738 139.009 17.738C137.362 17.738 136.378 18.31 136.378 19.251C136.378 20.366 137.651 20.48 139.792 20.736C143.207 21.078 146.04 21.851 146.04 25.162C146.04 28.072 143.263 29.929 139.272 29.929C135.281 29.929 132.333 28.014 132.157 24.878H136.032H136.03V24.873H136.031Z" fill="#212223"/><path d="M34.579 5.368C34.8304 5.61859 35.0297 5.91646 35.1655 6.24444C35.3013 6.57242 35.3708 6.92403 35.37 7.279C35.3713 7.63405 35.3021 7.98582 35.1663 8.31388C35.0305 8.64194 34.8309 8.93974 34.579 9.19C34.0727 9.69593 33.3862 9.98012 32.6705 9.98012C31.9548 9.98012 31.2683 9.69593 30.762 9.19C30.5106 8.93941 30.3113 8.64154 30.1755 8.31356C30.0397 7.98558 29.9702 7.63397 29.971 7.279C29.971 6.556 30.25 5.878 30.762 5.368C31.0123 5.11665 31.3098 4.91727 31.6374 4.78135C31.965 4.64542 32.3163 4.57563 32.671 4.576C33.362 4.576 34.055 4.84 34.58 5.368H34.579ZM5.378 34.624C4.87329 34.1163 4.59 33.4294 4.59 32.7135C4.59 31.9976 4.87329 31.3107 5.378 30.803C5.62794 30.5512 5.92538 30.3515 6.25308 30.2156C6.58078 30.0796 6.93222 30.0101 7.287 30.011C7.64186 30.0095 7.99346 30.0788 8.32124 30.2148C8.64902 30.3508 8.9464 30.5507 9.196 30.803C9.70071 31.3107 9.984 31.9976 9.984 32.7135C9.984 33.4294 9.70071 34.1163 9.196 34.624C8.94606 34.8758 8.64862 35.0755 8.32092 35.2114C7.99322 35.3474 7.64178 35.4169 7.287 35.416C6.567 35.416 5.887 35.136 5.378 34.624ZM25.955 5.58L25.936 5.572C25.362 5.329 24.913 4.878 24.676 4.3C24.5557 4.01328 24.4937 3.70545 24.4937 3.3945C24.4937 3.08355 24.5557 2.77572 24.676 2.489C24.7945 2.202 24.9685 1.9412 25.188 1.72155C25.4074 1.5019 25.6681 1.32773 25.955 1.209C26.248 1.088 26.553 1.027 26.86 1.027C27.1704 1.0271 27.4777 1.08897 27.764 1.209C28.3425 1.45046 28.8018 1.91128 29.0413 2.49059C29.2808 3.0699 29.2811 3.72051 29.042 4.3C28.544 5.506 27.159 6.079 25.955 5.58ZM13.108 34.239C13.414 34.239 13.719 34.3 14.01 34.418C14.5887 34.6593 15.0482 35.12 15.2879 35.6993C15.5276 36.2787 15.528 36.9294 15.289 37.509C15.171 37.7963 14.9972 38.0573 14.7776 38.277C14.5581 38.4967 14.2972 38.6708 14.01 38.789C13.427 39.032 12.787 39.032 12.201 38.789C11.6223 38.5477 11.1628 38.087 10.9231 37.5077C10.6834 36.9283 10.683 36.2776 10.922 35.698C11.0989 35.2644 11.4014 34.8936 11.7905 34.6331C12.1796 34.3727 12.6377 34.2344 13.106 34.236L13.108 34.239ZM22.003 2.027C22.003 3.114 21.143 4.004 20.071 4.054H19.979C19.442 4.05268 18.9274 3.83863 18.5479 3.45872C18.1683 3.07882 17.9548 2.564 17.954 2.027C17.9548 1.49017 18.1682 0.975506 18.5475 0.595628C18.9268 0.215749 19.4412 0.00158611 19.978 0C21.093 0 22.003 0.914 22.003 2.029V2.027ZM17.951 37.973C17.9518 37.436 18.1653 36.9212 18.5449 36.5413C18.9244 36.1614 19.439 35.9473 19.976 35.946C20.513 35.9473 21.0276 36.1614 21.4071 36.5413C21.7867 36.9212 22.0002 37.436 22.001 37.973C22.0002 38.51 21.7867 39.0248 21.4071 39.4047C21.0276 39.7846 20.513 39.9987 19.976 40C19.439 39.9987 18.9244 39.7846 18.5449 39.4047C18.1653 39.0248 17.9518 38.51 17.951 37.973ZM13.76 4.956C13.5553 5.04127 13.3357 5.08517 13.114 5.08517C12.8923 5.08517 12.6727 5.04127 12.468 4.956C12.2622 4.87191 12.0752 4.74757 11.9181 4.59028C11.761 4.43299 11.6369 4.2459 11.553 4.04C11.4679 3.83489 11.4241 3.61502 11.4241 3.39297C11.424 3.17092 11.4678 2.95104 11.5527 2.74589C11.6377 2.54074 11.7623 2.35435 11.9193 2.19737C12.0764 2.04038 12.2628 1.91589 12.468 1.831C12.6717 1.74592 12.8902 1.70208 13.111 1.702C13.775 1.702 14.403 2.098 14.674 2.747C14.846 3.167 14.846 3.626 14.674 4.04C14.5906 4.24619 14.4667 4.43353 14.3095 4.59088C14.1523 4.74824 13.9651 4.8724 13.759 4.956H13.76ZM26.196 35.043C26.4015 34.9566 26.6221 34.9118 26.845 34.911C27.0663 34.9121 27.2853 34.9559 27.49 35.04C27.909 35.214 28.234 35.539 28.405 35.956C28.5764 36.37 28.5764 36.835 28.405 37.249C28.3216 37.4552 28.1977 37.6425 28.0405 37.7999C27.8833 37.9572 27.6961 38.0814 27.49 38.165C27.2849 38.25 27.065 38.2938 26.843 38.2938C26.621 38.2938 26.4011 38.25 26.196 38.165C25.9899 38.0814 25.8027 37.9572 25.6455 37.7999C25.4883 37.6425 25.3644 37.4552 25.281 37.249C25.109 36.829 25.109 36.373 25.281 35.956C25.453 35.539 25.777 35.214 26.196 35.043ZM8.239 6.342C8.759 6.862 8.766 7.699 8.265 8.229L8.235 8.259C7.9803 8.51151 7.63616 8.65319 7.2775 8.65319C6.91884 8.65319 6.5747 8.51151 6.32 8.259C6.06719 8.00425 5.92532 7.6599 5.92532 7.301C5.92532 6.9421 6.06719 6.59775 6.32 6.343C6.44546 6.21677 6.59465 6.11659 6.75898 6.04823C6.9233 5.97987 7.09952 5.94468 7.2775 5.94468C7.45548 5.94468 7.6317 5.97987 7.79602 6.04823C7.96035 6.11659 8.10954 6.21677 8.235 6.343H8.237L8.238 6.342H8.239ZM31.703 31.75C31.8279 31.6242 31.9766 31.5244 32.1403 31.4564C32.3041 31.3884 32.4797 31.3536 32.657 31.354C32.8347 31.3538 33.0108 31.3886 33.175 31.4566C33.3392 31.5245 33.4884 31.6242 33.614 31.75C33.87 32.004 34.009 32.344 34.009 32.705C34.0104 32.973 33.9319 33.2353 33.7837 33.4586C33.6354 33.6819 33.4241 33.856 33.1766 33.9587C32.929 34.0614 32.6565 34.0882 32.3938 34.0355C32.131 33.9829 31.8898 33.8532 31.701 33.663C31.5753 33.5372 31.4757 33.3878 31.4079 33.2234C31.3401 33.059 31.3055 32.8828 31.306 32.705C31.306 32.346 31.446 32.006 31.701 31.75H31.703ZM2.747 14.682C1.885 14.325 1.476 13.333 1.832 12.473C1.91537 12.2668 2.03933 12.0795 2.19652 11.9221C2.3537 11.7648 2.5409 11.6406 2.747 11.557C2.95316 11.4731 3.17343 11.4293 3.396 11.428C3.6174 11.4281 3.8366 11.4719 4.041 11.557C4.903 11.914 5.312 12.906 4.956 13.766C4.87263 13.9722 4.74867 14.1595 4.59149 14.3169C4.4343 14.4742 4.2471 14.5984 4.041 14.682C3.8363 14.7673 3.61675 14.8112 3.395 14.8112C3.17325 14.8112 2.9537 14.7673 2.749 14.682H2.747ZM37.216 25.324C37.4221 25.4076 37.6093 25.5318 37.7665 25.6891C37.9237 25.8465 38.0476 26.0338 38.131 26.24C38.303 26.66 38.303 27.116 38.131 27.533C37.9593 27.9467 37.6305 28.2754 37.2167 28.4467C36.8028 28.6181 36.3379 28.6182 35.924 28.447C35.7179 28.3634 35.5307 28.2392 35.3735 28.0819C35.2163 27.9245 35.0924 27.7372 35.009 27.531C34.837 27.111 34.837 26.655 35.009 26.238C35.278 25.589 35.908 25.195 36.572 25.195C36.7927 25.1959 37.0121 25.2397 37.216 25.324ZM0 20.011C0.000791976 19.474 0.21433 18.9592 0.593863 18.5793C0.973395 18.1994 1.488 17.9853 2.025 17.984C2.562 17.9853 3.07661 18.1994 3.45614 18.5793C3.83567 18.9592 4.04921 19.474 4.05 20.011C4.04921 20.548 3.83567 21.0628 3.45614 21.4427C3.07661 21.8226 2.562 22.0367 2.025 22.038C1.488 22.0367 0.973395 21.8226 0.593863 21.4427C0.21433 21.0628 0.000791976 20.548 0 20.011ZM35.907 20.011C35.9078 19.474 36.1213 18.9592 36.5009 18.5793C36.8804 18.1994 37.395 17.9853 37.932 17.984C38.469 17.9853 38.9836 18.1994 39.3631 18.5793C39.7427 18.9592 39.9562 19.474 39.957 20.011C39.9562 20.548 39.7427 21.0628 39.3631 21.4427C38.9836 21.8226 38.469 22.0367 37.932 22.038C37.395 22.0367 36.8804 21.8226 36.5009 21.4427C36.1213 21.0628 35.9078 20.548 35.907 20.011ZM1.199 27.783C0.959983 27.2034 0.960376 26.5527 1.20009 25.9733C1.43981 25.394 1.89931 24.9333 2.478 24.692C3.061 24.449 3.701 24.449 4.286 24.692C4.57291 24.8107 4.83357 24.9849 5.05305 25.2045C5.27252 25.4242 5.4465 25.685 5.565 25.972C5.68533 26.2587 5.7473 26.5666 5.7473 26.8775C5.7473 27.1884 5.68533 27.4963 5.565 27.783C5.4465 28.07 5.27252 28.3308 5.05305 28.5504C4.83357 28.7701 4.57291 28.9443 4.286 29.063C3.703 29.306 3.063 29.306 2.478 29.063C2.19109 28.9443 1.93043 28.7701 1.71095 28.5504C1.49148 28.3308 1.3175 28.07 1.199 27.783ZM34.373 14.024C34.2539 13.7374 34.1925 13.4301 34.1924 13.1197C34.1922 12.8093 34.2533 12.5019 34.3721 12.2152C34.4909 11.9284 34.6651 11.6679 34.8847 11.4486C35.1044 11.2293 35.3651 11.0554 35.652 10.937C35.9365 10.8169 36.2422 10.755 36.551 10.755C37.479 10.755 38.36 11.304 38.737 12.214C38.976 12.7936 38.9756 13.4443 38.7359 14.0237C38.4962 14.603 38.0367 15.0637 37.458 15.305C36.875 15.548 36.235 15.548 35.65 15.305C35.065 15.062 34.614 14.608 34.371 14.025L34.373 14.024ZM25.723 25.75C25.3676 26.1062 25.168 26.5888 25.168 27.092C25.168 27.5952 25.3676 28.0778 25.723 28.434C26.464 29.176 27.666 29.176 28.407 28.434C28.5839 28.2585 28.7242 28.0495 28.8197 27.8193C28.9151 27.5891 28.9638 27.3422 28.963 27.093C28.9637 26.844 28.9149 26.5972 28.8195 26.3672C28.724 26.1372 28.5838 25.9284 28.407 25.753C28.037 25.383 27.553 25.198 27.068 25.198C26.5649 25.1975 26.082 25.3955 25.724 25.749L25.723 25.75ZM9.902 18.851C9.1 18.638 8.626 17.812 8.84 17.009C8.89086 16.818 8.97897 16.6389 9.09927 16.482C9.21957 16.3252 9.36969 16.1936 9.541 16.095C9.76719 15.9621 10.0246 15.8917 10.287 15.891C10.416 15.891 10.548 15.906 10.678 15.941C11.065 16.046 11.39 16.294 11.59 16.643C11.79 16.992 11.843 17.398 11.74 17.786C11.6893 17.9768 11.6014 18.1557 11.4814 18.3125C11.3614 18.4692 11.2116 18.6008 11.0407 18.6995C10.8698 18.7983 10.681 18.8623 10.4852 18.888C10.2895 18.9136 10.0906 18.9004 9.9 18.849H9.902V18.851ZM29.272 24.048C28.885 23.943 28.56 23.695 28.36 23.346C28.16 22.997 28.107 22.591 28.21 22.203C28.2609 22.012 28.349 21.8329 28.4693 21.676C28.5896 21.5192 28.7397 21.3876 28.911 21.289C29.1381 21.1565 29.3961 21.0865 29.659 21.086C29.7672 21.0858 29.8752 21.0972 29.981 21.12L30.052 21.139C30.854 21.352 31.328 22.182 31.114 22.981C31.063 23.1718 30.9749 23.3507 30.8546 23.5074C30.7343 23.6641 30.5842 23.7955 30.413 23.894C30.065 24.094 29.659 24.15 29.272 24.045V24.048ZM9.132 22.908C9.05321 22.6111 9.09027 22.2954 9.23567 22.0248C9.38107 21.7543 9.62393 21.5491 9.915 21.451L9.984 21.432C10.625 21.258 11.286 21.643 11.458 22.284C11.542 22.596 11.501 22.92 11.337 23.2C11.1771 23.4765 10.9143 23.6785 10.606 23.762C10.297 23.846 9.974 23.804 9.691 23.64C9.41491 23.4799 9.21327 23.2171 9.13 22.909L9.132 22.907V22.908ZM29.055 18.453L29.003 18.421C28.752 18.257 28.573 18.012 28.496 17.722C28.324 17.078 28.704 16.418 29.347 16.244C29.99 16.07 30.649 16.455 30.821 17.096C30.993 17.737 30.613 18.4 29.97 18.572C29.659 18.656 29.338 18.611 29.055 18.451V18.453ZM13.559 27.686L13.525 27.72C13.172 28.073 12.597 28.073 12.244 27.72C11.891 27.367 11.891 26.793 12.244 26.44C12.597 26.087 13.172 26.087 13.525 26.44C13.6096 26.5239 13.6766 26.6238 13.7223 26.7338C13.7679 26.8439 13.7913 26.9619 13.791 27.081C13.7922 27.3043 13.7094 27.5199 13.559 27.685V27.686ZM27.701 12.259C27.786 12.3427 27.8534 12.4425 27.8995 12.5526C27.9455 12.6626 27.9692 12.7807 27.9692 12.9C27.9692 13.0193 27.9455 13.1374 27.8995 13.2474C27.8534 13.3575 27.786 13.4573 27.701 13.541C27.348 13.894 26.773 13.894 26.42 13.541C26.335 13.4573 26.2676 13.3575 26.2215 13.2474C26.1755 13.1374 26.1518 13.0193 26.1518 12.9C26.1518 12.7807 26.1755 12.6626 26.2215 12.5526C26.2676 12.4425 26.335 12.3427 26.42 12.259C26.591 12.087 26.818 11.992 27.061 11.992C27.304 11.992 27.53 12.084 27.702 12.256V12.258L27.701 12.259ZM18.424 29.089C18.585 29.366 18.627 29.693 18.545 30.005C18.463 30.317 18.263 30.575 17.984 30.736C17.705 30.897 17.38 30.939 17.069 30.857C16.428 30.685 16.046 30.023 16.218 29.382C16.302 29.07 16.5 28.812 16.779 28.651C16.9159 28.5713 17.0673 28.5194 17.2243 28.4985C17.3813 28.4776 17.541 28.4879 17.694 28.529C18.005 28.613 18.264 28.811 18.425 29.091L18.424 29.089ZM21.524 10.916C21.363 10.639 21.32 10.312 21.402 10C21.484 9.688 21.684 9.43 21.963 9.269C22.145 9.16437 22.3511 9.10888 22.561 9.108C22.666 9.108 22.769 9.121 22.875 9.147C23.0279 9.18746 23.1712 9.25799 23.2966 9.35449C23.4219 9.45099 23.5268 9.57151 23.605 9.709C23.766 9.986 23.809 10.313 23.727 10.625C23.555 11.266 22.894 11.649 22.253 11.477C22.1001 11.4365 21.9568 11.366 21.8314 11.2695C21.7061 11.173 21.6012 11.0525 21.523 10.915L21.524 10.916ZM23.332 28.396L23.396 28.433C23.709 28.6349 23.9358 28.9461 24.032 29.306C24.245 30.108 23.77 30.934 22.97 31.148C22.579 31.254 22.177 31.198 21.829 30.998C21.481 30.798 21.233 30.473 21.128 30.085C21.0757 29.894 21.0617 29.6946 21.0869 29.4983C21.112 29.3019 21.1758 29.1124 21.2745 28.9408C21.3733 28.7692 21.505 28.6188 21.6621 28.4984C21.8192 28.3779 21.9986 28.2898 22.19 28.239C22.3184 28.2059 22.4504 28.1891 22.583 28.189C22.8459 28.1895 23.1039 28.2595 23.331 28.392L23.333 28.394V28.395L23.332 28.396ZM17.772 11.763C17.3871 11.864 16.9779 11.809 16.6334 11.6099C16.2888 11.4109 16.0368 11.0839 15.932 10.7C15.719 9.898 16.193 9.072 16.994 8.858C17.1203 8.82478 17.2504 8.80797 17.381 8.808C18.045 8.808 18.654 9.251 18.834 9.922C19.047 10.724 18.572 11.55 17.772 11.764V11.763ZM12.889 14.785C13.935 14.785 14.782 13.937 14.782 12.89C14.782 11.843 13.934 10.995 12.889 10.995C11.844 10.995 10.996 11.843 10.996 12.89C10.996 13.937 11.844 14.785 12.889 14.785Z" fill="#D64000"/></g><defs><clipPath id="clip0_8070_128"><rect width="147" height="40" fill="white"/></clipPath></defs></svg>