<svg viewBox="0 0 454 40" fill="none" width="100%" height="100%"><g clip-path="url(#clip0_8070_123)"><path d="M12.5543 35.6777C12.5543 37.4301 13.0634 37.7687 14.1946 38.0528L15.9474 38.4487V39.24H4.29764V38.4487L5.76806 38.1101C6.89929 37.8278 7.40838 37.2609 7.40838 35.6794V1.41333H6.16408C2.6579 1.41333 1.2443 7.12406 0.848278 13.1739H0V0.282899H19.9627V13.1745H19.1144C18.7184 7.12464 17.3048 1.41391 13.7986 1.41391H12.5543V35.6777ZM21.207 38.4481L22.4513 38.1084C23.5825 37.8261 24.0916 37.2603 24.0916 35.6777V3.78841C24.0916 2.20522 23.5825 1.69623 22.4513 1.41333L21.207 1.0742V0.282319H32.2346V1.0742L30.934 1.41333C29.8596 1.69623 29.2375 2.14841 29.2375 3.73159V18.6017H37.7771V3.73159C37.7771 2.14841 37.1549 1.69623 36.0805 1.41333L34.78 1.0742V0.282319H45.8076V1.0742L44.5633 1.41333C43.4327 1.69623 42.9236 2.20522 42.9236 3.78841V35.6214C42.9236 37.2046 43.4327 37.8278 44.5633 38.1101L45.8076 38.4487V39.24H34.7794V38.4487L36.08 38.167C37.1544 37.8846 37.7765 37.2614 37.7765 35.6794V19.9026H29.2375V35.6777C29.2375 37.2603 29.8596 37.8829 30.934 38.1652L32.2346 38.4481V39.2383H21.207V38.4481ZM55.0819 38.1096H58.9841C64.0737 38.1096 65.0351 32.342 65.7135 26.349H66.5617V39.2388H47.0513V38.4481L48.2956 38.1096C49.4269 37.8267 49.9359 37.2603 49.9359 35.6783V3.84464C49.9359 2.26203 49.4269 1.69623 48.2956 1.41333L47.0513 1.0742V0.282319H65.9964V13.1739H65.1481C64.526 7.12406 63.3385 1.41333 58.9841 1.41333H55.0819V18.4325L56.8915 18.3757C59.3233 18.2058 60.2278 16.1142 60.8499 11.1942H61.6982V26.9125H60.8499C60.3414 20.7496 59.3795 19.7884 56.8347 19.6185L55.0819 19.5617V38.1096ZM78.6533 5.48464C77.9181 2.14899 77.4659 1.64 76.3914 1.3571L75.317 1.0742V0.282319H85.8924V1.0742L85.0441 1.24348C83.2345 1.63942 83.4038 3.4487 83.9129 5.88L88.3804 28.0441L91.6605 10.4029L90.473 4.35246C90.0207 2.20406 89.8508 1.5258 88.7202 1.2429L87.985 1.07362V0.281739H98.3342V1.07362L97.0899 1.29971C95.2235 1.63884 95.5064 3.6742 95.9587 5.87942L100.257 28.0446L104.498 7.06725C105.29 2.71362 104.894 1.63942 103.198 1.30029L102.01 1.0742V0.282319H109.758V1.0742L108.683 1.3571C107.326 1.69623 106.987 2.77043 106.195 6.55884L99.2955 39.4661H97.8251L92.5093 13.7965L87.702 39.4661H85.8356L78.6533 5.48464ZM133.962 38.1096H136.224C141.03 38.1096 142.445 32.3971 143.01 26.349H143.858V39.2388H114.96V38.4481L116.147 38.2209C118.579 37.7699 118.579 37.0916 117.957 33.6974L116.883 28.6087H109.927L109.191 32.4551C108.343 36.8087 108.795 37.8817 110.492 38.2209L111.68 38.4481V39.2388H103.819V38.4481L104.781 38.1658C106.307 37.7136 106.703 36.8087 107.495 32.9635L114.395 0.0556522H116.091L123.33 34.0371C124.065 37.5432 124.404 38.2765 126.44 38.2765C128.193 38.2765 128.815 37.3716 128.815 35.6771V3.78783C128.815 2.20464 128.306 1.69565 127.175 1.41275L125.931 1.07362V0.282319H137.128V1.13043L135.601 1.46957C134.47 1.69565 133.961 2.20464 133.961 3.78783L133.962 38.1096ZM110.153 27.309H116.6L113.32 11.2522L110.153 27.309ZM153.133 38.1096H155.395C160.202 38.1096 161.616 32.3971 162.181 26.349H163.029V39.2388H145.103V38.4481L146.347 38.1096C147.478 37.8267 147.987 37.2603 147.987 35.6783V3.78841C147.987 2.20522 147.478 1.69623 146.347 1.41333L145.103 1.0742V0.282319H156.3V1.13043L154.773 1.46957C153.642 1.69565 153.133 2.20464 153.133 3.78783V38.1096ZM181.47 39.4649C178.191 39.4649 177.06 37.2046 175.986 37.2046C175.363 37.2046 174.628 37.3739 174.063 39.24H173.385V26.3478H174.233C174.912 33.6417 177.627 38.2203 181.415 38.2203C183.96 38.2203 185.713 35.902 185.713 31.7183C185.713 22.8974 173.102 19.1096 173.102 9.32754C173.102 4.06957 175.817 0.0544927 180.624 0.0544927C183.734 0.0544927 184.413 2.08986 185.713 2.08986C186.448 2.08986 186.958 1.52464 187.24 0.28058H187.918V13.1722H187.07C186.392 6.67015 184.639 1.29855 180.566 1.29855C177.739 1.29855 177.173 4.12522 177.173 6.04812C177.173 14.473 189.784 17.3565 189.784 29.1165C189.782 35.1125 186.503 39.4649 181.47 39.4649ZM202.281 35.6777C202.281 37.2603 202.79 37.8261 203.921 38.1084L205.392 38.4481V39.2383H194.025V38.4481L195.495 38.1084C196.627 37.8261 197.136 37.2603 197.136 35.6777V1.41333H195.891C192.385 1.41333 190.972 7.12406 190.576 13.1739H189.727V0.282899H209.691V13.1745H208.842C208.446 7.12464 207.033 1.41391 203.527 1.41391H202.282V35.6777H202.281ZM210.934 38.4481L212.178 38.1084C213.309 37.8261 213.818 37.2603 213.818 35.6777V3.78841C213.818 2.20522 213.309 1.69623 212.178 1.41333L210.934 1.0742V0.282319H221.735C226.543 0.282319 231.01 3.33565 231.01 9.72464C231.01 14.6441 228.691 18.0933 223.997 19.3374C229.144 20.298 229.144 22.7304 229.653 29.2313L229.992 34.207C230.162 36.9774 230.275 37.6006 231.067 37.6006C231.915 37.6006 232.255 35.6788 232.255 33.8122V32.851H233.216V34.1507C233.216 37.2609 232.537 39.4655 229.314 39.4655C226.147 39.4655 224.677 37.6562 224.449 31.1548L224.168 23.9177C224.055 20.4684 223.206 19.9594 221.566 19.9594H218.908V35.6783C218.908 37.2609 219.417 37.8835 220.548 38.1658L221.793 38.4487V39.2388H210.934L210.934 38.4481ZM218.907 18.8284H220.774C223.941 18.8284 225.524 17.9803 225.524 10.4603C225.524 2.94029 223.432 1.41391 221.17 1.41391H218.908L218.907 18.8284ZM241.585 38.1096H245.486C250.576 38.1096 251.539 32.342 252.216 26.349H253.064V39.2388H233.554V38.4481L234.798 38.1096C235.929 37.8267 236.438 37.2603 236.438 35.6783V3.84464C236.438 2.26203 235.929 1.69623 234.798 1.41333L233.554 1.0742V0.282319H252.499V13.1739H251.651C251.03 7.12406 249.841 1.41333 245.486 1.41333H241.585V18.4325L243.394 18.3757C245.825 18.2058 246.731 16.1142 247.353 11.1942H248.202V26.9125H247.353C246.843 20.7496 245.883 19.7884 243.336 19.6185L241.585 19.5617V38.1096ZM262.566 38.1096H266.468C271.556 38.1096 272.519 32.342 273.197 26.349H274.045V39.2388H254.536V38.4481L255.78 38.1096C256.911 37.8267 257.42 37.2603 257.42 35.6783V3.84464C257.42 2.26203 256.911 1.69623 255.78 1.41333L254.536 1.0742V0.282319H273.481V13.1739H272.633C272.01 7.12406 270.823 1.41333 266.468 1.41333H262.566V18.4325L264.376 18.3757C266.807 18.2058 267.712 16.1142 268.334 11.1942H269.183V26.9125H268.334C267.825 20.7496 266.864 19.7884 264.319 19.6185L262.566 19.5617V38.1096ZM287.845 35.6777C287.845 37.4301 288.356 37.7687 289.485 38.0528L291.238 38.4487V39.24H279.588V38.4487L281.058 38.1101C282.188 37.8278 282.699 37.2609 282.699 35.6794V1.41333H281.454C277.948 1.41333 276.535 7.12406 276.139 13.1739H275.29V0.282899H295.254V13.1745H294.405C294.009 7.12464 292.596 1.41391 289.09 1.41391H287.845V35.6777ZM318.896 30.2499C318.896 36.3009 315.841 39.4649 311.149 39.4649C306.909 39.4649 304.421 36.0168 304.476 32.2284C304.533 29.2887 306.681 27.8191 308.434 28.0446C309.678 28.2139 310.923 29.1188 310.753 31.098C310.583 33.9252 307.528 33.8122 307.416 35.5646C307.303 36.6394 308.716 38.222 310.525 38.222C313.693 38.222 313.693 34.2075 313.693 31.1548V3.73159C313.693 2.14841 313.183 1.69623 311.94 1.41333L310.527 1.0742V0.282319H321.669V1.0742L320.424 1.41333C319.294 1.69623 318.898 2.20522 318.898 3.78841L318.896 30.2499ZM332.073 39.5223C325.457 39.5223 322.233 30.589 322.233 19.7322C322.233 8.93333 325.343 0 332.073 0C338.747 0 341.97 8.93333 341.97 19.7322C341.97 30.589 338.917 39.5223 332.073 39.5223ZM332.073 1.30029C329.246 1.30029 327.833 3.56174 327.833 19.5072C327.833 35.96 329.133 38.2788 332.073 38.2788C335.014 38.2788 336.371 35.96 336.371 19.393C336.371 3.56232 335.014 1.30029 332.073 1.30029ZM364.365 38.4481L365.609 38.1084C366.74 37.8261 367.249 37.2603 367.249 35.6777V3.78841C367.249 1.92232 366.401 1.24406 364.421 1.24406C361.933 1.24406 361.311 2.37507 361.311 5.59768V30.1368C361.311 36.2435 359.162 39.5223 353.904 39.5223C348.475 39.5223 345.308 36.2435 345.308 30.3067V3.78841C345.308 2.20522 344.912 1.69623 343.781 1.41333L342.537 1.0742V0.282319H353.791V1.0742L352.263 1.41333C351.019 1.69623 350.511 2.14841 350.511 3.73159V30.702C350.511 36.1867 352.094 37.6 354.978 37.6C358.372 37.6 359.785 35.6777 359.785 30.1362V7.63304C359.785 2.88348 359.729 1.75246 357.694 1.30029L356.619 1.0742V0.282319H375.169C379.975 0.282319 384.443 3.33565 384.443 9.72464C384.443 14.6441 382.124 18.0933 377.43 19.3374C382.576 20.298 382.576 22.7304 383.086 29.2313L383.425 34.207C383.595 36.9774 383.707 37.6006 384.5 37.6006C385.348 37.6006 385.688 35.6788 385.688 33.8122V32.851H386.649V34.1507C386.649 37.2609 385.97 39.4655 382.747 39.4655C379.58 39.4655 378.11 37.6562 377.882 31.1548L377.6 23.9177C377.487 20.4684 376.639 19.9594 374.999 19.9594H372.341V35.6783C372.341 37.2609 372.85 37.8835 373.981 38.1658L375.226 38.4487V39.2388H364.367V38.4487L364.365 38.4481ZM372.339 18.8284H374.205C377.371 18.8284 378.955 17.9803 378.955 10.4603C378.955 2.94029 376.863 1.41391 374.6 1.41391H372.339V18.8284ZM387.664 1.30029L386.874 1.0742V0.282319H394.281L404.404 25.9519V7.46319C404.404 3.27942 404.516 1.80928 401.519 1.30029L400.558 1.0742V0.282319H408.928V1.0742L408.137 1.30029C405.706 1.86551 405.876 3.84464 405.876 7.80232V39.2394H404.066L391.398 8.0858V32.0591C391.398 36.6388 391.398 37.9403 395.017 38.4481V39.2383H386.872V38.4481L387.892 38.2783C389.983 37.8812 389.927 35.847 389.927 31.72V4.69275C388.965 2.7142 388.569 1.63942 387.664 1.30029ZM437.43 38.1096H439.692C444.499 38.1096 445.913 32.3971 446.479 26.349H447.327V39.2388H418.485V38.4481L419.673 38.2209C422.105 37.7699 422.161 37.0916 421.483 33.6974L420.408 28.6087H413.453L412.716 32.4551C411.867 36.8087 412.32 37.8817 414.017 38.2209L415.204 38.4481V39.2388H407.343V38.4481L408.304 38.1658C409.832 37.7136 410.226 36.8087 411.019 32.9635L417.918 0.0562319H419.615L426.853 34.0377C427.59 37.5438 427.871 38.2771 429.908 38.2771C431.659 38.2771 432.283 37.3722 432.283 35.6777V3.78783C432.283 2.20464 431.774 1.69565 430.644 1.41275L429.399 1.07362V0.282319H440.597V1.13043L439.07 1.46957C437.939 1.69565 437.43 2.20464 437.43 3.78783L437.43 38.1096ZM413.678 27.309H420.125L416.846 11.2516L413.678 27.309ZM454 36.7513C454 38.2783 452.869 39.4093 451.512 39.4093C450.155 39.4093 449.023 38.2783 449.023 36.7513C449.023 35.2249 450.155 34.0939 451.512 34.0939C452.869 34.0939 454 35.2255 454 36.7513Z" fill="black"/></g><defs><clipPath id="clip0_8070_123"><rect width="454" height="40" fill="white"/></clipPath></defs></svg>