<svg viewBox="0 0 148 40" fill="none" width="100%" height="100%"><path d="M83.842 13.4815C83.842 9.18521 83.916 5.18521 84.138 1.48151L72.816 3.62965V4.66669L73.926 4.81484C74.74 4.88891 75.258 5.18521 75.554 5.62965C75.85 6.14817 76.072 6.88891 76.22 8.00002C76.368 10.1482 76.516 15.0371 76.442 22.7408C76.442 30.3704 76.368 35.1852 76.22 37.0371C80.29 37.9259 83.472 38.2963 85.84 38.2963C90.28 38.2963 93.758 37.0371 96.274 34.4445C98.79 31.9259 100.122 28.3704 100.122 24C100.122 20.5185 99.16 17.6297 97.236 15.3334C95.312 13.0371 92.87 11.926 89.984 11.926C88.06 11.926 86.062 12.4445 83.842 13.4815ZM84.064 36.2963C83.916 33.9259 83.768 26.8148 83.768 15.1852C84.434 14.963 85.322 14.8148 86.432 14.8148C88.208 14.8148 89.614 15.7037 90.65 17.5556C91.686 19.4074 92.204 21.6297 92.204 24.4445C92.204 27.9259 91.612 30.7408 90.428 33.1111C89.244 35.4074 87.764 36.5926 85.914 36.5926C85.322 36.4445 84.73 36.3704 84.064 36.2963ZM30.34 2.22225H0.740005V3.70373L2.29401 3.85188C3.47801 4.0741 4.29201 4.51854 4.81001 5.18521C5.32801 5.92595 5.62401 7.11114 5.69801 8.74077C6.29001 16.7408 6.29001 24.2222 5.69801 31.1111C5.55001 32.7408 5.25401 33.9259 4.81001 34.6667C4.29201 35.4074 3.47801 35.8519 2.29401 36L0.740005 36.2222V37.7037H19.832V36.2222L17.834 36.0741C16.65 35.926 15.836 35.4074 15.318 34.7408C14.8 34 14.504 32.8148 14.43 31.1852C14.208 28.2222 14.06 24.8148 14.06 21.0371L18.056 21.1111C20.202 21.1852 21.682 22.8148 22.422 26.0741H23.902V14H22.422C21.682 17.1852 20.276 18.8148 18.056 18.8889L14.06 18.963C14.06 12.2963 14.208 7.55558 14.43 4.66669H20.276C24.42 4.66669 27.232 7.33336 28.86 12.6667L30.636 12.1482L30.34 2.22225ZM26.862 25.0371C26.862 28.8889 27.972 32.0741 30.118 34.5926C32.264 37.1111 35.446 38.2963 39.442 38.2963C43.438 38.2963 46.694 37.0371 49.062 34.4445C51.43 31.9259 52.54 28.7408 52.54 24.8889C52.54 21.0371 51.43 17.8519 49.284 15.3334C47.138 12.8148 43.956 11.6297 39.96 11.6297C35.964 11.6297 32.708 12.8889 30.34 15.4815C27.972 18 26.862 21.1852 26.862 25.0371ZM43.364 16.5926C44.252 18.7408 44.622 21.5556 44.622 24.963C44.622 32.8148 42.994 36.6667 39.812 36.6667C38.184 36.6667 36.926 35.5556 36.038 33.3334C35.15 31.1111 34.78 28.2963 34.78 24.963C34.78 17.1852 36.408 13.3334 39.59 13.3334C41.218 13.2593 42.476 14.3704 43.364 16.5926ZM105.894 34.5926C108.336 37.0371 111.444 38.2963 115.144 38.2963C117.438 38.2963 119.436 37.8519 121.212 36.8889C122.988 36 124.394 34.8889 125.356 33.5556L124.616 32.6667C122.988 33.9259 121.138 34.5185 118.992 34.5185C116.032 34.5185 113.738 33.5556 112.184 31.5556C110.556 29.5556 109.816 27.0371 109.964 23.7778H125.8C125.8 20.2222 124.912 17.3334 123.062 15.0371C121.212 12.8148 118.622 11.7037 115.292 11.7037C111.148 11.7037 107.966 13.0371 105.672 15.6297C103.378 18.2222 102.268 21.4074 102.268 25.1852C102.268 29.0371 103.452 32.1482 105.894 34.5926ZM111.37 16C112.184 14.2222 113.22 13.3334 114.626 13.3334C116.846 13.3334 117.956 16.1482 117.956 21.8519L110.112 22C110.186 19.7778 110.556 17.7778 111.37 16ZM145.706 13.0371C143.708 12.1482 141.192 11.6297 138.158 11.6297C135.05 11.6297 132.608 12.4445 130.758 14C128.908 15.5556 127.946 17.4815 127.946 19.7778C127.946 21.7778 128.538 23.3334 129.648 24.4445C130.758 25.5556 132.534 26.5185 134.828 27.3334C136.9 28.0741 138.38 28.8148 139.12 29.4815C139.86 30.2222 140.304 31.0371 140.304 32.1482C140.304 33.1852 139.934 34.1482 139.12 34.8889C138.38 35.7037 137.344 36.0741 136.012 36.0741C132.756 36.0741 130.314 33.7037 128.612 28.963L127.354 29.3334L127.65 36.7408C130.314 37.7778 133.274 38.2963 136.53 38.2963C139.934 38.2963 142.524 37.5556 144.448 36C146.372 34.5185 147.334 32.3704 147.334 29.7037C147.334 27.9259 146.89 26.4445 145.928 25.3334C144.966 24.2222 143.412 23.2593 141.192 22.3704C138.75 21.4815 137.048 20.6667 136.16 19.9259C135.272 19.1852 134.828 18.2963 134.828 17.1852C134.828 16.0741 135.124 15.1852 135.79 14.4445C136.456 13.7037 137.27 13.4074 138.306 13.4074C141.266 13.4074 143.412 15.5556 144.744 19.7778L146.002 19.4074L145.706 13.0371ZM74.518 12.3704C73.482 11.8519 72.372 11.6297 71.114 11.6297C69.856 11.6297 68.598 12.1482 67.192 13.1852C65.786 14.2222 64.75 15.6297 63.936 17.5556L64.01 11.6297L52.762 13.8519V14.8889L53.872 14.963C55.278 15.1111 56.092 16.2222 56.24 18.2222C56.684 22.8148 56.684 27.7037 56.24 32.8889C56.092 34.8889 55.278 35.9259 53.872 36.1482L52.762 36.2963V37.7037H68.45V36.2963L66.452 36.1482C65.046 36 64.232 34.8889 64.084 32.8889C63.64 28.5926 63.566 24 63.936 19.2593C64.38 18.5185 65.342 18.0741 66.822 17.926C68.302 17.7778 70.004 18.2222 71.78 19.2593L74.518 12.3704Z" fill="black"/></svg>